<svg height="512" viewBox="0 0 60 60" width="512" xmlns="http://www.w3.org/2000/svg"><g id="Icons_copy" data-name="Icons copy"><circle cx="30" cy="30" fill="#607d8b" r="29"/><path d="m30 1q-.755 0-1.5.038a29 29 0 0 1 0 57.924q.746.038 1.5.038a29 29 0 0 0 0-58z" fill="#37474f"/><path d="m54.91 32a24.989 24.989 0 0 1 -49.82 0z" fill="#3f51b5"/><path d="m51.91 32a25 25 0 0 1 -23.41 22.95c.5.03 1 .05 1.5.05a25 25 0 0 0 24.91-23z" fill="#283593"/><path d="m55 30c0 .67-.03 1.34-.09 2h-49.82c-.06-.66-.09-1.33-.09-2a25 25 0 0 1 50 0z" fill="#00bcd4"/><circle cx="15" cy="24" fill="#a4c400" r="4"/><path d="m15 20a3.984 3.984 0 0 0 -1.5.3 3.992 3.992 0 0 1 0 7.406 4 4 0 1 0 1.5-7.706z" fill="#90ac00"/><circle cx="24" cy="16" fill="#e91e63" r="4"/><path d="m24 12a3.984 3.984 0 0 0 -1.5.3 3.992 3.992 0 0 1 0 7.406 4 4 0 1 0 1.5-7.706z" fill="#ad1457"/><circle cx="36" cy="16" fill="#9d27b0" r="4"/><path d="m36 12a3.984 3.984 0 0 0 -1.5.3 3.992 3.992 0 0 1 0 7.406 4 4 0 1 0 1.5-7.706z" fill="#6a1b9a"/><circle cx="45" cy="24" fill="#ffeb3a" r="4"/><path d="m45 20a3.984 3.984 0 0 0 -1.5.3 3.992 3.992 0 0 1 0 7.406 4 4 0 1 0 1.5-7.706z" fill="#fdd834"/><rect fill="#00bcd4" height="8" rx="1" width="26" x="17" y="37"/><path d="m42 37h-3a1 1 0 0 1 1 1v6a1 1 0 0 1 -1 1h3a1 1 0 0 0 1-1v-6a1 1 0 0 0 -1-1z" fill="#00838f"/><path d="m30 0a30 30 0 1 0 30 30 30.034 30.034 0 0 0 -30-30zm0 58a28 28 0 1 1 28-28 28.032 28.032 0 0 1 -28 28z"/><path d="m30 4a26 26 0 1 0 26 26 26.029 26.029 0 0 0 -26-26zm0 50a24.031 24.031 0 0 1 -23.806-21h47.612a24.031 24.031 0 0 1 -23.806 21zm23.975-23h-47.95c-.013-.332-.025-.665-.025-1a24 24 0 0 1 48 0c0 .335-.012.668-.025 1z"/><path d="m15 19a4.981 4.981 0 0 0 -3.5 1.438c-.011.01-.026.014-.037.025s-.015.026-.025.037a4.994 4.994 0 1 0 3.562-1.5zm0 8a3 3 0 0 1 -3-3 2.951 2.951 0 0 1 .3-1.285l1.992 1.992a1 1 0 0 0 1.414-1.414l-1.991-1.993a2.951 2.951 0 0 1 1.285-.3 3 3 0 0 1 0 6z"/><path d="m24 11a5 5 0 1 0 5 5 5.006 5.006 0 0 0 -5-5zm0 8a2.993 2.993 0 0 1 -1-5.816v2.816a1 1 0 0 0 2 0v-2.816a2.993 2.993 0 0 1 -1 5.816z"/><path d="m36 11a4.994 4.994 0 0 0 -3.562 8.5c.01.011.014.026.025.037s.026.015.037.025a5 5 0 1 0 3.5-8.562zm0 8a2.951 2.951 0 0 1 -1.285-.3l1.992-1.992a1 1 0 0 0 -1.414-1.414l-1.993 1.991a2.951 2.951 0 0 1 -.3-1.285 3 3 0 1 1 3 3z"/><path d="m40 24a5 5 0 1 0 5-5 5.006 5.006 0 0 0 -5 5zm8 0a3 3 0 0 1 -2 2.816v-2.816a1 1 0 0 0 -2 0v2.816a2.995 2.995 0 1 1 4-2.816z"/><path d="m42 36h-24a2 2 0 0 0 -2 2v6a2 2 0 0 0 2 2h24a2 2 0 0 0 2-2v-6a2 2 0 0 0 -2-2zm-24 8v-6h24v6z"/><path d="m23 40h-1a1 1 0 0 0 0 2h1a1 1 0 0 0 0-2z"/><path d="m28 40h-1a1 1 0 0 0 0 2h1a1 1 0 0 0 0-2z"/><path d="m33 40h-1a1 1 0 0 0 0 2h1a1 1 0 0 0 0-2z"/><path d="m38 40h-1a1 1 0 0 0 0 2h1a1 1 0 0 0 0-2z"/><path d="m33 48h-6a1 1 0 0 0 0 2h6a1 1 0 0 0 0-2z"/></g></svg>