<svg id="Capa_1" enable-background="new 0 0 512 512" height="512" viewBox="0 0 512 512" width="512" xmlns="http://www.w3.org/2000/svg"><g><g><path d="m426.3 66.762c-36.907-30.809-99.409-51.065-170.3-51.065-71.769 0-134.939 20.761-171.659 52.214" fill="#f3eae6"/><path d="m270.921 15.998c-44.443 2.664-83.117 22.542-106.37 51.643l-80.213.27c36.722-31.455 99.891-52.214 171.662-52.214 5.017 0 9.994.1 14.921.301z" fill="#e1d3ce"/><path d="m239.332 333.264-176.675 110.652 193.343 26.195 193.343-26.195-176.675-110.652c-10.195-6.386-23.141-6.386-33.336 0z" fill="#f3eae6"/><path d="m264.401 468.971-8.402 1.142-193.342-26.197 176.669-110.646c7.581-4.757 16.693-5.968 25.065-3.645-1.792.791-3.535 2.013-5.157 3.645l-110.265 110.646z" fill="#e1d3ce"/><g><path d="m416.305 180.757-3.845 23.792c-1.88 11.63-11.924 20.175-23.697 20.175h-265.518c-11.772 0-21.808-8.545-23.687-20.175l-3.845-23.792 170.947-28.749z" fill="#f3eae6"/><path d="m175.382 224.723h-52.141c-11.772 0-21.808-8.545-23.687-20.175l-3.845-23.792 170.949-28.748 24.342 4.671-143.15 24.077 3.845 23.792c1.879 11.63 11.924 20.175 23.687 20.175z" fill="#e1d3ce"/><path d="m434.529 67.92-7.32 45.286-10.908 67.55h-320.593l-10.918-67.55-7.319-45.286z" fill="#5de1c4"/><path d="m434.529 67.92-7.32 45.286h-342.419l-7.319-45.286z" fill="#0ed2b3"/><path d="m147.849 180.756h-52.141l-18.237-112.836h52.14z" fill="#0ed2b3"/><path d="m487.879 87.473h-463.758c-9.179 0-16.62-7.441-16.62-16.62 0-9.179 7.441-16.62 16.62-16.62h463.758c9.179 0 16.62 7.441 16.62 16.62 0 9.179-7.441 16.62-16.62 16.62z" fill="#5de1c4"/><path d="m69.686 87.477h-45.561c-9.181 0-16.624-7.443-16.624-16.624 0-4.595 1.861-8.744 4.871-11.754 3.01-3 7.158-4.861 11.753-4.861h45.562c-4.586 0-8.744 1.861-11.753 4.861-3.01 3.01-4.871 7.158-4.871 11.754-.001 9.181 7.443 16.624 16.623 16.624z" fill="#0ed2b3"/></g><g><path d="m472.529 443.916h-433.058c-14.467 0-26.195 11.728-26.195 26.195 0 14.467 11.728 26.195 26.195 26.195h433.058c14.467 0 26.195-11.728 26.195-26.195 0-14.467-11.728-26.195-26.195-26.195z" fill="#e49280"/><path d="m78.413 488.637c4.738 4.738 11.292 7.67 18.526 7.67h-57.468c-7.234 0-13.788-2.932-18.526-7.67s-7.669-11.292-7.669-18.526c0-14.468 11.727-26.195 26.195-26.195h57.468c-14.468 0-26.195 11.727-26.195 26.195 0 7.234 2.932 13.788 7.669 18.526z" fill="#dd7f66"/></g></g><g><path d="m24.124 94.974h50.124l17.898 110.773c2.483 15.337 15.565 26.47 31.107 26.47h265.504c15.542 0 28.624-11.132 31.107-26.474l7.301-45.233c.66-4.089-2.12-7.939-6.209-8.599-4.102-.663-7.939 2.121-8.6 6.209l-2.443 15.135h-307.822l-12.649-78.281h333.117l-4.624 28.637c-.66 4.089 2.119 7.939 6.209 8.6.405.065.807.097 1.204.097 3.616 0 6.801-2.622 7.396-6.306l5.01-31.028h50.124c6.432 0 12.487-2.506 17.067-7.072 4.55-4.564 7.056-10.62 7.056-17.052 0-13.296-10.821-24.113-24.123-24.113h-76.797c-39.989-24.51-96.341-38.544-155.081-38.544-58.731 0-115.086 14.034-155.089 38.544h-29.952c-4.142 0-7.5 3.358-7.5 7.5s3.358 7.5 7.5 7.5h416.917c5.03 0 9.123 4.088 9.123 9.113 0 2.434-.951 4.729-2.662 6.445-1.732 1.727-4.027 2.678-6.461 2.678h-463.752c-5.031 0-9.124-4.093-9.124-9.124 0-2.433.948-4.721 2.662-6.435 1.733-1.727 4.028-2.679 6.462-2.679h12.147c4.142 0 7.5-3.358 7.5-7.5s-3.358-7.5-7.5-7.5h-12.147c-6.432 0-12.487 2.505-17.061 7.064-4.555 4.558-7.063 10.612-7.063 17.052 0 13.302 10.822 24.123 24.124 24.123zm294.203 122.244h-31.55v-28.961h31.55zm15-28.962h31.55v28.961h-31.55zm-61.55 28.962h-31.55v-28.961h31.55zm-46.55 0h-31.55v-28.961h31.55zm-46.55 0h-31.55v-28.961h31.55zm226.38-13.867c-1.301 8.035-8.156 13.867-16.3 13.867h-8.88v-28.961h27.616zm-272.93-15.095v28.961h-8.875c-8.144 0-14.999-5.832-16.299-13.865l-2.439-15.097h27.613zm123.873-165.063c44.71 0 87.803 8.416 122.537 23.544h-245.075c34.742-15.128 77.835-23.544 122.538-23.544z"/><path d="m472.529 436.416h-21.032l-174.848-109.515c-12.545-7.841-28.755-7.841-41.304.004l-87.754 54.967c-3.51 2.199-4.573 6.827-2.375 10.337 2.199 3.51 6.826 4.575 10.337 2.375l87.748-54.964c7.713-4.821 17.684-4.821 25.39-.003l154.546 96.799h-334.473l37.308-23.365c3.51-2.199 4.574-6.827 2.375-10.337s-6.826-4.575-10.337-2.375l-57.607 36.078h-21.032c-18.58 0-33.695 15.116-33.695 33.695s15.116 33.695 33.695 33.695h433.058c18.58 0 33.695-15.116 33.695-33.695s-15.115-33.696-33.695-33.696zm0 52.391h-433.058c-10.309 0-18.695-8.387-18.695-18.695s8.387-18.695 18.695-18.695h433.058c10.309 0 18.695 8.387 18.695 18.695s-8.386 18.695-18.695 18.695z"/><path d="m167.193 255.276c0-4.142-3.358-7.5-7.5-7.5s-7.5 3.358-7.5 7.5v.5c0 4.142 3.358 7.5 7.5 7.5s7.5-3.358 7.5-7.5z"/><path d="m182.137 285.183v.5c0 4.142 3.358 7.5 7.5 7.5s7.5-3.358 7.5-7.5v-.5c0-4.142-3.358-7.5-7.5-7.5s-7.5 3.358-7.5 7.5z"/><path d="m172.606 328.301c4.142 0 7.5-3.358 7.5-7.5v-.5c0-4.142-3.358-7.5-7.5-7.5s-7.5 3.358-7.5 7.5v.5c0 4.142 3.358 7.5 7.5 7.5z"/><path d="m230.601 256.278v-.501c0-4.142-3.358-7.5-7.5-7.5s-7.5 3.358-7.5 7.5v.501c0 4.142 3.358 7.5 7.5 7.5s7.5-3.358 7.5-7.5z"/><path d="m232.727 308.452c4.142 0 7.5-3.358 7.5-7.5v-.5c0-4.142-3.358-7.5-7.5-7.5s-7.5 3.358-7.5 7.5v.5c0 4.142 3.358 7.5 7.5 7.5z"/><path d="m259.921 272.459v.5c0 4.142 3.357 7.5 7.5 7.5s7.5-3.358 7.5-7.5v-.5c0-4.142-3.357-7.5-7.5-7.5s-7.5 3.358-7.5 7.5z"/><path d="m312.244 256.528v-.501c0-4.142-3.357-7.5-7.5-7.5s-7.5 3.358-7.5 7.5v.501c0 4.142 3.357 7.5 7.5 7.5s7.5-3.358 7.5-7.5z"/><path d="m353.809 273.21v-.501c0-4.142-3.357-7.5-7.5-7.5s-7.5 3.358-7.5 7.5v.501c0 4.142 3.357 7.5 7.5 7.5s7.5-3.358 7.5-7.5z"/><path d="m310.405 312.193c4.143 0 7.5-3.358 7.5-7.5v-.5c0-4.142-3.357-7.5-7.5-7.5s-7.5 3.358-7.5 7.5v.5c0 4.142 3.358 7.5 7.5 7.5z"/><path d="m335.415 334.069v.501c0 4.142 3.357 7.5 7.5 7.5s7.5-3.358 7.5-7.5v-.501c0-4.142-3.357-7.5-7.5-7.5s-7.5 3.358-7.5 7.5z"/></g></g></svg>