<svg id="Capa_1" enable-background="new 0 0 512 512" height="512" viewBox="0 0 512 512" width="512" xmlns="http://www.w3.org/2000/svg"><g><g><path d="m323.623 40.313h-209.962c-13.724 0-24.849 11.125-24.849 24.849 0 13.724 11.125 24.849 24.849 24.849h209.961v-49.698z" fill="#dff6fd"/><g><path d="m218.491 40.313h-104.83c-13.724 0-24.849 11.125-24.849 24.849 0 13.724 11.125 24.849 24.849 24.849h178.868z" fill="#05e39c"/></g><g><path d="m131 65.162c0-13.724 11.125-24.849 24.849-24.849h-42.188c-13.724 0-24.849 11.125-24.849 24.849 0 13.724 11.125 24.849 24.849 24.849h42.188c-13.724 0-24.849-11.125-24.849-24.849z" fill="#0ed290"/></g></g><g><g><g><path d="m60.172 184.047v209.961c0 13.724 11.125 24.849 24.849 24.849 13.724 0 24.849-11.125 24.849-24.849v-209.961z" fill="#dff6fd"/><path d="m80.586 394.009v-209.962h-20.414v209.961c0 13.724 11.125 24.849 24.849 24.849 3.637 0 7.083-.795 10.195-2.2-8.625-3.897-14.63-12.568-14.63-22.648z" fill="#c8effe"/><g><path d="m113.169 184.047h-56.296c-2.88 0-5.214-2.334-5.214-5.214v-15.642c0-2.88 2.334-5.214 5.214-5.214h56.296c2.88 0 5.214 2.334 5.214 5.214v15.642c0 2.88-2.334 5.214-5.214 5.214z" fill="#c8effe"/></g><g><path d="m77 178.833v-15.642c0-2.88 2.334-5.214 5.214-5.214h-25.341c-2.88 0-5.214 2.334-5.214 5.214v15.642c0 2.88 2.334 5.214 5.214 5.214h25.341c-2.88 0-5.214-2.334-5.214-5.214z" fill="#99e6fc"/></g></g></g><g><path d="m60.172 253.029v140.98c0 13.724 11.125 24.849 24.849 24.849 13.724 0 24.849-11.125 24.849-24.849v-140.98z" fill="#fe3d97"/></g><g><path d="m60.172 253.029v140.98c0 13.724 11.125 24.849 24.849 24.849 3.637 0 7.083-.795 10.195-2.2-8.625-3.898-14.63-12.569-14.63-22.649v-140.98z" fill="#e41e7f"/></g></g><g><g><path d="m483.644 480.2h-174.152c-11.518 0-20.856-9.337-20.856-20.856v-209.46c0-3.088-.914-6.107-2.627-8.677l-20.751-31.126c-2.31-3.465.174-8.106 4.338-8.106h224.475c5.759 0 10.428 4.669 10.428 10.428v246.941c.001 11.518-9.336 20.856-20.855 20.856z" fill="#dff6fd"/></g><g><path d="m483.644 480.2h-174.152c-11.518 0-20.856-9.337-20.856-20.856v-209.46c0-3.088-.914-6.107-2.627-8.677l-20.751-31.126c-2.31-3.465.174-8.106 4.338-8.106h224.475c5.759 0 10.428 4.669 10.428 10.428v246.941c.001 11.518-9.336 20.856-20.855 20.856z" fill="#dff6fd"/></g><path d="m339.262 459.344v-5.214h-19.342c-2.88 0-5.214-2.334-5.214-5.214v-138.905c0-2.88 2.334-5.214 5.214-5.214h19.343v-54.913c0-3.088-.914-6.107-2.627-8.677l-20.751-31.126c-2.31-3.465.174-8.106 4.338-8.106h-50.626c-4.164 0-6.648 4.641-4.338 8.106l20.751 31.126c1.713 2.569 2.627 5.588 2.627 8.677v209.46c0 11.518 9.337 20.856 20.856 20.856h50.626c-11.519 0-20.857-9.338-20.857-20.856z" fill="#c8effe"/><g><path d="m314.706 310.011v138.905c0 2.88 2.334 5.214 5.214 5.214h153.296c2.88 0 5.214-2.334 5.214-5.214v-138.905c0-2.88-2.334-5.214-5.214-5.214h-153.296c-2.88.001-5.214 2.335-5.214 5.214z" fill="#fac600"/></g><g><path d="m357 448.916v-138.905c0-2.88 2.334-5.214 5.214-5.214h-42.294c-2.88 0-5.214 2.334-5.214 5.214v138.905c0 2.88 2.334 5.214 5.214 5.214h42.294c-2.88 0-5.214-2.334-5.214-5.214z" fill="#e8b800"/></g><g><path d="m288.636 384.89h58.402c2.88 0 5.214-2.334 5.214-5.214v-31.911c0-2.88-2.334-5.214-5.214-5.214h-58.402z" fill="#b9acac"/></g><g><path d="m288.636 342.552h25.364v42.339h-25.364z" fill="#9e9797"/></g></g><g><path d="m247.342 318.567h-234.628c-2.88 0-5.214-2.334-5.214-5.214v-23.984c0-2.88 2.334-5.214 5.214-5.214h234.628c2.88 0 5.214 2.334 5.214 5.214v23.984c0 2.88-2.335 5.214-5.214 5.214z" fill="#fe9901"/></g><g><path d="m49.944 313.353v-23.984c0-2.88 2.334-5.214 5.214-5.214h-42.444c-2.88 0-5.214 2.334-5.214 5.214v23.984c0 2.88 2.334 5.214 5.214 5.214h42.444c-2.879 0-5.214-2.334-5.214-5.214z" fill="#fb8801"/></g><g><path d="m247.342 480.2h-234.628c-2.88 0-5.214-2.334-5.214-5.214v-23.984c0-2.88 2.334-5.214 5.214-5.214h234.628c2.88 0 5.214 2.334 5.214 5.214v23.984c0 2.88-2.335 5.214-5.214 5.214z" fill="#fe9901"/></g><g><path d="m49.944 474.986v-23.984c0-2.88 2.334-5.214 5.214-5.214h-42.444c-2.88 0-5.214 2.334-5.214 5.214v23.984c0 2.88 2.334 5.214 5.214 5.214h42.444c-2.879 0-5.214-2.334-5.214-5.214z" fill="#fb8801"/></g><g><path d="m323.623 93.31v-56.296c0-2.88 2.334-5.214 5.214-5.214h15.642c2.88 0 5.214 2.334 5.214 5.214v56.296c0 2.88-2.334 5.214-5.214 5.214h-15.642c-2.88 0-5.214-2.334-5.214-5.214z" fill="#c8effe"/></g><g><path d="m388.266 90.196-19.913 34.491c-8.85 15.329 2.213 34.491 19.913 34.491 17.701 0 28.763-19.161 19.913-34.491z" fill="#05e39c"/></g><g><path d="m389.059 128.491 10.658-18.46-11.451-19.834-19.913 34.491c-8.85 15.329 2.213 34.491 19.913 34.491 2.347 0 4.572-.345 6.654-.965-8.564-6.656-11.991-19.106-5.861-29.723z" fill="#0ed290"/></g><g><path d="m494.072 194.476h-224.475c-4.698 0-8.993 2.573-11.21 6.715s-1.974 9.143.632 13.051l20.75 31.126c.895 1.342 1.367 2.904 1.367 4.517v209.46c0 15.635 12.721 28.355 28.356 28.355h174.152c15.635 0 28.355-12.72 28.355-28.355v-246.942c.001-9.885-8.041-17.927-17.927-17.927zm-149.319 155.576v27.338h-48.617v-27.338zm152.247 109.292c0 7.364-5.991 13.355-13.355 13.355h-174.153c-7.365 0-13.356-5.991-13.356-13.355v-66.954h11.07v56.526c0 7.01 5.703 12.714 12.714 12.714h153.296c7.011 0 12.714-5.704 12.714-12.714v-83.916c0-4.142-3.357-7.5-7.5-7.5s-7.5 3.358-7.5 7.5v81.63h-148.724v-54.24h24.833c7.011 0 12.714-5.704 12.714-12.714v-31.911c0-7.01-5.703-12.714-12.714-12.714h-24.833v-22.754h57.41v105.967h-9.796c-4.143 0-7.5 3.358-7.5 7.5s3.357 7.5 7.5 7.5h17.296 5.322 14.635c4.143 0 7.5-3.358 7.5-7.5s-3.357-7.5-7.5-7.5h-12.457v-25.322h12.457c4.143 0 7.5-3.358 7.5-7.5s-3.357-7.5-7.5-7.5h-12.457v-25.322h12.457c4.143 0 7.5-3.358 7.5-7.5s-3.357-7.5-7.5-7.5h-12.457v-25.323h12.457 63.856v17.703c0 4.142 3.357 7.5 7.5 7.5s7.5-3.358 7.5-7.5v-19.988c0-7.011-5.703-12.714-12.714-12.714h-66.143-12.457v-25.322h12.457c4.143 0 7.5-3.358 7.5-7.5s-3.357-7.5-7.5-7.5h-14.635-5.322-17.295c-4.143 0-7.5 3.358-7.5 7.5s3.357 7.5 7.5 7.5h9.796v25.322h-59.696c-7.011 0-12.714 5.704-12.714 12.714v25.04h-11.07v-85.167c0-4.584-1.344-9.023-3.887-12.837l-18.381-27.572h220.204c1.614 0 2.928 1.313 2.928 2.928z"/><path d="m247.342 276.655h-129.972v-85.836c4.95-1.74 8.514-6.449 8.514-11.986v-15.642c0-7.011-5.704-12.714-12.715-12.714h-56.296c-7.011 0-12.714 5.704-12.714 12.714v15.642c0 5.537 3.563 10.245 8.513 11.986v85.836h-39.958c-7.011 0-12.714 5.704-12.714 12.714v23.984c0 7.01 5.703 12.714 12.714 12.714h6.057v112.22h-6.057c-7.011.001-12.714 5.704-12.714 12.715v23.984c0 7.01 5.703 12.714 12.714 12.714h234.628c7.011 0 12.714-5.704 12.714-12.714v-23.984c0-7.011-5.703-12.714-12.714-12.714h-6.057v-112.22h6.057c7.011 0 12.714-5.704 12.714-12.714v-23.984c0-7.011-5.703-12.715-12.714-12.715zm-188.183-111.177h51.725v11.07h-51.725zm8.513 80.051v-53.981h34.698v53.981zm34.698 15v16.126h-34.698v-16.126zm123.915 177.759h-15.285c-4.143 0-7.5 3.358-7.5 7.5s3.357 7.5 7.5 7.5h34.056v19.412h-230.056v-19.412h161c4.143 0 7.5-3.358 7.5-7.5s-3.357-7.5-7.5-7.5h-142.229v-112.22h18.901v67.941c0 17.837 14.512 32.349 32.35 32.349 17.837 0 32.349-14.512 32.349-32.349v-67.941h108.915v112.22zm-158.613-44.279v-67.941h34.698v67.941c0 9.566-7.782 17.349-17.349 17.349s-17.349-7.783-17.349-17.349zm177.384-82.942h-230.056v-19.412h230.056z"/><path d="m113.661 97.511h61.339c4.143 0 7.5-3.358 7.5-7.5s-3.357-7.5-7.5-7.5h-61.339c-9.566 0-17.349-7.783-17.349-17.349s7.782-17.349 17.349-17.349h102.547l51.692 34.698h-57.9c-4.143 0-7.5 3.358-7.5 7.5s3.357 7.5 7.5 7.5h106.851c1.74 4.949 6.449 8.513 11.986 8.513h15.642c7.011 0 12.714-5.704 12.714-12.714v-56.296c0-7.01-5.703-12.714-12.714-12.714h-15.642c-5.537 0-10.245 3.564-11.986 8.513h-203.19c-17.837 0-32.349 14.512-32.349 32.349s14.512 32.349 32.349 32.349zm217.462-58.211h11.069v51.724h-11.069zm-15 8.513v34.698h-21.31l-51.692-34.698z"/><path d="m388.266 166.678c11.024 0 20.896-5.7 26.408-15.247 5.513-9.547 5.512-20.947 0-30.494l-19.913-34.491c-1.34-2.32-3.815-3.75-6.495-3.75s-5.155 1.43-6.495 3.75l-19.913 34.491c-5.512 9.547-5.513 20.946 0 30.494 5.511 9.547 15.383 15.247 26.408 15.247zm-13.418-38.241 13.418-23.241 13.418 23.241c2.801 4.851 2.801 10.643 0 15.494s-7.816 7.747-13.418 7.747-10.617-2.896-13.418-7.747-2.801-10.643 0-15.494z"/></g></g></svg>