<svg height="512" viewBox="0 0 128 128" width="512" xmlns="http://www.w3.org/2000/svg"><g><circle cx="64" cy="24.391" fill="#ffc143" r="18.085"/><g fill="#5ee2c5"><circle cx="64" cy="113.659" r="8.035"/><circle cx="107.006" cy="39.171" r="8.035"/><circle cx="20.994" cy="39.171" r="8.035"/></g><circle cx="29.698" cy="83.804" fill="#ff4343" r="18.085"/><circle cx="98.302" cy="83.804" fill="#0396fd" r="18.085"/><g><path d="m79.959 20.89a1.751 1.751 0 0 0 1.708 1.377 1.785 1.785 0 0 0 .375-.04 1.751 1.751 0 0 0 1.337-2.083 19.7 19.7 0 0 0 -1.6-4.56 1.75 1.75 0 1 0 -3.134 1.557 16.206 16.206 0 0 1 1.314 3.749z"/><path d="m64 103.874a9.785 9.785 0 1 0 9.785 9.785 9.8 9.8 0 0 0 -9.785-9.785zm0 16.069a6.285 6.285 0 1 1 6.285-6.284 6.291 6.291 0 0 1 -6.285 6.284z"/><path d="m104.474 48.622a9.722 9.722 0 0 0 7.424-.977 9.786 9.786 0 1 0 -7.424.977zm-.611-14.894a6.238 6.238 0 0 1 3.137-.845 6.322 6.322 0 0 1 1.637.217 6.285 6.285 0 1 1 -4.769.628z"/><path d="m16.1 47.645a9.785 9.785 0 1 0 -4.557-5.945 9.728 9.728 0 0 0 4.557 5.945zm-.55-11.617a6.238 6.238 0 0 1 3.818-2.928 6.322 6.322 0 0 1 1.637-.217 6.287 6.287 0 1 1 -5.453 3.145z"/><path d="m117.461 78.671a19.767 19.767 0 0 0 -19.961-14.66v-.011a33.32 33.32 0 0 0 -16.741-29.007 19.781 19.781 0 0 0 2.454-5.656 1.751 1.751 0 0 0 -3.391-.871 16.262 16.262 0 0 1 -2.957 6c-.023.028-.046.056-.068.086a16.337 16.337 0 1 1 -3.542-23.622 1.75 1.75 0 0 0 1.986-2.883 19.815 19.815 0 0 0 -27.982 26.936 33.321 33.321 0 0 0 -16.759 29.017v.01a19.8 19.8 0 0 0 -17.979 29.712 19.842 19.842 0 0 0 20.744 9.6 1.75 1.75 0 1 0 -.629-3.443 16.315 16.315 0 1 1 12.319-10.187 1.853 1.853 0 0 0 -.117.277 16.286 16.286 0 0 1 -4.838 6.512 1.75 1.75 0 1 0 2.2 2.719 19.847 19.847 0 0 0 5.065-6.18 33.449 33.449 0 0 0 33.474-.009 19.829 19.829 0 0 0 36.716-14.34zm-53.461 15.329a29.867 29.867 0 0 1 -15.365-4.249 19.811 19.811 0 0 0 -14.625-25.275c0-.159-.014-.316-.014-.476a29.842 29.842 0 0 1 15.421-26.21 19.792 19.792 0 0 0 29.2.017 29.842 29.842 0 0 1 15.383 26.193c0 .16-.012.318-.014.477a19.783 19.783 0 0 0 -14.842 24.461c.072.272.172.531.255.8a29.862 29.862 0 0 1 -15.399 4.262zm48.448-2.032a16.336 16.336 0 1 1 1.632-12.395 16.35 16.35 0 0 1 -1.632 12.399z"/><path d="m74.653 62.25h-8.9v-8.9a1.75 1.75 0 0 0 -3.5 0v8.9h-8.9a1.75 1.75 0 0 0 0 3.5h8.9v8.9a1.75 1.75 0 1 0 3.5 0v-8.9h8.9a1.75 1.75 0 1 0 0-3.5z"/></g></g></svg>