<svg clip-rule="evenodd" fill-rule="evenodd" height="512" image-rendering="optimizeQuality" shape-rendering="geometricPrecision" text-rendering="geometricPrecision" viewBox="0 0 512 512" width="512" xmlns="http://www.w3.org/2000/svg"><g id="Layer_x0020_1"><path d="m418 308c-23-59-60-102-110-128-25-13-48-18-61-20v70c22 4 68 19 100 71 38-14 48 13 71 7zm-95 1c-24-37-58-50-76-54v11c0 7-5 12-12 12h-70c-7 0-12-5-12-12v-14h-141c-6 0-12-5-12-12v-91c0-7 6-12 12-12h141v-15c0-6 5-12 12-12h70c7 0 12 6 12 12v13c50 7 102 34 141 76 22 25 40 54 53 88 28-8 43 10 59 10s16 24 0 24c-26 0-36-20-60-8-7 4-21 8-29 8-18 0-33-12-44-12-12 0-27 12-44 12-18 0-33-12-45-12-11 0-26 12-44 12s-33-12-45-12c-10 0-26 12-44 12s-32-12-44-12c-11 0-27 12-45 12-17 0-32-12-44-12-16 0-16-24 0-24 18 0 34 12 44 12 12 0 27-12 45-12s33 12 44 12c12 0 27-12 44-12 18 0 33 12 45 12 11 0 26-12 44-12s34 12 45 12zm177 93c-18 0-34-12-44-12-12 0-27 12-45 12s-33-12-44-12c-12 0-27 12-44 12-18 0-33-12-45-12-11 0-26 12-44 12s-33-12-45-12c-10 0-26 12-44 12s-32-12-44-12c-11 0-27 12-45 12-17 0-32-12-44-12-16 0-16-24 0-24 18 0 34 12 44 12 12 0 27-12 45-12s33 12 44 12c12 0 27-12 44-12 18 0 33 12 45 12 11 0 26-12 44-12s33 12 45 12c10 0 26-12 44-12s32 12 44 12c11 0 27-12 45-12 17 0 32 12 44 12 16 0 16 24 0 24zm-347-174v-67h-129v67zm24 26h46v-120h-46zm178 4c-4 0-7-2-10-5-30-39-70-42-72-42-15-1-14-25 1-24 3 0 54 3 90 52 6 8 1 19-9 19z"/><path d="m223 254v-120h-46v120z" fill="#999"/><path d="m247 160v70c22 4 68 19 100 71 38-14 48 13 71 7-23-59-60-102-110-128-25-13-48-18-61-20zm26 51c-15-1-14-25 1-24 3 0 54 3 90 52 6 8 1 19-9 19-4 0-7-2-10-5-30-39-70-42-72-42z" fill="#48e1ff"/><path d="m153 228v-67h-129v67z" fill="#999"/></g></svg>