<svg clip-rule="evenodd" fill-rule="evenodd" height="1.707in" image-rendering="optimizeQuality" shape-rendering="geometricPrecision" text-rendering="geometricPrecision" viewBox="0 0 1707 1707" width="1.707in" xmlns="http://www.w3.org/2000/svg"><g id="Layer_x0020_1"><path d="m372 1503c-10 0-19-5-24-12l-88-115h-35c-90 0-162 73-162 162v108h116v-81c0-39 60-39 60 0v81h420v-81c0-39 60-39 60 0v81h116v-108c0-89-72-162-162-162h-35l-88 115c-11 15-35 16-47 0l-54-67-54 67c-6 7-14 12-23 12zm1018-1003c-97 0-182-54-224-139h-625c-95 193-377 183-457-19-7-20 7-41 28-41h166v-101h-166c-21 0-35-22-28-41 80-202 362-213 457-19h625c95-194 377-183 456 19 8 19-6 41-28 41h-165v101h165c22 0 36 21 28 41-38 96-129 158-232 158zm-869-199h664c13 0 24 7 28 19 56 141 245 162 331 41h-145c-17 0-30-14-30-30v-161c0-17 13-30 30-30h145c-86-122-275-101-331 41-4 11-15 19-28 19h-664c-12 0-23-8-27-19-56-141-245-163-332-41h146c16 0 30 13 30 30v161c0 16-14 30-30 30h-146c86 121 276 100 332-41 4-12 15-19 27-19zm650 770c-147 0-135 14-135-86-4-1-8-3-12-4-71 70-52 68-156-36-28-27 13-55 39-81-2-4-3-8-5-12-100 0-85 12-85-135 0-39 48-30 85-30 2-4 3-8 5-12-71-71-69-52 35-156 28-28 56 13 82 39 4-2 8-3 12-5 0-100-12-86 135-86 39 0 30 49 30 86 4 2 8 3 12 5 70-71 53-68 156 35 12 12 12 31 0 43l-39 39c1 4 3 8 4 12 100 0 86-13 86 135 0 39-49 30-86 30-1 4-3 8-4 12 70 70 69 52-36 156-11 11-31 11-42 0l-39-40c-4 2-8 4-12 5 0 37 9 86-30 86zm-75-60h45c0-96 1-58 63-93 26-15 45 14 69 38l32-32c-24-24-53-43-38-70 35-61-3-62 93-62v-45c-96 0-58-1-93-63-15-26 14-45 38-70l-32-32c-24 24-43 54-69 39-62-36-63 2-63-94h-45c0 96-1 58-63 94-26 15-45-15-70-39l-32 32c25 25 54 44 39 70-36 62 2 63-93 63v45c95 0 57 1 93 62 15 27-14 46-39 70l32 32c25-24 44-53 70-38 62 35 63-3 63 93zm22-131c-61 0-110-50-110-111s49-110 110-110 111 49 111 110-50 111-111 111zm0-161c-66 0-66 101 0 101 67 0 67-101 0-101zm319 987c-159 0-144 16-144-92-6-2-11-4-16-6-76 76-54 76-167-37-12-12-12-31 0-42l44-44c-2-5-5-11-7-16-108 0-92 15-92-144 0-16 14-30 30-30h62c2-5 5-10 7-16l-44-43c-12-12-12-31 0-43 112-112 91-113 167-37 5-2 10-4 16-6 0-108-15-92 144-92 16 0 30 13 30 30v62l15 6c77-76 55-75 167 37 12 12 12 31 0 43l-44 43c3 6 5 11 7 16 108 0 92-15 92 144 0 17-14 30-30 30h-62c-2 5-4 11-7 16 77 76 76 54-36 167-12 12-31 12-43 0l-44-44c-5 2-10 4-15 6v62c0 17-14 30-30 30zm-84-60h54c0-105-1-62 66-101 27-15 48 16 74 43l39-38c-27-27-59-48-43-74 38-67-4-67 101-67v-54c-105 0-63 1-101-66-16-27 16-48 43-75l-39-38c-26 27-47 58-74 43-67-39-66 4-66-101h-54c0 105 0 62-67 101-27 15-47-16-74-43l-38 38c27 27 58 48 43 75-39 67 4 66-102 66v54c106 0 63 0 102 67 15 26-16 47-43 74l38 38c27-27 48-58 74-43 67 39 67-4 67 101zm27-127c-75 0-137-62-137-137s62-136 137-136 136 61 136 136-61 137-136 137zm0-213c-42 0-77 34-77 76s35 77 77 77 76-35 76-77-34-76-76-76zm-971 72-75-73-23 39 61 80zm-111-130v-55c-54-34-81-75-104-124-19-39-45-108-31-166-27-46-24-144-1-214 55-163 204-174 329-106 94 51 258-13 261 121 1 73 44 104-16 194 33 95-53 219-78 246-17 19-36 35-57 48v56l39 68h33c123 0 222 100 222 222v138c0 17-13 30-30 30-277 0-555 0-832 0-17 0-30-13-30-30v-138c0-122 99-222 222-222h33zm60-27v23l91 89 92-89v-23c-60 21-124 21-183 0zm206 84-75 73 37 46 61-80zm113-393c-56-56-238 22-306-20-31-19-63-37-83-37-16 0-34 15-65 57-10 28-1 77 25 131 25 53 49 80 92 105 90 51 203 33 274-44 28-32 89-136 63-192zm-77-81c39 0 71 7 95 20 29-52-2-70-3-146-1-20-1-33-83-38-155-8-116-32-212-57-162-42-204 125-191 228 63-68 115-47 196 3 21 13 149-10 198-10z"/><path d="m1213 320c56 141 245 162 331 41h-145c-17 0-30-14-30-30v-161c0-17 13-30 30-30h145c-86-122-275-101-331 41-4 11-15 19-28 19h-664c-12 0-23-8-27-19-56-141-245-163-332-41h146c16 0 30 13 30 30v161c0 16-14 30-30 30h-146c86 121 276 100 332-41 4-12 15-19 27-19h664c13 0 24 7 28 19z" fill="#dedede"/><path d="m1204 621c-62-36-63 2-63-94h-45c0 96-1 58-63 94-26 15-45-15-70-39l-32 32c25 25 54 44 39 70-36 62 2 63-93 63v45c95 0 57 1 93 62 15 27-14 46-39 70l32 32c25-24 44-53 70-38 62 35 63-3 63 93h45c0-96 1-58 63-93 26-15 45 14 69 38l32-32c-24-24-53-43-38-70 35-61-3-62 93-62v-45c-96 0-58-1-93-63-15-26 14-45 38-70l-32-32c-24 24-43 54-69 39zm-196 148c0-61 49-110 110-110s111 49 111 110-50 111-111 111-110-50-110-111z" fill="#25738b"/><path d="m1353 1118c0 105 0 62-67 101-27 15-47-16-74-43l-38 38c27 27 58 48 43 75-39 67 4 66-102 66v54c106 0 63 0 102 67 15 26-16 47-43 74l38 38c27-27 48-58 74-43 67 39 67-4 67 101h54c0-105-1-62 66-101 27-15 48 16 74 43l39-38c-27-27-59-48-43-74 38-67-4-67 101-67v-54c-105 0-63 1-101-66-16-27 16-48 43-75l-39-38c-26 27-47 58-74 43-67-39-66 4-66-101zm27 128c75 0 136 61 136 136s-61 137-136 137-137-62-137-137 62-136 137-136z" fill="#25738b"/><g fill="#1d81ce"><path d="m835 1538c0-89-72-162-162-162h-35l-88 115c-11 15-35 16-47 0l-54-67-54 67c-6 7-14 12-23 12-10 0-19-5-24-12l-88-115h-35c-90 0-162 73-162 162v108h116v-81c0-39 60-39 60 0v81h420v-81c0-39 60-39 60 0v81h116z"/><path d="m526 1424 61-80-23-39-75 73z"/><path d="m409 1378-75-73-23 39 61 80z"/></g><path d="m358 1244 91 89 92-89v-23c-60 21-124 21-183 0z" fill="#ffc06d"/><path d="m340 1148c90 51 203 33 274-44 28-32 89-136 63-192-56-56-238 22-306-20-31-19-63-37-83-37-16 0-34 15-65 57-10 28-1 77 25 131 25 53 49 80 92 105z" fill="#ffc06d"/><path d="m402 841c21 13 149-10 198-10 39 0 71 7 95 20 29-52-2-70-3-146-1-20-1-33-83-38-155-8-116-32-212-57-162-42-204 125-191 228 63-68 115-47 196 3z" fill="#633"/></g></svg>