<svg id="Capa_1" enable-background="new 0 0 512 512" height="512" viewBox="0 0 512 512" width="512" xmlns="http://www.w3.org/2000/svg"><path d="m35.32 160.091h-14.16c-7.54 0-13.66 6.12-13.66 13.67v43.69c0 7.55 6.12 13.67 13.66 13.67h14.16 441.36 14.16c7.54 0 13.66-6.12 13.66-13.67v-43.69c0-7.55-6.12-13.67-13.66-13.67h-14.16" fill="#665e66"/><path d="m504.5 191.061v26.39c0 7.55-6.12 13.67-13.66 13.67h-469.68c-7.54 0-13.66-6.12-13.66-13.67v-26.39c0 7.55 6.12 13.67 13.66 13.67h469.68c7.54 0 13.66-6.12 13.66-13.67z" fill="#454045"/><path d="m453.854 253.716c-131.902 3.635-263.805 3.635-395.707 0-9.731-.268-18.277-6.717-21.049-16.049-8.326-28.041-8.326-56.082 0-84.123 2.771-9.332 11.317-15.781 21.049-16.049 131.902-3.635 263.805-3.635 395.707 0 9.732.268 18.277 6.717 21.049 16.049 8.326 28.041 8.326 56.082 0 84.123-2.772 9.332-11.318 15.78-21.049 16.049z" fill="#8379bf"/><path d="m480.48 209.305c-.91-9.46-2.78-18.91-5.58-28.36-2.77-9.33-11.31-15.78-21.05-16.05-131.9-3.63-263.8-3.63-395.7 0-9.74.27-18.28 6.72-21.05 16.05-2.8 9.45-4.67 18.9-5.58 28.36-1.8-18.58.06-37.17 5.58-55.76 2.77-9.34 11.31-15.78 21.05-16.05 131.9-3.64 263.8-3.64 395.7 0 9.74.27 18.28 6.71 21.05 16.05 5.52 18.589 7.38 37.179 5.58 55.76z" fill="#6253af"/><path d="m424.597 214.175h-337.194c-5.668 0-10.262 4.595-10.262 10.262 0 5.668 4.595 10.262 10.262 10.262h337.194c5.668 0 10.262-4.595 10.262-10.262 0-5.667-4.594-10.262-10.262-10.262z" fill="#a9a2d5"/><path d="m81.971 305.672c-3.447-2.297-8.104-1.367-10.4 2.08l-22.233 33.351c-2.298 3.446-1.366 8.103 2.08 10.4 1.279.853 2.724 1.261 4.153 1.261 2.423 0 4.802-1.173 6.247-3.341l22.233-33.351c2.298-3.446 1.366-8.102-2.08-10.4z"/><path d="m440.429 307.752c-2.298-3.446-6.955-4.377-10.4-2.08-3.446 2.297-4.378 6.954-2.08 10.4l22.233 33.351c1.445 2.168 3.823 3.341 6.247 3.341 1.43 0 2.875-.408 4.153-1.261 3.446-2.297 4.378-6.954 2.08-10.4z"/><path d="m149.674 304.686c-3.987-1.109-8.125 1.227-9.234 5.218l-13.518 48.636c-1.109 3.991 1.227 8.125 5.218 9.234.672.187 1.347.276 2.013.276 3.284 0 6.299-2.175 7.222-5.494l13.518-48.636c1.108-3.99-1.228-8.124-5.219-9.234z"/><path d="m371.561 309.904c-1.109-3.991-5.247-6.325-9.234-5.218-3.991 1.109-6.327 5.244-5.218 9.234l13.518 48.636c.922 3.319 3.938 5.494 7.222 5.494.665 0 1.341-.089 2.013-.276 3.991-1.109 6.327-5.244 5.218-9.234z"/><path d="m218.889 304.432c-4.127-.294-7.722 2.811-8.019 6.942l-4.698 65.311c-.297 4.131 2.811 7.722 6.942 8.019.183.013.365.02.546.02 3.897 0 7.189-3.014 7.473-6.962l4.698-65.311c.298-4.132-2.81-7.722-6.942-8.019z"/><path d="m301.129 311.374c-.296-4.131-3.88-7.24-8.019-6.942-4.131.297-7.24 3.887-6.942 8.019l4.698 65.311c.284 3.948 3.575 6.962 7.473 6.962.181 0 .363-.007.546-.02 4.131-.297 7.24-3.887 6.942-8.019z"/><path d="m390.81 247.682c-110.235 2.066-222.088 1.576-332.452-1.458-6.571-.182-12.224-4.477-14.068-10.688-7.871-26.495-7.871-53.364 0-79.86 1.844-6.21 7.497-10.505 14.064-10.688 15.612-.425 29.279-.759 41.782-1.019 4.142-.086 7.429-3.513 7.343-7.655-.085-4.088-3.426-7.344-7.496-7.344-.053 0-.106 0-.159.001-12.536.261-26.234.595-41.882 1.021-13.071.362-24.336 8.967-28.031 21.411-.117.395-.216.791-.33 1.186h-8.42c-11.668 0-21.16 9.497-21.16 21.17v43.69c0 11.673 9.492 21.17 21.16 21.17h8.42c.114.395.213.79.33 1.185 3.695 12.445 14.96 21.05 28.034 21.412 65.862 1.811 132.242 2.718 198.504 2.718 45.005 0 89.962-.418 134.643-1.256 4.142-.078 7.436-3.498 7.358-7.639s-3.513-7.441-7.64-7.357zm-369.65-24.062c-3.396 0-6.16-2.768-6.16-6.17v-43.69c0-3.402 2.764-6.17 6.16-6.17h4.84c-3.491 18.642-3.491 37.388 0 56.03z"/><path d="m490.84 152.591h-8.42c-.114-.395-.213-.79-.33-1.185-3.695-12.445-14.96-21.05-28.034-21.412-107.575-2.958-216.664-3.504-324.237-1.622-4.142.073-7.44 3.489-7.368 7.63.072 4.097 3.415 7.369 7.497 7.369.044 0 .089 0 .134-.001 107.35-1.88 216.211-1.334 323.561 1.618 6.571.182 12.224 4.477 14.068 10.688 7.871 26.495 7.871 53.364 0 79.86-1.844 6.21-7.497 10.505-14.065 10.688-11.709.32-22.466.592-32.886.829-4.141.094-7.421 3.528-7.327 7.669.093 4.083 3.432 7.329 7.495 7.329.058 0 .116 0 .174-.002 10.443-.238 21.223-.51 32.957-.831 13.072-.362 24.337-8.967 28.031-21.411.117-.395.216-.791.33-1.186h8.42c11.668 0 21.16-9.497 21.16-21.17v-43.69c0-11.674-9.492-21.17-21.16-21.17zm6.16 64.859c0 3.402-2.764 6.17-6.16 6.17h-4.84c3.491-18.642 3.491-37.388 0-56.03h4.839c3.396 0 6.16 2.768 6.16 6.17v43.69z"/></svg>