<svg clip-rule="evenodd" fill-rule="evenodd" height="512" stroke-linejoin="round" stroke-miterlimit="2" viewBox="0 0 32 32" width="512" xmlns="http://www.w3.org/2000/svg"><g transform="translate(-288)"><g id="Layer2"><g transform="matrix(.664 .533 -.619 .771 44.138 -270.665)"><path d="m443.21 69.953h11.671v2.009h-11.671z" fill="#02a9f4"/></g><g transform="matrix(.73 .586 -1.007 1.254 40.214 -326.834)"><path d="m443.21 69.953h11.671v2.009h-11.671z" fill="#000bff"/></g><path d="m295.626 19.173-.27-.216c-.215-.173-.53-.138-.703.077l-.933 1.163c-.207-.108-.468-.059-.62.131l-2.022 2.52c-.173.216-.139.53.077.703l8.523 6.839c.215.173.53.138.703-.077l2.022-2.521c.173-.215.139-.53-.077-.703l-.073-.058.927-1.155c.141-.175.144-.416.025-.593.067-.067.133-.132.198-.193.444-.42.798-.687 1.132-.725 1.9-.216 2.928-1.458 2.928-1.458l2.275-2.706.431.537c-.551 1.348-.374 2.947.601 4.163 1.43 1.783 4.038 2.069 5.821.639s2.069-4.039.639-5.822c-.946-1.18-2.409-1.704-3.807-1.509l-1.046-1.305c.089-.231.131-.477.12-.721-.02-.467-.227-.89-.57-1.177v-.001c-.183-.154-.398-.263-.63-.322.655-.787.574-1.911-.146-2.517-.042-.035-.085-.071-.127-.107-.226-.19-.491-.309-.769-.359.153-.295.228-.623.214-.948-.021-.485-.236-.924-.591-1.223-.042-.035-.085-.071-.127-.107-.32-.269-.733-.406-1.163-.385.18-.667-.028-1.408-.591-1.882 0 0-.001 0-.001-.001-.37-.31-.848-.461-1.329-.417s-.924.278-1.232.651l-.351.425-.421-.524c.569-1.315.43-2.889-.504-4.12-1.011-1.332-2.68-1.899-4.228-1.584-.169.034-.308.154-.369.316-.06.162-.032.343.074.48l2.028 2.621s-.517 1.249-.517 1.249-1.369.18-1.369.18-1.98-2.558-1.98-2.558c-.108-.139-.282-.211-.457-.19-.175.022-.325.134-.396.295-.48 1.091-.471 2.362.076 3.469-.098-.026-.188-.046-.271-.064-.566-.126-1.255.033-1.662.303-.252.167-.408.381-.465.586-.025.091-.035.23.012.408.045.168.158.429.309.751.424.9 1.199 2.384 1.141 3.643-.085 1.887-.035 4.561-.035 4.561v.006c.013.44-.155.967-.424 1.532zm-2.063 2.175-1.393 1.736s7.744 6.213 7.744 6.213l1.396-1.74-.012-.011c-.022-.012-.044-.027-.064-.043zm.943-.533.614-.765 6.967 5.59-.614.765zm17.529-.956c1.352-1.084 3.33-.867 4.415.485s.868 3.331-.485 4.416c-1.352 1.085-3.33.867-4.415-.485s-.868-3.331.485-4.416zm-9.598 4.779c.095-.097.188-.189.279-.275.652-.617 1.217-.936 1.706-.992 1.47-.167 2.276-1.107 2.276-1.107l4.6-5.473c.135-.161.209-.363.2-.565-.008-.18-.083-.344-.214-.455-.132-.111-.307-.156-.485-.133-.2.026-.387.134-.522.295-.019.022-.039.042-.06.06-.186.227-.375.456-.599.723-.177.211-.493.239-.704.061-.212-.177-.239-.493-.061-.704.603-.718.95-1.167 1.672-2.026.293-.347.301-.847-.017-1.115-.043-.036-.085-.072-.128-.107-.318-.268-.809-.174-1.101.174-.061.072-.115.137-.164.195-.169.22-.357.46-.636.792l-.34.404c-.178.211-.493.239-.705.061-.211-.177-.238-.493-.061-.704.553-.658.444-.557.976-1.196.26-.338.474-.63.903-1.141.148-.175.228-.396.218-.615-.008-.197-.091-.378-.236-.5-.042-.036-.084-.071-.127-.107-.144-.122-.337-.172-.533-.146-.218.028-.421.145-.569.32-.803.956-.471.662-1.16 1.481-.291.347-.512.45-.626.477-.257.061-.428-.033-.546-.161-.085-.092-.153-.229-.153-.404 0-.161.074-.386.198-.534 0 0 .992-1.213 1.745-2.134.288-.353.24-.873-.109-1.166l-.001-.001c-.166-.139-.38-.206-.595-.187-.215.02-.414.125-.551.291l-3.163 3.831c-.769.914-1.564 1.291-2.253 1.183-.691-.109-1.378-.719-1.872-2.028-.862-2.284-1.84-2.53-2.387-2.651-.264-.059-.578 0-.802.11-.028.013-.059.034-.087.054.046.118.125.311.206.482.477 1.012 1.3 2.698 1.235 4.115-.084 1.86-.035 4.496-.035 4.491.019.622-.214 1.392-.625 2.203zm13.935-2.385c.069-.165.044-.354-.064-.496l-1.171-1.53c-.108-.142-.284-.215-.461-.192l-1.911.248c-.177.023-.328.139-.397.304l-.74 1.779c-.069.165-.044.354.064.496l1.171 1.53c.108.142.284.215.461.192l1.911-.248c.177-.023.328-.139.397-.304zm-1.034-.117-.518 1.245s-1.338.174-1.338.174-.82-1.071-.82-1.071.518-1.246.518-1.246 1.338-.174 1.338-.174zm-3.553-4.371-1.391 1.655.308.384c.201-.264.437-.508.707-.725.301-.242.626-.434.966-.579zm-12.435-8.235c.171.321.341.693.505 1.127.176.468.37.824.587 1.07.159.18.323.294.503.323.18.028.365-.03.559-.142.259-.149.52-.391.787-.711l.114-.138-1.046-1.303c-.678.086-1.369.008-2.009-.226zm4.766-1.326c-.225.285-.493.545-.801.771-.283.208-.584.375-.897.503l.637.793 1.379-1.67zm-3.119-5.697c.905.06 1.779.495 2.365 1.267 1.056 1.392.77 3.361-.638 4.395-1.416 1.039-3.427.747-4.489-.652-.508-.67-.706-1.474-.617-2.243 0 .001 1.545 1.996 1.545 1.996.109.141.284.213.46.19l1.941-.256c.177-.023.328-.139.396-.304l.738-1.784c.069-.165.044-.355-.066-.497z"/><path d="m312.035 19.859c1.352-1.084 3.33-.867 4.415.485s.868 3.331-.485 4.416c-1.352 1.085-3.33.867-4.415-.485s-.868-3.331.485-4.416zm4.337 2.394c.069-.165.044-.354-.064-.496l-1.171-1.53c-.108-.142-.284-.215-.461-.192l-1.911.248c-.177.023-.328.139-.397.304l-.74 1.779c-.069.165-.044.354.064.496l1.171 1.53c.108.142.284.215.461.192l1.911-.248c.177-.023.328-.139.397-.304zm-4.587-4.488-1.391 1.655.308.384c.201-.264.437-.508.707-.725.301-.242.626-.434.966-.579z" fill="#ccc"/><path d="m304.116 8.204c-.225.285-.493.545-.801.771-.283.208-.584.375-.897.503l.637.793 1.379-1.67zm-3.119-5.697c.905.06 1.779.495 2.365 1.267 1.056 1.392.77 3.361-.638 4.395-1.416 1.039-3.427.747-4.489-.652-.508-.67-.706-1.474-.617-2.243 0 .001 1.545 1.996 1.545 1.996.109.141.284.213.46.19l1.941-.256c.177-.023.328-.139.396-.304l.738-1.784c.069-.165.044-.355-.066-.497z" fill="#ccc"/><path d="m302.437 24.638c.095-.097.188-.189.279-.275.652-.617 1.217-.936 1.706-.992 1.47-.167 2.276-1.107 2.276-1.107l4.6-5.473c.135-.161.209-.363.2-.565-.008-.18-.083-.344-.214-.455-.132-.111-.307-.156-.485-.133-.2.026-.387.134-.522.295-.019.022-.039.042-.06.06-.186.227-.375.456-.599.723-.177.211-.493.239-.704.061-.212-.177-.239-.493-.061-.704.603-.718.95-1.167 1.672-2.026.293-.347.301-.847-.017-1.115-.043-.036-.085-.072-.128-.107-.318-.268-.809-.174-1.101.174-.061.072-.115.137-.164.195-.169.22-.357.46-.636.792l-.34.404c-.178.211-.493.239-.705.061-.211-.177-.238-.493-.061-.704.553-.658.444-.557.976-1.196.26-.338.474-.63.903-1.141.148-.175.228-.396.218-.615-.008-.197-.091-.378-.236-.5-.042-.036-.084-.071-.127-.107-.144-.122-.337-.172-.533-.146-.218.028-.421.145-.569.32-.803.956-.471.662-1.16 1.481-.291.347-.512.45-.626.477-.257.061-.428-.033-.546-.161-.085-.092-.153-.229-.153-.404 0-.161.074-.386.198-.534 0 0 .992-1.213 1.745-2.134.288-.353.24-.873-.109-1.166l-.001-.001c-.166-.139-.38-.206-.595-.187-.215.02-.414.125-.551.291l-3.163 3.831c-.769.914-1.564 1.291-2.253 1.183-.691-.109-1.378-.719-1.872-2.028-.862-2.284-1.84-2.53-2.387-2.651-.264-.059-.578 0-.802.11-.028.013-.059.034-.087.054.046.118.125.311.206.482.477 1.012 1.3 2.698 1.235 4.115-.084 1.86-.035 4.496-.035 4.491.019.622-.214 1.392-.625 2.203z" fill="#ffc89f"/></g></g></svg>