<svg id="Capa_1" enable-background="new 0 0 512 512" height="512" viewBox="0 0 512 512" width="512" xmlns="http://www.w3.org/2000/svg"><g><g><path d="m436.926 504.5c0-13.214-8.099-32.383-13.104-42.966-2.474-5.232-6.805-9.357-12.157-11.557-33.022-13.574-90.238-21.131-135.356-21.131h-40.617c-45.119 0-102.335 7.557-135.356 21.131-5.353 2.2-9.684 6.325-12.157 11.557-5.004 10.583-13.104 29.753-13.104 42.966z" fill="#c3bec6"/><path d="m243.164 428.85c-28.53 0-64.72 7.56-85.6 21.13-3.38 2.2-6.12 6.33-7.69 11.56-3.16 10.58-8.28 29.75-8.28 42.96h-66.52c0-13.21 8.1-32.38 13.11-42.96 2.47-5.23 6.8-9.36 12.16-11.56 33.02-13.57 90.23-21.13 135.35-21.13z" fill="#b4acb7"/><circle cx="256" cy="228.715" fill="#e27d47" r="221.215"/><path d="m265.645 449.725c-3.2.14-6.42.21-9.65.21-122.17 0-221.21-99.04-221.21-221.22 0-122.17 99.04-221.21 221.21-221.21 3.23 0 6.45.07 9.65.21-117.71 5.04-211.58 102.06-211.58 221 0 118.95 93.87 215.97 211.58 221.01z" fill="#dd6938"/><circle cx="256" cy="228.715" fill="#f9f6f9" r="171.778"/><path d="m427.775 228.709c0 47.43-19.23 90.38-50.31 121.47l-30.58-30.58c25.1-25.1 37.64-58 37.64-90.89z" fill="#d82e3d"/><path d="m270.632 399.875c-4.82.41-9.7.62-14.63.62-94.87 0-171.78-76.91-171.78-171.78s76.91-171.77 171.78-171.77c4.93 0 9.81.21 14.63.62-88.02 7.42-157.15 81.21-157.15 171.15s69.13 163.74 157.15 171.16z" fill="#e2dfe2"/><path d="m282.8 308.652c-5.894 0-11.484-3.496-13.872-9.282l-79.648-193.02c-3.16-7.658.486-16.427 8.144-19.588 7.659-3.16 16.428.486 19.587 8.144l79.649 193.019c3.16 7.658-.486 16.427-8.144 19.588-1.871.773-3.809 1.139-5.716 1.139z" fill="#d82e3d"/><circle cx="256" cy="228.715" fill="#9dc6fb" r="37.342"/><path d="m265.978 264.715c-3.18.88-6.52 1.35-9.98 1.35-20.62 0-37.34-16.72-37.34-37.35 0-20.62 16.72-37.34 37.34-37.34 3.46 0 6.8.47 9.98 1.35-15.78 4.36-27.37 18.82-27.37 35.99s11.59 31.64 27.37 36z" fill="#80b4fb"/></g><g><path d="m357.341 137.98 7.749-7.75c2.929-2.929 2.929-7.678 0-10.606-2.929-2.929-7.678-2.929-10.606 0l-7.761 7.761c-23.25-20.813-52.721-32.76-83.223-34.464v-10.984c0-4.142-3.358-7.5-7.5-7.5s-7.5 3.358-7.5 7.5v10.985c-7.64.417-15.289 1.482-22.871 3.215l-1.687-4.087c-2.292-5.557-6.61-9.888-12.159-12.197-5.551-2.309-11.667-2.319-17.227-.025-11.462 4.735-16.94 17.915-12.21 29.383l1.679 4.069c-6.627 4.14-12.899 8.858-18.75 14.104l-7.76-7.76c-2.929-2.929-7.678-2.929-10.606 0-2.929 2.929-2.929 7.677 0 10.606l7.749 7.749c-20.757 23.123-32.805 52.208-34.48 83.235h-10.957c-4.142 0-7.5 3.358-7.5 7.5s3.358 7.5 7.5 7.5h10.959c1.676 31.025 13.718 60.116 34.474 83.241l-7.746 7.739c-2.93 2.928-2.932 7.677-.004 10.607 1.465 1.466 3.385 2.199 5.306 2.199 1.918 0 3.837-.732 5.301-2.195l12.91-12.9c1.407-1.406 2.198-3.314 2.199-5.304 0-1.99-.79-3.898-2.197-5.305-22.862-22.863-35.453-53.257-35.453-85.586 0-32.328 12.59-62.72 35.453-85.578 5.941-5.941 12.446-11.227 19.408-15.783l30.585 74.122c-5.8 7.558-9.258 17.002-9.258 27.243 0 22.688 16.941 41.483 38.836 44.428l12.004 29.089c3.49 8.455 11.655 13.918 20.802 13.918 2.964 0 5.856-.576 8.583-1.708 11.466-4.736 16.943-17.914 12.21-29.372l-12.01-29.112c5.8-7.558 9.259-17.002 9.259-27.243 0-22.689-16.941-41.483-38.836-44.429l-30.57-74.077c39.701-8.209 81.238 4.023 110.141 32.925 22.862 22.857 35.453 53.249 35.453 85.577s-12.591 62.723-35.454 85.586c-1.407 1.407-2.197 3.315-2.197 5.305s.792 3.898 2.199 5.304l12.91 12.9c1.464 1.463 3.383 2.195 5.301 2.195 1.92 0 3.841-.733 5.305-2.199 2.928-2.93 2.926-7.679-.004-10.607l-7.746-7.739c20.755-23.125 32.798-52.216 34.474-83.241h10.958c4.142 0 7.5-3.358 7.5-7.5s-3.358-7.5-7.5-7.5h-10.956c-1.673-31.026-13.722-60.112-34.479-83.234zm-157.061-44.287c1.852-.764 3.891-.761 5.742.009s3.291 2.215 4.055 4.069l35.994 87.223c-4.985 1.132-9.656 3.093-13.86 5.736l-35.997-87.239c-1.578-3.825.247-8.22 4.066-9.798zm85.366 206.89c-.907.376-1.864.567-2.846.567-3.05 0-5.773-1.822-6.937-4.641l-9.934-24.074c4.985-1.132 9.655-3.092 13.86-5.735l9.939 24.093c1.577 3.817-.25 8.207-4.082 9.79zm.196-71.868c0 16.455-13.387 29.842-29.842 29.842s-29.842-13.387-29.842-29.842 13.387-29.843 29.842-29.843 29.842 13.387 29.842 29.843z"/><path d="m414.513 443.044c-14.83-6.1-32.595-10.432-48.937-13.47 18.917-10.355 36.473-23.459 52.146-39.134 43.198-43.199 66.988-100.636 66.988-161.731 0-36.78-8.472-71.914-25.179-104.428-1.893-3.684-6.415-5.137-10.099-3.243-3.685 1.893-5.136 6.414-3.243 10.099 15.607 30.372 23.521 63.2 23.521 97.572 0 57.088-22.23 110.758-62.595 151.124-40.364 40.367-94.031 62.597-151.115 62.597s-110.751-22.23-151.115-62.596c-40.365-40.366-62.595-94.036-62.595-151.124 0-117.84 95.87-213.71 213.71-213.71 69.707 0 135.211 34.146 175.225 91.339 2.375 3.394 7.051 4.221 10.445 1.846 3.394-2.374 4.221-7.051 1.846-10.445-42.819-61.201-112.918-97.74-187.516-97.74-61.09 0-118.524 23.79-161.722 66.988s-66.988 100.632-66.988 161.722c0 61.094 23.79 118.531 66.988 161.731 15.675 15.675 33.232 28.781 52.15 39.136-12.601 2.351-24.164 5.126-34.164 8.218-3.958 1.224-6.173 5.423-4.95 9.381.996 3.22 3.961 5.287 7.163 5.287.734 0 1.48-.109 2.218-.337 14.801-4.576 33.337-8.437 53.708-11.201 26.843 10.824 55.781 16.506 85.597 16.506 29.813 0 58.749-5.681 85.591-16.503 27.286 3.705 51.101 9.36 67.221 15.992 3.628 1.489 6.549 4.264 8.228 7.819 5.909 12.488 9.926 23.765 11.564 32.262h-345.208c1.638-8.497 5.655-19.773 11.562-32.26.164-.345.366-.729.635-1.206 2.035-3.608.759-8.182-2.849-10.217s-8.182-.76-10.217 2.849c-.448.794-.806 1.479-1.127 2.156-6.31 13.336-13.831 32.174-13.831 46.177 0 4.142 3.358 7.5 7.5 7.5h361.86c4.142 0 7.5-3.358 7.5-7.5 0-14.004-7.521-32.841-13.829-46.173-3.277-6.943-8.993-12.371-16.087-15.283z"/><path d="m256 49.437c-98.854 0-179.278 80.424-179.278 179.278s80.424 179.277 179.278 179.277 179.278-80.424 179.278-179.278-80.424-179.277-179.278-179.277zm0 343.555c-90.583 0-164.278-73.695-164.278-164.278s73.695-164.277 164.278-164.277 164.278 73.695 164.278 164.278-73.695 164.277-164.278 164.277z"/></g></g></svg>