<svg enable-background="new 0 0 512 512" viewBox="0 0 512 512" xmlns="http://www.w3.org/2000/svg"><g id="_x32_0_Checklist"><g><path d="m367.33 113.111v352.648c0 18.873-15.3 34.173-34.173 34.173h-275.754c-18.873 0-34.173-15.3-34.173-34.173v-352.648c0-18.873 15.3-34.173 34.173-34.173h275.754c18.873 0 34.173 15.3 34.173 34.173z" fill="#aacd6e"/><path d="m341.193 139.897v299.075c0 16.006-12.976 28.982-28.982 28.982h-233.863c-16.006 0-28.982-12.976-28.982-28.982v-299.075c0-16.006 12.976-28.982 28.982-28.982h233.863c16.006.001 28.982 12.976 28.982 28.982z" fill="#ece9eb"/><path d="m286.201 75.014v35.902h-181.842v-35.902c0-14.182 11.462-25.644 25.644-25.644h21.914l5.245-18.223c3.225-11.307 13.561-19.078 25.334-19.078h25.567c11.773 0 22.109 7.771 25.333 19.078l5.246 18.223h21.914c14.182-.001 25.645 11.462 25.645 25.644z" fill="#67625e"/><path d="m208.568 44.124c0 7.343-5.945 13.288-13.289 13.288-7.343 0-13.288-5.945-13.288-13.288 0-7.344 5.945-13.289 13.288-13.289 7.344 0 13.289 5.945 13.289 13.289z" fill="#ece9eb"/><g fill="#ffbc42"><circle cx="110.731" cy="182.72" r="29.841"/><circle cx="110.731" cy="284.364" r="29.841"/><circle cx="110.731" cy="386.009" r="29.841"/></g><path d="m488.765 435.169c0 18.001-10.777 33.49-26.218 40.354v-34.615c0-5.641-4.565-10.207-10.207-10.207h-15.457c-5.658 0-10.223 4.565-10.223 10.207v34.615c-15.457-6.864-26.218-22.354-26.218-40.354 0-18.245 11.055-33.898 26.838-40.631v-100.992c-15.783-6.734-26.838-22.403-26.838-40.631 0-18 10.778-33.49 26.218-40.354v34.615c0 5.641 4.565 10.207 10.207 10.207h15.457c5.658 0 10.223-4.565 10.223-10.207v-34.616c15.457 6.864 26.218 22.354 26.218 40.354 0 18.245-11.054 33.914-26.854 40.648v100.975c15.783 6.735 26.854 22.387 26.854 40.632z" fill="#72a3db"/><path d="m57.422 505.649h275.719c22.005 0 39.905-17.9 39.905-39.905v-352.636c0-22.005-17.9-39.905-39.905-39.905h-24.089c-3.156 0-5.717 2.561-5.717 5.717s2.561 5.717 5.717 5.717h24.089c15.7 0 28.47 12.771 28.47 28.47v352.636c0 15.7-12.771 28.47-28.47 28.47h-275.719c-15.7 0-28.47-12.771-28.47-28.47v-352.635c0-15.7 12.771-28.47 28.47-28.47h24.049c3.156 0 5.717-2.561 5.717-5.717s-2.561-5.717-5.717-5.717h-24.049c-22.005 0-39.905 17.9-39.905 39.905v352.636c0 22.004 17.9 39.904 39.905 39.904z"/><path d="m81.471 105.18h-3.123c-19.128 0-34.686 15.577-34.686 34.724v299.082c0 19.128 15.558 34.686 34.686 34.686h233.867c19.128 0 34.686-15.558 34.686-34.686v-299.082c0-19.147-15.558-34.724-34.686-34.724h-3.164c-3.156 0-5.717 2.561-5.717 5.717s2.561 5.717 5.717 5.717h3.164c12.823 0 23.252 10.448 23.252 23.289v299.082c0 12.823-10.429 23.252-23.252 23.252h-233.867c-12.823 0-23.252-10.429-23.252-23.252v-299.081c0-12.841 10.429-23.289 23.252-23.289h3.123c3.156 0 5.717-2.561 5.717-5.717 0-3.157-2.561-5.718-5.717-5.718z"/><path d="m260.556 43.65h-17.609l-4.053-14.07c-3.897-13.679-16.575-23.23-30.83-23.23h-25.567c-14.256 0-26.933 9.551-30.826 23.215l-4.053 14.084h-17.613c-17.293 0-31.362 14.07-31.362 31.362v35.903c0 3.156 2.561 5.717 5.717 5.717h181.843c3.156 0 5.717-2.561 5.717-5.717v-35.901c-.002-17.293-14.071-31.363-31.364-31.363zm19.928 61.549h-170.409v-30.186c0-10.988 8.94-19.928 19.928-19.928h21.916c2.55 0 4.79-1.686 5.494-4.135l5.248-18.235c2.505-8.792 10.664-14.929 19.835-14.929h25.567c9.171 0 17.33 6.138 19.839 14.944l5.248 18.22c.703 2.449 2.944 4.135 5.494 4.135h21.912c10.988 0 19.928 8.94 19.928 19.928z"/><path d="m264.52 77.123h-138.481c-3.156 0-5.717 2.561-5.717 5.717s2.561 5.717 5.717 5.717h138.481c3.156 0 5.717-2.561 5.717-5.717s-2.561-5.717-5.717-5.717z"/><path d="m195.281 63.128c10.478 0 19.005-8.527 19.005-19.005s-8.527-19.005-19.005-19.005c-10.481 0-19.009 8.527-19.009 19.005s8.528 19.005 19.009 19.005zm0-26.576c4.176 0 7.571 3.395 7.571 7.571s-3.395 7.571-7.571 7.571-7.574-3.395-7.574-7.571 3.398-7.571 7.574-7.571z"/><path d="m75.173 182.719c0 19.608 15.949 35.557 35.557 35.557s35.561-15.949 35.561-35.557c0-6.253-1.635-12.125-4.481-17.236l12.215-15.061c1.988-2.453 1.612-6.056-.837-8.043-2.457-1.995-6.052-1.615-8.043.837l-10.648 13.129c-6.306-5.687-14.626-9.183-23.767-9.183-19.608 0-35.557 15.949-35.557 35.557zm35.557-24.123c6.415 0 12.238 2.532 16.564 6.63l-12.533 15.453-6.744-5.617c-2.423-2.017-6.026-1.697-8.051.733-2.021 2.423-1.694 6.03.733 8.051l11.192 9.328c2.447 2.041 6.092 1.683 8.099-.789l13.74-16.94c.728 2.297 1.126 4.739 1.126 7.274 0 13.303-10.824 24.123-24.127 24.123s-24.123-10.82-24.123-24.123 10.821-24.123 24.124-24.123z"/><path d="m153.188 247.052c-2.457-1.991-6.052-1.615-8.043.837l-9.238 11.39c-6.443-6.466-15.349-10.475-25.177-10.475-19.608 0-35.557 15.953-35.557 35.561s15.949 35.557 35.557 35.557 35.561-15.949 35.561-35.557c0-5.509-1.296-10.709-3.542-15.368l11.276-13.903c1.988-2.451 1.612-6.054-.837-8.042zm-18.331 37.314c0 13.303-10.824 24.123-24.127 24.123s-24.123-10.82-24.123-24.123 10.82-24.127 24.123-24.127c7.105 0 13.483 3.106 17.902 8.01l-13.875 17.107-6.741-5.617c-2.431-2.025-6.034-1.694-8.051.733-2.021 2.427-1.694 6.03.733 8.051l11.192 9.324c1.031.86 2.326 1.325 3.659 1.325.186 0 .368-.007.555-.026 1.522-.149 2.922-.901 3.886-2.088l14.341-17.681c.341 1.611.526 3.278.526 4.989z"/><path d="m153.188 351.729c-2.457-1.995-6.052-1.615-8.043.837l-7.939 9.788c-6.517-7.284-15.956-11.902-26.476-11.902-19.608 0-35.557 15.949-35.557 35.557s15.949 35.557 35.557 35.557 35.561-15.949 35.561-35.557c0-4.753-.954-9.282-2.653-13.43l10.387-12.807c1.988-2.453 1.612-6.056-.837-8.043zm-18.331 34.28c0 13.303-10.824 24.123-24.127 24.123s-24.123-10.82-24.123-24.123 10.82-24.123 24.123-24.123c7.804 0 14.734 3.74 19.147 9.504l-15.12 18.642-6.741-5.617c-2.431-2.021-6.034-1.697-8.051.733-2.021 2.427-1.694 6.03.733 8.051l11.192 9.324c1.031.86 2.326 1.325 3.659 1.325.186 0 .368-.007.555-.026 1.522-.149 2.922-.901 3.886-2.088l14.742-18.176c.082.807.125 1.624.125 2.451z"/><path d="m291.096 162.549h-104.208c-3.156 0-5.717 2.561-5.717 5.717s2.561 5.717 5.717 5.717h104.208c3.156 0 5.717-2.561 5.717-5.717s-2.561-5.717-5.717-5.717z"/><path d="m186.888 202.889h77.632c3.156 0 5.717-2.561 5.717-5.717s-2.561-5.717-5.717-5.717h-77.632c-3.156 0-5.717 2.561-5.717 5.717s2.561 5.717 5.717 5.717z"/><path d="m291.096 269.266h-104.208c-3.156 0-5.717 2.561-5.717 5.717s2.561 5.717 5.717 5.717h104.208c3.156 0 5.717-2.561 5.717-5.717s-2.561-5.717-5.717-5.717z"/><path d="m186.888 309.606h77.632c3.156 0 5.717-2.561 5.717-5.717s-2.561-5.717-5.717-5.717h-77.632c-3.156 0-5.717 2.561-5.717 5.717s2.561 5.717 5.717 5.717z"/><path d="m296.813 381.695c0-3.156-2.561-5.717-5.717-5.717h-104.208c-3.156 0-5.717 2.561-5.717 5.717s2.561 5.717 5.717 5.717h104.208c3.156.001 5.717-2.56 5.717-5.717z"/><path d="m186.888 404.888c-3.156 0-5.717 2.561-5.717 5.717s2.561 5.717 5.717 5.717h77.632c3.156 0 5.717-2.561 5.717-5.717s-2.561-5.717-5.717-5.717z"/><path d="m467.628 390.919v-93.737c16.433-8.539 26.855-25.522 26.855-44.267 0-19.701-11.624-37.593-29.617-45.581-1.768-.782-3.815-.622-5.434.432-1.623 1.057-2.602 2.859-2.602 4.794v34.616c0 2.475-2.021 4.489-4.507 4.489h-15.454c-2.475 0-4.489-2.014-4.489-4.489v-34.616c0-1.935-.979-3.741-2.602-4.794-1.619-1.05-3.663-1.21-5.438-.432-17.989 7.995-29.613 25.887-29.613 45.581 0 18.733 10.414 35.706 26.836 44.248v93.756c-16.422 8.542-26.836 25.519-26.836 44.252 0 19.697 11.624 37.59 29.617 45.577.741.328 1.53.491 2.319.491 1.091 0 2.174-.313 3.115-.923 1.623-1.057 2.602-2.859 2.602-4.794v-34.616c0-2.475 2.021-4.489 4.504-4.489h15.458c2.475 0 4.489 2.014 4.489 4.489v34.616c0 1.935.979 3.741 2.602 4.794 1.623 1.057 3.677 1.213 5.438.432 17.989-7.999 29.613-25.887 29.613-45.577-.001-18.733-10.423-35.706-26.856-44.252zm.636 74.554v-24.566c0-8.78-7.143-15.923-15.923-15.923h-15.458c-8.788 0-15.938 7.143-15.938 15.923v24.57c-9.19-7.18-14.784-18.305-14.784-30.305 0-15.436 9.171-29.319 23.364-35.375 2.107-.901 3.473-2.97 3.473-5.259v-100.993c0-2.289-1.366-4.359-3.473-5.259-14.192-6.056-23.364-19.939-23.364-35.371 0-11.996 5.594-23.122 14.784-30.305v24.566c0 8.78 7.143 15.923 15.923 15.923h15.454c8.792 0 15.942-7.143 15.942-15.923v-24.57c9.19 7.18 14.784 18.309 14.784 30.309 0 15.447-9.175 29.338-23.379 35.39-2.107.897-3.476 2.967-3.476 5.259v100.973c0 2.289 1.366 4.359 3.473 5.259 14.204 6.06 23.382 19.943 23.382 35.375 0 11.993-5.594 23.118-14.784 30.302z"/></g></g><g id="Layer_1"/></svg>