<svg clip-rule="evenodd" fill-rule="evenodd" height="512" image-rendering="optimizeQuality" shape-rendering="geometricPrecision" text-rendering="geometricPrecision" viewBox="0 0 173.397 173.397" width="512" xmlns="http://www.w3.org/2000/svg"><g id="Layer_x0020_1"><circle cx="86.699" cy="86.699" fill="#777878" r="84.667"/><g id="_467128424"><path id="_467131448" d="m110.236 97.6725h5.1374l.0001-11.4098c-.0001-.0039-.0001-.0078-.0001-.0117s0-.0078.0001-.0117c0-.0005 0-.0009 0-.0014.007-.6529.5389-1.1805 1.1935-1.1805h1.1937l-.0001-3.2799c0-.6615-.5321-1.1938-1.1934-1.1938h-7.525c-.659 0-1.1936.5323-1.1936 1.1937v7.1468 2.3873 6.361 1.1936c0 .6546.5278 1.1865 1.1805 1.1936h.0131.0132c.6529-.0071 1.1806-.539 1.1806-1.1936z" fill="#80deea"/><g><path id="_467131592" d="m127.67 100.06h-29.7313c-.6588 0-1.1937-.5346-1.1937-1.1936.0003-.6614.5347-1.1936 1.1937-1.1936h29.7313c.6589 0 1.1935.5322 1.1935 1.1936 0 .659-.5347 1.1937-1.1935 1.1936z"/><path id="_467130296" d="m101.514 100.06c-.6588 0-1.1936-.5346-1.1936-1.1936l.0001-8.7483c0-.659.5346-1.1936 1.1935-1.1936h7.5274c.6591 0 1.1935.5346 1.1935 1.1936.0002.659-.5346 1.1937-1.1936 1.1937h-6.3336v7.5546c0 .659-.5347 1.1937-1.1937 1.1936z"/><path id="_467130176" d="m116.567 100.06c-.6592 0-1.1938-.5346-1.1938-1.1936v-15.8951h-5.1374v15.8951c0 .659-.5348 1.1937-1.1938 1.1937-.6587-.0001-1.1936-.5347-1.1936-1.1937v-17.0887c0-.6614.5346-1.1936 1.1936-1.1936h7.525c.6613 0 1.1934.5322 1.1934 1.1936l.0002 17.0887c0 .659-.5324 1.1937-1.1936 1.1936z"/><path id="_467130224" d="m124.094 100.06c-.6591 0-1.1938-.5346-1.1938-1.1936l.0001-11.4214h-6.3336c-.6592 0-1.1938-.5322-1.1938-1.1937 0-.6589.5346-1.1936 1.1936-1.1936h7.5275c.6588 0 1.1934.5347 1.1934 1.1936v12.6151c0 .659-.5346 1.1937-1.1934 1.1936z"/><path id="_467130416" d="m135.841 116.89h-24.6485c-.6588 0-1.1937-.5346-1.1937-1.1936s.5346-1.1936 1.1936-1.1936h23.4548v-80.0873h-60.6362v12.4809c0 .659-.5346 1.1937-1.1936 1.1937-.6589-.0001-1.1937-.5347-1.1937-1.1937l.0002-13.6744c0-.6615.5345-1.1937 1.1935-1.1937h63.0236c.6588 0 1.1934.5322 1.1934 1.1937v82.4744c0 .659-.5347 1.1937-1.1934 1.1936z"/><path id="_467130080" d="m109.131 44.6109h-9.6037c-.6588 0-1.1937-.5346-1.1937-1.1935.0002-.659.5347-1.1937 1.1936-1.1937h9.6038c.6591 0 1.1935.5347 1.1935 1.1937.0002.6588-.5346 1.1936-1.1935 1.1935z"/><path id="_467130536" d="m114.443 51.6235h-20.2269c-.6591 0-1.1938-.5346-1.1938-1.1936.0001-.659.5346-1.1937 1.1936-1.1937h20.2271c.6588 0 1.1935.5347 1.1935 1.1937.0002.659-.5347 1.1936-1.1935 1.1936z"/><path id="_467130512" d="m127.217 62.2691h-26.0956c-.6588 0-1.1937-.5347-1.1937-1.1936s.5346-1.1936 1.1936-1.1936l26.0957-.0001c.6591 0 1.1936.5348 1.1936 1.1937.0002.6589-.5347 1.1937-1.1936 1.1936z"/><path id="_467130200" d="m127.217 68.5009h-26.0956c-.6588 0-1.1937-.5347-1.1937-1.1937s.5346-1.1936 1.1936-1.1936l26.0957-.0001c.6591 0 1.1936.5347 1.1936 1.1937.0002.6589-.5347 1.1937-1.1936 1.1937z"/><path id="_467130128" d="m127.217 74.7325h-26.0956c-.6588 0-1.1937-.5346-1.1937-1.1935 0-.659.5346-1.1937 1.1936-1.1937h26.0957c.6591 0 1.1936.5347 1.1936 1.1937.0002.6589-.5347 1.1935-1.1936 1.1935z"/><path id="_467130440" d="m111.347 141.369h-73.7685c-.6588 0-1.1937-.5346-1.1937-1.1936l.0002-20.8437c-.2562-5.9507 1.6858-10.2851 5.9381-13.2492 3.6556-2.549 8.5792-3.7773 13.3437-4.966 3.1857-.7957 6.4804-1.6164 9.2779-2.815.6068-.2611 1.308.02 1.5667.6267s-.0199 1.308-.6267 1.5667c-2.9741 1.2731-6.3635 2.1211-9.641 2.9392-4.5529 1.1364-9.2605 2.3102-12.5555 4.6079-3.5832 2.4966-5.1449 6.0576-4.9161 11.2101.0001.0175 0 .0349 0 .0522l.0001 19.6775h71.381v-19.6775c0-.0173 0-.0347 0-.0522.2288-5.1525-1.3353-8.7135-4.9162-11.2101-3.2949-2.2977-8.0022-3.4715-12.5554-4.6079-3.2773-.8181-6.667-1.6661-9.641-2.9392-.6067-.2587-.8878-.96-.6266-1.5667.2586-.6067.9597-.8878 1.5666-.6267 2.7977 1.1986 6.0924 2.0193 9.2779 2.815 4.7623 1.1887 9.6882 2.4171 13.3438 4.966 4.2523 2.9641 6.1944 7.2985 5.9382 13.2492l-.0023 20.8437c0 .659-.5324 1.1936-1.1912 1.1936z"/><path id="_467129720" d="m57.2386 69.411c-.9847 0-1.818 1.1637-1.818 2.5414l.0001 4.2473c0 1.3776.8329 2.5439 1.8177 2.5439h2.2455c.6219 0 1.1389.4775 1.1887 1.0966.8132 10.0514 7.5123 14.5498 13.7888 14.5498 6.2792 0 12.9757-4.4984 13.7913-14.5498.05-.6191.567-1.0966 1.1887-1.0966h2.2457c.9848 0 1.8176-1.1662 1.8176-2.5439v-4.2473c0-1.3777-.8331-2.5414-1.8178-2.5414h-2.2453c-.3282 0-.6442-.1368-.868-.3755-.2262-.2413-.3433-.5621-.3233-.8928.035-.5521-.2264-1.1016-.771-1.6362-1.0866-1.0619-2.8298-1.6064-3.8916-1.5144-8.5169.721-12.3739-.3631-15.8703-2.8448-1.6959 3.1929-4.4064 5.707-7.7585 7.1642-.1491.0646-.3134.0995-.475.0995zm17.2229 27.3663c-3.9737 0-7.7537-1.5045-10.6433-4.2398-2.9666-2.8076-4.8267-6.7341-5.411-11.4067h-1.1686c-2.3203 0-4.2052-2.2131-4.2052-4.9311l.0002-4.2473c0-2.718 1.8847-4.9287 4.2048-4.9287h1.992c3.1456-1.4349 5.6049-3.9738 6.9354-7.1766.1442-.3457.445-.6043.8081-.6988.3656-.092.751-.0075 1.0444.2287 3.4467 2.7827 6.6246 3.9763 15.3679 3.2352 1.8825-.1566 4.3021.761 5.7618 2.1884.6913.6739 1.1488 1.4273 1.3602 2.2231h1.1789c2.3175 0 4.2048 2.2108 4.2048 4.9287l.0002 4.2473c0 2.718-1.8876 4.9311-4.2052 4.9311h-1.1686c-.5844 4.6726-2.4446 8.5991-5.4113 11.4067-2.8893 2.7353-6.6694 4.2398-10.6455 4.2398z"/><path id="_467129648" d="m55.5947 70.0202c-.4549 0-.8927-.2636-1.0892-.7087-2.3473-5.2719-1.9595-11.5408.9424-15.251 1.7932-2.2903 4.3244-3.3596 7.1767-3.0537 7.224-7.3209 17.0838-6.5848 23.7631-2.5265 3.4665 2.1062 6.1944 5.1624 7.6814 8.604 1.6588 3.832 1.7657 8.0122.3084 12.088-.2212.6216-.9027.9449-1.5243.7236-.6217-.2213-.945-.9052-.7237-1.5244 2.9469-8.2535-1.9197-14.7735-6.9802-17.8496-5.9879-3.6381-14.8681-4.2548-21.2117 2.5663-.2758.2958-.6838.4327-1.0842.3631-2.8274-.5024-4.5656.8554-5.5255 2.0813-2.3797 3.0412-2.6459 8.3081-.6415 12.8066.2663.6042-.005 1.308-.6068 1.5766-.1564.0696-.3208.1044-.4849.1044z"/><path id="_467129456" d="m65.4148 100.592c-.6589 0-1.1937-.5346-1.1937-1.1936l.0002-7.0499c0-.6589.5344-1.1936 1.1935-1.1936.659 0 1.1936.5347 1.1936 1.1936v7.0499c0 .6589-.5347 1.1936-1.1936 1.1936zm18.0959 0c-.6591 0-1.1938-.5346-1.1938-1.1936l.0001-7.0499c0-.6589.5346-1.1936 1.1936-1.1936s1.1936.5347 1.1936 1.1936l.0002 7.0499c0 .6589-.5348 1.1936-1.1937 1.1936z"/><path id="_467130008" d="m74.4615 141.369c-.4253 0-.8182-.2263-1.0321-.5943-4.7695-8.2012-7.96-15.8429-9.4868-22.7088-1.5442-6.9603-1.4324-13.3586.3333-19.0233.1966-.6292.8653-.9798 1.4944-.7833.6294.1964.9798.8653.7834 1.4945-3.1655 10.1557-.5048 22.9375 7.9077 38.0094 8.4151-15.0719 11.0759-27.8536 7.9103-38.0094-.1963-.6292.1541-1.2981.7832-1.4945.6294-.1965 1.2981.1541 1.4946.7833 1.7657 5.6647 1.8775 12.063.3307 19.0233-1.5243 6.8684-4.7173 14.5076-9.4868 22.7088-.2136.368-.6068.5943-1.0319.5943z"/><path id="_467129912" d="m68.1776 114.351c-.2462 0-.4925-.0746-.7038-.2287l-4.098-2.9866c-.5323-.3879-.6492-1.134-.2613-1.6661.3881-.5347 1.1365-.6515 1.6686-.2636l3.3397 2.4345 4.5432-3.8371-8.0667-7.5321c-.4826-.4502-.5075-1.2061-.0574-1.6885.4501-.48 1.2061-.5074 1.686-.0572l9.0493 8.4498c.2487.2337.3878.562.3779.9027-.0075.3406-.1617.6614-.4228.8828l-6.2837 5.3091c-.2238.1865-.4976.281-.771.281z"/><path id="_467129624" d="m76.5952 117.308h-4.2646c-.5198 0-.9776-.3357-1.1368-.8305l-1.6261-5.0904c-.2014-.6291.1466-1.3005.7732-1.502.6292-.1989 1.3006.1468 1.5019.7759l1.3606 4.2598h2.5189l1.3602-4.2598c.2014-.6291.8728-.9772 1.5019-.7759.6267.2015.9723.8729.7733 1.502l-1.6262 5.0904c-.1592.4948-.6193.8305-1.1363.8305z"/><path id="_467129336" d="m68.8291 130.276c-.1018 0-.2065-.0149-.311-.0422-.6365-.1716-1.0145-.8281-.8405-1.4647l3.5015-12.9657c.1714-.6367.8254-1.0122 1.462-.8406.6367.1716 1.0146.8256.843 1.4622l-3.5037 12.9682c-.1416.5322-.6242.8828-1.1513.8828z"/><path id="_467129768" d="m80.0815 130.306c-.5271 0-1.0097-.3506-1.1515-.8827l-3.4886-12.9981c-.1717-.639.2062-1.293.8428-1.4622.6366-.174 1.2906.2065 1.4621.8431l3.4891 12.998c.1715.6365-.2066 1.2906-.8432 1.4622-.1043.0273-.2089.0397-.3107.0397z"/><path id="_467129864" d="m80.7479 114.351c-.2734 0-.5472-.0945-.771-.281l-6.2836-5.3091c-.2613-.2214-.4156-.5422-.423-.8828-.0098-.3407.1293-.669.3779-.9026l9.0467-8.45c.4826-.4501 1.2384-.4227 1.6885.0573.4503.4824.4227 1.2383-.0572 1.6885l-8.0668 7.5321 4.5433 3.8371 3.3397-2.4345c.5321-.3879 1.278-.2711 1.6684.2636.3881.5321.271 1.2782-.2636 1.6661l-4.0955 2.9866c-.2115.1541-.4577.2287-.7038.2287z"/></g><path id="_467129744" d="m68.0183 59.377c3.4467 2.7827 6.6246 3.9763 15.3679 3.2352 1.8825-.1566 4.302.761 5.7618 2.1884.6913.6739 1.1488 1.4274 1.3602 2.2231h1.179c.2853 0 .5641.0335.8336.0973 2.0581-7.6598-2.5693-13.6801-7.3715-16.5991-5.9879-3.6382-14.8681-4.2548-21.2116 2.5663-.276.2958-.684.4327-1.0842.363-2.8275-.5023-4.5658.8555-5.5256 2.0814-2.176 2.7809-2.5848 7.4229-1.1063 11.6366.3256-.0951.6663-.1455 1.0168-.1455h1.992c3.1456-1.4349 5.6049-3.9738 6.9353-7.1766.1443-.3457.4451-.6043.8082-.6988.3656-.092.751-.0075 1.0444.2287z" fill="#bac2c6"/><path id="_467128928" d="m83.5877 64.9921c-8.517.7211-12.3739-.3631-15.8702-2.8448-1.696 3.1929-4.4065 5.7069-7.7586 7.1642-.1491.0646-.3134.0995-.475.0995h-2.2453c-.3059 0-.5971.1122-.8532.3082-.0254.0225-.0517.0439-.0792.0643-.526.4511-.8856 1.2638-.8856 2.1689l.0001 4.2473c0 1.3776.833 2.544 1.8177 2.544h2.2455c.6219 0 1.1389.4773 1.1887 1.0965.4312 5.3295 2.5171 9.0978 5.3174 11.4622.1272.0701.2402.1628.3338.2726 2.4172 1.9085 5.32 2.815 8.1376 2.815 2.8202 0 5.7246-.9074 8.1426-2.8178.0922-.1077.2032-.1987.328-.268 2.8014-2.3642 4.8881-6.1331 5.3207-11.464.05-.6192.567-1.0965 1.1887-1.0965h2.2458c.9847 0 1.8175-1.1663 1.8175-2.544v-4.2473c0-.9066-.3607-1.7206-.8881-2.1712-.0592-.0373-.1144-.0794-.1652-.1255-.2339-.1565-.4934-.2447-.7645-.2447h-2.2454c-.3281 0-.6441-.1368-.868-.3755-.226-.2413-.3432-.562-.3232-.8928.035-.5521-.2263-1.1016-.771-1.6362-1.0866-1.0618-2.8298-1.6064-3.8916-1.5144z" fill="#ffe0b2"/><path id="_467128976" d="m63.657 101.351c-2.3825.8262-4.93 1.4632-7.4133 2.083-4.553 1.1364-9.2605 2.3102-12.5555 4.608-3.5832 2.4965-5.145 6.0575-4.9161 11.21.0001.0175 0 .0349 0 .0522l.0001 19.6775h33.6348c-1.7922-3.2062-3.3371-6.3225-4.6295-9.3359-.0338-.0628-.062-.1286-.0841-.1967-1.6977-3.9861-2.9519-7.7909-3.7508-11.3833-.5903-2.6607-.9386-5.2392-1.045-7.726-.0115-.0805-.0148-.1623-.0097-.2438-.1118-3.0611.1446-5.982.7691-8.745z" fill="#a5d6a7"/><path id="_467128736" d="m86.027 110.343c-.107 2.4859-.4558 5.0633-1.0468 7.7228-.7988 3.5992-2.0557 7.41-3.7577 11.4024-.0241.0771-.0559.1513-.0948.2216-1.2889 2.9997-2.828 6.1012-4.6117 9.2919h33.6372v-19.6775-.0522c.0529-1.19.0101-2.2952-.1311-3.322-.0085-.0427-.0147-.0862-.0186-.1304-.4916-3.3532-2.0478-5.8622-4.7665-7.7576-3.2949-2.2978-8.0022-3.4716-12.5554-4.608-2.4831-.6198-5.0307-1.2569-7.4132-2.083.6241 2.7616.8805 5.681.7686 8.7405.0056.0841.0022.1685-.01.2515z" fill="#a5d6a7"/><path id="_467129216" d="m78.8172 129.003-3.1389-11.6949h-2.4327l-3.1516 11.665c1.224 2.8363 2.68 5.7674 4.3674 8.7906 1.6821-3.0126 3.1342-5.9338 4.3558-8.7607z" fill="#e57373"/><path id="_467129144" d="m73.2034 114.92h2.5189l1.1178-3.5-2.3774-2.009-2.3774 2.009z" fill="#e57373"/><path id="_467128760" d="m69.957 110.091 2.709-2.2881-6.6216-6.1828c-.5882 2.5009-.8444 5.1505-.7694 7.944l2.8477 2.076 1.7915-1.513c.0139-.0124.0282-.0244.0428-.0361z" fill="#95c196"/><path id="_467129288" d="m76.2595 107.803 2.7265 2.3027c.002.0017.004.0035.006.0052l1.8107 1.5293 2.8477-2.0758c.075-2.7937-.1812-5.4432-.7694-7.9442z" fill="#95c196"/><path id="_467128712" d="m74.4627 106.215 7.8542-7.3362.0001-4.2378c-2.3605 1.3927-5.0595 2.1365-7.8555 2.1365-2.7943 0-5.4927-.7438-7.8531-2.1365l.0001 4.24z" fill="#e6caa0"/><path id="_467127920" d="m79.977 114.07-1.1626-.9823-.9769 3.0577 2.4619 9.1712c1.6595-4.4711 2.7061-8.689 3.1373-12.6419l-1.985 1.4475c-.2115.1541-.4577.2287-.7038.2287-.2734 0-.5472-.0944-.7709-.2809z" fill="#eceff1"/><path id="_467127824" d="m71.0872 116.143-.9761-3.0557-1.1625.9823c-.2238.1865-.4976.2809-.771.2809-.2462 0-.4925-.0746-.7039-.2287l-1.985-1.4467c.4304 3.9457 1.4738 8.1554 3.1276 12.6175z" fill="#eceff1"/><path id="_467128472" d="m106.602 106.083c3.004 2.0939 4.8551 4.8716 5.5928 8.42h22.4525v-80.0873h-60.6362v11.1114c4.4414-.4045 8.8517.812 12.3764 2.9535 3.4665 2.1063 6.1944 5.1625 7.6814 8.6041 1.5582 3.5997 1.747 7.5068.5561 11.3458.7811.8954 1.2668 2.1436 1.2668 3.5223l.0002 4.2473c0 2.718-1.8877 4.9311-4.2053 4.9311h-1.1686c-.5843 4.6726-2.4446 8.5992-5.4113 11.4067-.1324.1253-.2667.2481-.4028.3682l.0003 5.6936c2.6331 1.0403 5.6393 1.7892 8.554 2.5173 4.7623 1.1887 9.6882 2.4171 13.3437 4.966zm9.9648-6.0229h-7.5121c-.0044 0-.0088 0-.0132 0s-.0087 0-.0131 0h-7.5139-3.5762c-.6588 0-1.1936-.5346-1.1936-1.1936.0002-.6614.5346-1.1936 1.1936-1.1936h2.3823l.0002-7.5547c0-.659.5345-1.1936 1.1934-1.1936h6.3337v-7.1468c0-.6614.5346-1.1937 1.1936-1.1937h7.525c.6613 0 1.1934.5323 1.1934 1.1938l.0001 3.2799h6.3338c.6588 0 1.1935.5346 1.1935 1.1936v11.4215h2.3823c.6589 0 1.1935.5322 1.1935 1.1936 0 .659-.5346 1.1936-1.1935 1.1936h-3.5755zm10.6502-25.3272h-26.0956c-.6589 0-1.1937-.5346-1.1937-1.1935 0-.659.5346-1.1937 1.1936-1.1937h26.0957c.6591 0 1.1935.5347 1.1935 1.1937.0003.6589-.5346 1.1935-1.1935 1.1935zm0-6.2316h-26.0956c-.6589 0-1.1937-.5347-1.1937-1.1937s.5346-1.1936 1.1936-1.1936l26.0957-.0001c.6591 0 1.1935.5347 1.1935 1.1937.0003.6589-.5346 1.1937-1.1935 1.1937zm0-6.2318h-26.0956c-.6589 0-1.1937-.5346-1.1937-1.1936s.5346-1.1936 1.1936-1.1936l26.0957-.0001c.6591 0 1.1935.5347 1.1935 1.1937.0003.659-.5346 1.1937-1.1935 1.1936zm-12.7742-10.6456h-20.2269c-.6591 0-1.1938-.5346-1.1938-1.1936.0002-.659.5346-1.1937 1.1936-1.1937h20.2271c.6588 0 1.1935.5347 1.1935 1.1937.0002.659-.5347 1.1936-1.1935 1.1936zm-5.3117-7.0126h-9.6037c-.6589 0-1.1937-.5346-1.1937-1.1935.0002-.6591.5346-1.1937 1.1936-1.1937h9.6038c.6592 0 1.1935.5346 1.1935 1.1937.0002.6588-.5346 1.1936-1.1935 1.1935z" fill="#ffcc80"/><g fill="#80deea"><path id="_467128448" d="m102.708 97.6725h5.14v-6.361h-5.14z"/><path id="_467128232" d="m117.76 87.4447v10.2278h5.14v-10.2278z"/></g></g></g></svg>