<svg id="filled_outline" height="512" viewBox="0 0 512 512" width="512" xmlns="http://www.w3.org/2000/svg" data-name="filled outline"><path d="m184 64h304v424h-304z" fill="#b1792c"/><path d="m216 104h240v352h-240z" fill="#f6bb00"/><path d="m368 56v24l48 32v24h-160v-24l48-32v-24a32 32 0 0 1 32-32 32 32 0 0 1 32 32z" fill="#548aff"/><path d="m104 488h280v-24l-64-32h-216z" fill="#548aff"/><path d="m320 432v-16a136 136 0 0 0 -136-136h-80v152z" fill="#517ef7"/><path d="m272 432v-16a88 88 0 0 0 -88-88h-80v104z" fill="#486be0"/><path d="m216 432-32-40h-80v40z" fill="#517ef7"/><path d="m136 208v-48l-16-24h-16v40l-24 16-24-16v-40h-16l-16 24v48l32 24v144l-32 32v48l32 32h48l32-32v-48l-32-32v-144zm-32 232-16 16h-16l-16-16v-16l16-16h16l16 16z" fill="#f6bb00"/><path d="m93.65674 402.34277a8.00035 8.00035 0 0 0 -5.65674-2.34277h-16a8.00035 8.00035 0 0 0 -5.65674 2.34277l-16 16a8.00076 8.00076 0 0 0 -2.34326 5.65723v16a8.00076 8.00076 0 0 0 2.34326 5.65723l16 16a8.00035 8.00035 0 0 0 5.65674 2.34277h16a8.00035 8.00035 0 0 0 5.65674-2.34277l16-16a8.00076 8.00076 0 0 0 2.34326-5.65723v-16a8.00076 8.00076 0 0 0 -2.34326-5.65723zm2.34326 34.34375-11.31348 11.31348h-9.373l-11.31352-11.31348v-9.373l11.31348-11.31352h9.373l11.31352 11.31348z"/><path d="m488 56h-112a40 40 0 0 0 -80 0h-112a8.00008 8.00008 0 0 0 -8 8v208h-64v-36l28.7998-21.59961a8.0009 8.0009 0 0 0 3.2002-6.40039v-48a7.99836 7.99836 0 0 0 -1.34375-4.4375l-16-24a7.99943 7.99943 0 0 0 -6.65625-3.5625h-16a8.00008 8.00008 0 0 0 -8 8v35.71875l-16 10.666-16-10.666v-35.71875a8.00008 8.00008 0 0 0 -8-8h-16a7.99943 7.99943 0 0 0 -6.65625 3.5625l-16 24a7.99836 7.99836 0 0 0 -1.34375 4.4375v48a8.0009 8.0009 0 0 0 3.2002 6.40039l28.7998 21.59961v136.68652l-29.65674 29.65625a8.00076 8.00076 0 0 0 -2.34326 5.65723v48a8.00076 8.00076 0 0 0 2.34326 5.65723l32 32a8.00035 8.00035 0 0 0 5.65674 2.34277h432a8.00008 8.00008 0 0 0 8-8v-424a8.00008 8.00008 0 0 0 -8-8zm-179.5625 30.65625a7.99943 7.99943 0 0 0 3.5625-6.65625v-24a24 24 0 0 1 48 0v24a7.99943 7.99943 0 0 0 3.5625 6.65625l44.4375 29.625v11.71875h-144v-11.71875zm61.45068 361.34375-41.88818-20.94409v-11.05591a143.27561 143.27561 0 0 0 -30.25171-88.19751 7.99893 7.99893 0 0 0 6.25171-7.80249v-44.686l13.65674-13.65673-11.31348-11.31446-13.65726 13.65719h-44.686a8.00008 8.00008 0 0 0 -8 8v11.335a142.939 142.939 0 0 0 -16-5.67725v-165.65775h24v24a8.00008 8.00008 0 0 0 8 8h160a8.00008 8.00008 0 0 0 8-8v-24h24v336zm-92.23144-146.34277 10.34326-10.34323v20.686h-4.502a144.86275 144.86275 0 0 0 -27.498-20.66943v-11.33057h20.686l-10.34278 10.34277zm18.34326-229.65723v3.71875l-30.42188 20.28125h-49.57812a8.00008 8.00008 0 0 0 -8 8v170.011a143.82507 143.82507 0 0 0 -16-1.78492v-200.22608zm-112 216a128.14509 128.14509 0 0 1 128 128v8h-32v-8a96.10874 96.10874 0 0 0 -96-96h-72v-32zm-42.34326 114.34277-2.34284-2.34277h40.84089l19.19982 24h-55.35461v-16a8.00076 8.00076 0 0 0 -2.34326-5.65723zm78.18878 21.65723-29.59845-36.998a8.00055 8.00055 0 0 0 -6.24707-3.002h-60.68634l-11.31366-11.31348v-36.68652h72a80.09041 80.09041 0 0 1 80 80v8zm-119.15952 56h-41.372l-27.314-27.31348v-41.373l29.65674-29.65625a8.00076 8.00076 0 0 0 2.34326-5.65727v-144a8.0009 8.0009 0 0 0 -3.2002-6.40039l-28.7998-21.59961v-41.57812l12.28125-18.42188h3.71875v32a7.99946 7.99946 0 0 0 3.56248 6.65625l24 16a8.00131 8.00131 0 0 0 8.875 0l24-16a7.9994 7.9994 0 0 0 3.56252-6.65625v-32h3.71875l12.28125 18.42188v41.57812l-28.7998 21.59961a8.0009 8.0009 0 0 0 -3.2002 6.40039v144a8.00076 8.00076 0 0 0 2.34326 5.65723l29.65674 29.65625v41.373zm275.314 0h-252.686l18.34278-18.34277a8.00076 8.00076 0 0 0 2.34322-5.65723v-16h174.11133l57.88867 28.94434zm104 0h-88v-16h64a8.00008 8.00008 0 0 0 8-8v-352a8.00008 8.00008 0 0 0 -8-8h-49.57812l-30.42188-20.28125v-3.71875h104z"/><circle cx="336" cy="56" r="8"/><path d="m376 184h56v16h-56z"/><path d="m336 184h24v16h-24z"/><path d="m400 216h32v16h-32z"/><path d="m320 216h64v16h-64z"/><path d="m376 272h56v16h-56z"/><path d="m336 272h24v16h-24z"/><path d="m400 304h32v16h-32z"/><path d="m336 304h48v16h-48z"/><path d="m376 360h56v16h-56z"/><path d="m344 360h16v16h-16z"/><path d="m400 392h32v16h-32z"/><path d="m344 392h40v16h-40z"/><path d="m292.686 168h-44.686a8.00008 8.00008 0 0 0 -8 8v48a8.00008 8.00008 0 0 0 8 8h48a8.00008 8.00008 0 0 0 8-8v-44.686l13.65674-13.65673-11.31348-11.31446zm-4.686 48h-32v-32h20.686l-10.34278 10.34277 11.31348 11.31446 10.3433-10.34323z"/></svg>