<svg fill='#fff' id="Layer_1" enable-background="new 0 0 384.656 315.754" height="512" viewBox="0 0 384.656 315.754" width="512" xmlns="http://www.w3.org/2000/svg"><g><path d="m82.502 5h273v177h-247.52v5h252.52v-187h-283v38.199h5z"/><path d="m123.5 33.246h30.883v5.371h-30.883z"/><path d="m286.307 18.811h30.883v5.371h-30.883z"/><path d="m286.307 149.056h55.884v5.371h-55.884z"/><path d="m286.307 161.813h55.884v5.371h-55.884z"/><path d="m139.184 41.791-1.828.813 9.214 20.735h17.212v-2h-15.911z"/><path d="m273.886 42.974h20.374l8.684-14.587-1.719-1.024-8.101 13.611h-19.238z"/><path d="m143.455 230.668c0 11.176 8.15 20.444 18.83 22.197h7.34c10.681-1.753 18.83-11.022 18.83-22.197 0-12.428-10.072-22.5-22.5-22.5-12.426 0-22.5 10.072-22.5 22.5z"/><path d="m227.955 230.668c0 11.176 8.15 20.444 18.83 22.197h7.34c10.681-1.753 18.83-11.022 18.83-22.197 0-12.428-10.072-22.5-22.5-22.5-12.426 0-22.5 10.072-22.5 22.5z"/><path d="m362.848 261.02c-3.416-1.725-6.421-2.113-8.224-2.137-.117-.004-.232-.018-.352-.018h-38.635c-.134 0-.264.014-.396.021-1.807.025-4.791.42-8.183 2.133-5.007 2.479-10.372 7.707-14.363 16.75-1.139-2.559-2.369-4.811-3.669-6.797-3.285-4.984-7.127-8.182-10.679-9.953-3.416-1.725-6.421-2.113-8.224-2.137-.117-.004-.232-.018-.352-.018h-38.635c-.134 0-.264.014-.396.021-1.807.025-4.791.42-8.183 2.133-5.007 2.479-10.372 7.707-14.363 16.75-1.139-2.559-2.369-4.811-3.669-6.797-3.285-4.984-7.127-8.182-10.679-9.953-3.416-1.725-6.421-2.113-8.224-2.137-.117-.004-.232-.018-.352-.018h-38.635c-.135 0-.266.014-.397.021-1.807.025-4.79.422-8.182 2.133-5.381 2.664-11.179 8.5-15.237 18.84-3.324 8.399-5.763 19.833-6.579 35.895h16.015c.933-16.783 3.813-26.959 6.652-32.77v32.77h54.092v-32.722c.593 1.215 1.191 2.609 1.781 4.236 2.199 6.096 4.12 15.259 4.855 28.488h17.119c.933-16.784 3.813-26.961 6.652-32.771v32.771h54.092v-32.727c.593 1.217 1.191 2.611 1.781 4.238 2.199 6.096 4.12 15.259 4.855 28.488h17.119c.933-16.784 3.813-26.961 6.652-32.771v32.771h54.092v-32.727c.593 1.217 1.191 2.611 1.781 4.238 2.199 6.096 4.12 15.259 4.855 28.488h16.018c-1.155-22.671-5.497-36.175-11.129-44.781-3.28-4.982-7.122-8.18-10.674-9.951z"/><circle cx="334.955" cy="230.668" r="22.5"/><path d="m160.176 90.379c-1.497-4.158-6.078-6.313-10.237-4.817-21.955 7.904-60.683 10.802-66.373 11.192h-38.577c-.109 0-.215.012-.323.016-5.169.057-20.237 2.875-26.968 32.475-.462 2.03-.886 4.179-1.263 6.468 0 .003 0 .005-.001.007-1.346 8.171-2.138 18.039-2.138 30.076 0 5.851.187 12.22.596 19.154.249 4.252 3.777 7.531 7.982 7.531.157 0 .315-.005.475-.014 4.409-.261 7.775-4.048 7.515-8.457-.393-6.646-.567-12.703-.567-18.215 0-11.318.748-20.335 1.918-27.446.002-.013.006-.024.008-.037.354-2.149.749-4.117 1.171-5.936 1.136-4.894 2.485-8.637 3.867-11.471v22.978l-3.992 3.695c-.132 1.43-.245 2.903-.343 4.407l6.544-6.056 23.998 25.932-35.229 32.602-10.182-11.002c-1.986-1.07-3.578-2.78-4.5-4.863l-9.316-10.066 7.912-7.322c-.026-1.369-.039-2.714-.046-4.045l-12.107 11.206 28.073 30.334 1.102-1.02 8.085-7.483v70.672c0 6.83 5.537 12.363 12.363 12.363 6.828 0 12.365-5.533 12.365-12.363v-90.272h4.635v90.272c0 6.83 5.537 12.363 12.363 12.363 6.828 0 12.365-5.533 12.365-12.363v-98-18.94-41.734c14.005-1.204 44.296-4.489 64.006-11.584 4.159-1.496 6.315-6.08 4.819-10.237zm-86.37 67.058-9.037 11.415-6.404-6.92-3.559-4.495 5.471-40.321c1.297.486 2.662.74 4.027.739h.002.006c1.363 0 2.725-.254 4.021-.74zm-13.301-52.5h3.801 3.799l1.9 7.5-.289.456c-1.566 1.305-3.484 1.96-5.412 1.962-1.929-.002-3.844-.655-5.409-1.959l-.291-.459z"/><circle cx="64.306" cy="68.555" r="22.5"/><path d="m169.292 82.875v16.4h9.134c.46 2.57 1.123 5.068 1.988 7.472l-7.899 4.56 8.2 14.203 7.913-4.568c1.667 1.969 3.494 3.797 5.464 5.464l-4.568 7.913 14.203 8.2 4.56-7.899c2.404.865 4.902 1.528 7.472 1.988v9.134h16.4v-9.134c2.57-.46 5.068-1.123 7.472-1.988l4.56 7.899 14.203-8.2-4.568-7.913c1.97-1.667 3.797-3.494 5.464-5.464l7.913 4.568 8.2-14.203-7.898-4.56c.865-2.404 1.528-4.902 1.988-7.472h9.134v-16.4h-9.134c-.46-2.57-1.123-5.068-1.988-7.472l7.898-4.56-8.2-14.203-7.913 4.568c-1.667-1.97-3.494-3.797-5.464-5.464l4.568-7.913-14.203-8.2-4.56 7.898c-2.404-.865-4.902-1.528-7.472-1.988v-9.134h-16.4v9.134c-2.57.46-5.068 1.123-7.472 1.988l-4.56-7.898-14.203 8.2 4.568 7.913c-1.97 1.667-3.797 3.494-5.464 5.464l-7.913-4.568-8.2 14.203 7.899 4.56c-.865 2.404-1.528 4.902-1.988 7.472zm28.7 8.2c0-14.341 11.626-25.967 25.967-25.967s25.967 11.626 25.967 25.967-11.626 25.967-25.967 25.967-25.967-11.626-25.967-25.967z"/><circle cx="223.959" cy="91.075" r="13.911"/></g></svg>