<svg fill='#fff' id="uuid-03724537-3693-4d2d-9dcc-06c7a9d4ff2f" height="512" viewBox="0 0 64 64" width="512" xmlns="http://www.w3.org/2000/svg"><path d="m61.5 60h-59c-1.381 0-2.5 1.119-2.5 2.5v.5c0 .552.448 1 1 1h62c.552 0 1-.448 1-1v-.5c0-1.381-1.119-2.5-2.5-2.5z"/><path d="m21.5 28h3v4h-3z"/><path d="m21.5 38h3v4h-3z"/><path d="m30.5 38h3v4h-3z"/><path d="m33 48h4v10h-4z"/><path d="m27 48h4v10h-4z"/><path d="m30.5 28h3v4h-3z"/><path d="m39.5 38h3v4h-3z"/><path d="m39.5 28h3v4h-3z"/><path d="m54 40h3v4h-3z"/><path d="m54 50h3v4h-3z"/><path d="m54 30h3v4h-3z"/><path d="m61.5 27.656c0-2.018-1.201-3.826-3.06-4.608l-8.94-3.765v38.717h12zm-2.5 27.344c0 .553-.448 1-1 1h-5c-.552 0-1-.447-1-1v-6c0-.553.448-1 1-1h5c.552 0 1 .447 1 1zm0-10c0 .553-.448 1-1 1h-5c-.552 0-1-.447-1-1v-6c0-.553.448-1 1-1h5c.552 0 1 .447 1 1zm0-10c0 .553-.448 1-1 1h-5c-.552 0-1-.447-1-1v-6c0-.553.448-1 1-1h5c.552 0 1 .447 1 1z"/><path d="m7 40h3v4h-3z"/><path d="m7 50h3v4h-3z"/><path d="m7 30h3v4h-3z"/><path d="m14.5 19.283-8.94 3.765c-1.858.782-3.06 2.591-3.06 4.608v30.344h12zm-2.5 35.717c0 .553-.448 1-1 1h-5c-.552 0-1-.447-1-1v-6c0-.553.448-1 1-1h5c.552 0 1 .447 1 1zm0-10c0 .553-.448 1-1 1h-5c-.552 0-1-.447-1-1v-6c0-.553.448-1 1-1h5c.552 0 1 .447 1 1zm0-10c0 .553-.448 1-1 1h-5c-.552 0-1-.447-1-1v-6c0-.553.448-1 1-1h5c.552 0 1 .447 1 1z"/><path d="m32 22c6.075 0 11-4.925 11-11s-4.925-11-11-11-11 4.925-11 11 4.925 11 11 11zm-8-13c0-.553.448-1 1-1h4v-4c0-.553.448-1 1-1h4c.552 0 1 .447 1 1v4h4c.552 0 1 .447 1 1v4c0 .553-.448 1-1 1h-4v4c0 .553-.448 1-1 1h-4c-.552 0-1-.447-1-1v-4h-4c-.552 0-1-.447-1-1z"/><path d="m31 13v4h2v-4c0-.553.448-1 1-1h4v-2h-4c-.552 0-1-.447-1-1v-4h-2v4c0 .553-.448 1-1 1h-4v2h4c.552 0 1 .447 1 1z"/><path d="m25 47c0-.552.448-1 1-1h12c.552 0 1 .448 1 1v11h8.5v-46.909c0-1.886-1.31-3.457-3.067-3.879.366 1.199.567 2.471.567 3.789 0 7.168-5.832 13-13 13s-13-5.832-13-13c0-1.318.2-2.589.567-3.789-1.757.422-3.067 1.993-3.067 3.879v46.909h8.5zm12.5-20c0-.553.448-1 1-1h5c.552 0 1 .447 1 1v6c0 .553-.448 1-1 1h-5c-.552 0-1-.447-1-1zm0 10c0-.553.448-1 1-1h5c.552 0 1 .447 1 1v6c0 .553-.448 1-1 1h-5c-.552 0-1-.447-1-1zm-9-10c0-.553.448-1 1-1h5c.552 0 1 .447 1 1v6c0 .553-.448 1-1 1h-5c-.552 0-1-.447-1-1zm0 10c0-.553.448-1 1-1h5c.552 0 1 .447 1 1v6c0 .553-.448 1-1 1h-5c-.552 0-1-.447-1-1zm-9-10c0-.553.448-1 1-1h5c.552 0 1 .447 1 1v6c0 .553-.448 1-1 1h-5c-.552 0-1-.447-1-1zm0 16v-6c0-.553.448-1 1-1h5c.552 0 1 .447 1 1v6c0 .553-.448 1-1 1h-5c-.552 0-1-.447-1-1z"/></svg>