<svg fill='#fff' id="Layer_1" enable-background="new 0 0 66 66" viewBox="0 0 66 66" xmlns="http://www.w3.org/2000/svg"><g><path d="m4.2 35.5-2.1 28.5c0 .3.1.5.3.7s.4.3.7.3h15.4c.3 0 .5-.1.7-.3s.3-.5.3-.7l-2-28.5z"/><path d="m17 29h-12.4l-.3 4.6h13z"/><path d="m16.2 17.4c0-.5-.5-.9-1-.9h-8.8c-.5 0-.9.4-1 .9l-.7 9.7h12.1z"/><path d="m7.3 14c.5 0 1-.4 1-1 0-1.9 1.5-4.3 3.1-4.4h.2l6.6-1.4c2.7-.2 4.8-2.5 4.8-5.2 0-.5-.4-1-1-1-.5 0-1 .4-1 1 0 1.8-1.4 3.2-3.1 3.3 0 0-.1 0-.2 0l-6.6 1.4c-2.6.2-4.8 3.5-4.8 6.3 0 .6.5 1 1 1z"/><path d="m12 15.4c0 .5.4 1 1 1 .5 0 1-.4 1-1 0-1.8 1.4-3.2 3.1-3.3l6.6-.3c2.8-.1 5-2.4 5-5.2 0-.5-.4-1-1-1-.5 0-1 .4-1 1 0 1.8-1.4 3.2-3.1 3.3l-6.6.3c-2.8.2-5 2.5-5 5.2z"/><path d="m63.6 28.1s-.1-.1-.1-.1c-.3-.3-.8-.3-1.2 0l-13.8 9.6v-8.8c0-.4-.2-.7-.5-.8-.3-.2-.7-.1-1 .1l-13.8 9.6v-8.8c0-.4-.2-.7-.5-.9s-.7-.1-1 .1l-12.2 8.8 1.9 27.1c0 .4 0 .8-.2 1.2h41.6c.5 0 1-.4 1-1v-35.5c.1-.2 0-.5-.2-.6zm-29.1 26.2c0 .5-.4 1-1 1h-8.5c-.5 0-1-.4-1-1v-6.6c0-.5.4-1 1-1h8.5c.5 0 1 .4 1 1zm12.7 0c0 .5-.4 1-1 1h-8.5c-.5 0-1-.4-1-1v-6.6c0-.5.4-1 1-1h8.5c.5 0 1 .4 1 1zm12.7 0c0 .5-.4 1-1 1h-8.5c-.5 0-1-.4-1-1v-6.6c0-.5.4-1 1-1h8.5c.5 0 1 .4 1 1z"/></g></svg>