<svg fill='#fff' height="512" viewBox="0 0 512 512" width="512" xmlns="http://www.w3.org/2000/svg"><g id="_10_Blood_Test" data-name="10 Blood Test"><g id="Glyph"><path d="m168 176c-31.4 0-56-26.613-56-60.586 0-32.712 32.647-71.5 56-94.627 23.3 23.075 56 61.889 56 94.627 0 33.973-24.6 60.586-56 60.586z"/><path d="m257.812 387.859 9.9-12.57-103.524-81.518-9.9 12.571 33.143 26.1c-14.283 39.782-15.138 80.839-3 115.56h52.51c-13.227-21.993-16.512-51.767-8.811-83.508z"/><path d="m227.897 265.764h31.095v65.803h-31.095z" transform="matrix(.619 -.786 .786 .619 -141.814 305.128)"/><path d="m481.52 464.039c55.709-98.339 33.642-223.627-54.11-297.039l26.162-33.224a32.04 32.04 0 0 0 -3.948-43.776l19.276-24.468 14.155 11.146 9.9-12.57-80-63-9.9 12.571 14.145 11.148-19.269 24.473a32.037 32.037 0 0 0 -43.47 6.43l-26.779 34.005 52.647 41.465-9.9 12.57-52.646-41.465-12.41 15.761 50.956 40.134-9.9 12.57-50.955-40.134-11.37 14.44 52.224 41.124-9.9 12.57-52.225-41.124-50.9 64.64-15.445-12.161-9.9 12.57 130 102.369 9.9-12.57-15.444-12.162 56.018-71.138c31.912 70.149 14.093 162.476-46.158 234.806h-236.274a32.036 32.036 0 0 0 -32 32v16h448v-16a32.038 32.038 0 0 0 -30.48-31.961zm-92.074-248.831 28.066-35.641c57.175 47.967 84.5 118.7 77.972 188.433h-31.484v16h29.385q-1.356 8.031-3.32 16h-42.065v16h37.465q-2.659 8.069-5.986 16h-47.479v16h40.029q-4.177 8.113-9.089 16h-110.223c54.883-72.113 77.473-169.38 36.729-248.792z"/><path d="m477.347 315.106a202.913 202.913 0 0 0 -51.4-105.431l-11.75 10.86a186.956 186.956 0 0 1 47.353 97.141z"/><path d="m416 400h16v16h-16z"/><path d="m176.953 204.274-13.486-8.608c-40.841 63.978-147.467 39.318-147.467-43.826 0-48.14 61.315-110.867 80.008-128.867 4.466 4.289 11.357 11.122 19.245 19.694l11.773-10.834a397.686 397.686 0 0 0 -31.026-30.585c-38.434 34.813-96 98.624-96 150.592 0 57.282 44.208 96.06 96.689 96.06 31.892 0 61.911-14.865 80.264-43.626z"/><path d="m48 160h16v16h-16z"/></g></g></svg>