<svg fill='#fff' height="512" viewBox="0 0 512 512" width="512" xmlns="http://www.w3.org/2000/svg"><path d="m347.484 328h-23.003l11.521 32.186z"/><path d="m400 144.621c-2.069.418-8.375.879-11.811.188l-4.891-.816a12 12 0 1 1 -20.713-3.413 183.523 183.523 0 0 0 -53.17 0 12.006 12.006 0 1 1 -20.713 3.413l-4.891.816a32.557 32.557 0 0 1 -11.811-.192v31.383a64 64 0 0 0 128 0zm-71.066 55.379h-16.934v-16h16.934a99.062 99.062 0 0 0 28.747-4.216l4.638 15.313a115.032 115.032 0 0 1 -33.385 4.903z"/><path d="m393.07 338.826 4.775-57.302-16.798-6.834-14.948 47.934.299.109-.256.706z"/><path d="m291.117 275.216-16.816 8.069 4.629 55.541 26.928-15.387-.272-.748.303-.108z"/><path d="m368 262.781v-13.5a79.6 79.6 0 0 1 -64 0v13.5l15.348 49.219h33.3z"/><path d="m281.18 129.026 21.94-3.656a199.584 199.584 0 0 1 65.76 0l21.94 3.656a16.277 16.277 0 0 0 18.905-17.026h-147.45a16.277 16.277 0 0 0 18.905 17.026z"/><path d="m296 72a8 8 0 0 1 8-8h64a8 8 0 0 1 8 8v24h32v-24a40 40 0 0 0 -40-40h-64a40 40 0 0 0 -40 40v24h32z"/><path d="m312 80h48v16h-48z"/><path d="m432 152a16.015 16.015 0 0 0 -15.9-16c-.032.031-.066.06-.1.092v31.908a16.035 16.035 0 0 0 16-16z"/><path d="m240 464a8 8 0 0 1 -5.657-2.343l-13.656-13.657h-28.687v8a24.027 24.027 0 0 0 24 24h23.165l57.935-12.225-17.933-3.775z"/><path d="m222.357 392h-30.357v40h32a8 8 0 0 1 5.657 2.343l13.656 13.657s37.793.058 38.335.171l151.185 31.829h23.167a24.027 24.027 0 0 0 24-24v-24.592l-200.613-15.431c-.875-.068-57.03-23.977-57.03-23.977z"/><path d="m445.646 290-32.071-4.564-5.6 67.232a8 8 0 0 1 -11.942 6.281l-35.385-20.221-16.648 46.657v18.3l46.066-3.559 18.986-8.126h-49.052v-16h64v-24h16v26.732s6.913-2.732 8-2.732h32v-46.4a40.292 40.292 0 0 0 -34.354-39.6z"/><path d="m408.062 409.827 71.938 5.534v-23.361h-30.353z"/><path d="m148.352 328.8a8 8 0 0 1 -4.352-7.12v-131.36a8 8 0 0 1 4.358-7.123 79.86 79.86 0 0 0 42.823-82.583l-41.546 41.225a27.555 27.555 0 0 1 -19.395 7.921 27.079 27.079 0 0 1 -19.257-8.023l-28.72-28.72a27.082 27.082 0 0 1 -8.023-19.257 27.522 27.522 0 0 1 7.881-19.354l41.266-41.588a80.914 80.914 0 0 0 -21.316-.235c-37.533 4.71-67.614 36.657-69.925 74.307a80.208 80.208 0 0 0 43.5 76.309 8 8 0 0 1 4.354 7.121v131.36a8 8 0 0 1 -4.358 7.123 79.86 79.86 0 0 0 -42.823 82.583l41.546-41.225a27.555 27.555 0 0 1 19.4-7.921 27.079 27.079 0 0 1 19.257 8.023l28.72 28.72a27.082 27.082 0 0 1 8.023 19.257 27.522 27.522 0 0 1 -7.881 19.354l-41.266 41.588a79.108 79.108 0 0 0 75.382-31.582v-95.475a81 81 0 0 0 -27.648-23.325zm-28.352-.8h-16v-144h16z"/><path d="m256 168v-31.914l-.08-.082a16 16 0 0 0 .08 32z"/><path d="m192 376h32a8 8 0 0 1 3.151.647l4.849 2.078v-26.725h16v33.582l33.935 14.543 46.065 3.543v-18.284l-16.646-46.659-35.385 20.221c-1.228.7-6.527.748-7.694.134a8 8 0 0 1 -4.248-6.415l-5.373-64.474-35.067 7.473a40.314 40.314 0 0 0 -31.587 39.136zm104-8h16v16h-16z"/></svg>