<svg fill='#fff' id="Layer_1" enable-background="new 0 0 512 512" height="512" viewBox="0 0 512 512" width="512" xmlns="http://www.w3.org/2000/svg"><path clip-rule="evenodd" d="m82.613 12.5c-29.414 65.291-99.603 163.241-48.481 225.282 15.496 18.806 36.723 26.679 57.021 23.626-2.94-27.171 3.724-55.711 13.519-82.392 7.944-21.638 18.028-42.565 28.495-63.107-15.438-38.706-38.327-76.268-50.554-103.409zm-71.562 352.349c-2.733-2.733-2.733-7.165 0-9.898s7.165-2.733 9.898 0l47.636 47.636c7.546 7.546 17.479 11.318 27.415 11.318s19.869-3.773 27.414-11.318l15.273-15.273c10.28-10.28 23.798-15.42 37.313-15.42 13.514 0 27.033 5.14 37.313 15.42l15.272 15.272c7.546 7.546 17.479 11.318 27.415 11.318s19.869-3.773 27.414-11.318l15.273-15.273c10.28-10.28 23.799-15.42 37.313-15.42 13.515 0 27.033 5.14 37.313 15.42l15.272 15.272c7.546 7.546 17.479 11.318 27.415 11.318s19.869-3.773 27.414-11.318l47.637-47.637c2.733-2.733 7.165-2.733 9.898 0s2.733 7.165 0 9.898l-47.636 47.636c-10.28 10.28-23.799 15.42-37.313 15.42s-27.033-5.14-37.312-15.42l-15.273-15.273c-7.545-7.545-17.478-11.318-27.415-11.318s-19.87 3.773-27.415 11.318l-15.272 15.272c-10.28 10.28-23.798 15.42-37.313 15.42-13.514 0-27.033-5.14-37.312-15.42l-15.273-15.273c-7.545-7.545-17.479-11.318-27.415-11.318-9.937 0-19.87 3.773-27.415 11.318l-15.272 15.272c-10.28 10.28-23.798 15.42-37.313 15.42-13.514 0-27.033-5.14-37.312-15.42zm0 71.595 47.636 47.636c10.28 10.28 23.798 15.42 37.313 15.42 13.514 0 27.033-5.14 37.313-15.42l15.272-15.272c7.545-7.545 17.478-11.318 27.415-11.318 9.936 0 19.869 3.773 27.415 11.318l15.272 15.272c10.279 10.28 23.798 15.42 37.313 15.42 13.514 0 27.033-5.14 37.313-15.42l15.272-15.272c7.545-7.545 17.479-11.318 27.415-11.318 9.937 0 19.87 3.773 27.415 11.318l15.272 15.272c10.28 10.28 23.799 15.42 37.313 15.42 13.515 0 27.033-5.14 37.313-15.42l47.636-47.636c2.733-2.733 2.733-7.165 0-9.898s-7.165-2.733-9.898 0l-47.636 47.636c-7.545 7.545-17.478 11.318-27.415 11.318s-19.87-3.773-27.415-11.318l-15.272-15.272c-10.28-10.28-23.798-15.42-37.313-15.42-13.514 0-27.033 5.14-37.313 15.42l-15.272 15.272c-7.545 7.545-17.479 11.318-27.415 11.318-9.937 0-19.87-3.773-27.415-11.318l-15.272-15.272c-10.28-10.28-23.798-15.42-37.313-15.42s-27.033 5.14-37.313 15.42l-15.272 15.272c-7.545 7.545-17.478 11.318-27.415 11.318s-19.87-3.773-27.415-11.318l-47.636-47.636c-2.733-2.733-7.165-2.733-9.898 0s-2.733 7.165 0 9.898zm374.061-186.294-24.596-24.597c12.945-17.172 20.623-38.538 20.623-61.699 0-56.664-45.934-102.598-102.598-102.598-56.663 0-102.598 45.934-102.598 102.598 0 56.663 45.935 102.598 102.598 102.598 23.162 0 44.529-7.677 61.7-20.623l24.596 24.596c-2.906 5.031-2.214 11.612 2.077 15.904l71.196 71.196c5.118 5.118 13.491 5.117 18.609 0l15.493-15.493c5.118-5.118 5.118-13.492 0-18.609l-71.196-71.196c-4.292-4.292-10.873-4.984-15.904-2.077zm-157.449-95.887c-1.721-3.443-.326-7.63 3.117-9.352 3.443-1.721 7.63-.326 9.352 3.117l14.62 29.241 58.789-42.972c3.111-2.28 7.482-1.607 9.762 1.504s1.607 7.482-1.504 9.762l-65.457 47.847c-3.458 2.531-8.436 1.34-10.363-2.516zm50.877-75.609c47.053 0 85.199 38.147 85.199 85.199s-38.147 85.199-85.199 85.199-85.199-38.147-85.199-85.199 38.147-85.199 85.199-85.199zm0 14.001c39.323 0 71.199 31.876 71.199 71.199s-31.876 71.199-71.199 71.199-71.199-31.876-71.199-71.199 31.876-71.199 71.199-71.199zm-100.886-33.964c3.789 8.409 8.514 17.736 13.719 27.737-18.305 20.592-29.43 47.709-29.43 77.425 0 53.405 35.914 98.427 84.905 112.235-3.101 10.754-8.233 20.913-15.905 30.224-29.308 35.569-77.268 35.568-106.576 0-56.193-68.193 20.956-175.855 53.287-247.621zm-36.135 169.305c.71-3.79 4.358-6.288 8.148-5.578s6.288 4.358 5.578 8.148c-1.566 8.29-2.243 16.666-1.225 24.442.965 7.372 3.475 14.265 8.26 20.072 3.4 4.126 8.036 7.928 13.499 8.652 3.82.498 6.514 4 6.016 7.82-.498 3.821-4 6.514-7.82 6.016-9.12-1.209-16.729-6.664-22.468-13.629-6.601-8.012-10.036-17.305-11.322-27.127-1.234-9.417-.474-19.248 1.334-28.816zm-92.401-61.581c.71-3.79 4.358-6.288 8.148-5.578s6.288 4.358 5.578 8.148c-1.414 7.484-2.026 15.04-1.109 22.039.864 6.597 3.106 12.76 7.376 17.943 2.985 3.623 7.075 7.01 11.877 7.647 3.821.498 6.514 4 6.016 7.82s-4 6.514-7.82 6.016c-8.46-1.121-15.521-6.161-20.846-12.623-6.088-7.388-9.254-15.951-10.439-24.998-1.132-8.643-.436-17.651 1.219-26.414z" fill-rule="evenodd"/></svg>