<svg id="Layer_1" enable-background="new 0 0 512 512" viewBox="0 0 512 512" xmlns="http://www.w3.org/2000/svg"><g><path d="m263.643 138.489c-20.111 6.51-39.025 17.752-54.998 33.725-26.626 26.626-40.105 61.42-40.437 96.316h.001c-.532.008-1.065.012-1.599.012-56.871 0-102.974-46.103-102.974-102.974s102.974-154.461 102.974-154.461 75.107 71.18 97.033 127.385z" fill="#00a4e6"/><path d="m92.87 499.747-16.482-16.482c-3.163-3.163-3.163-8.291 0-11.454l96.171-96.171 27.936 27.936-96.171 96.171c-3.162 3.163-8.29 3.163-11.454 0z" fill="#89500d"/><path d="m180.741 355.886h39.508v39.508h-39.508z" fill="#c7721a" transform="matrix(.707 .707 -.707 .707 324.341 -31.749)"/><path d="m263.643 138.489c-20.111 6.51-39.025 17.752-54.998 33.725-26.626 26.626-40.105 61.42-40.437 96.316h.001c-.532.008-1.065.012-1.599.012v-257.435s75.105 71.178 97.033 127.382z" fill="#0089d1"/><circle cx="306.283" cy="269.871" fill="#e4f3fd" r="100.848"/><path d="m234.964 341.171c18.251 18.255 43.466 29.547 71.319 29.547 55.697 0 100.848-45.151 100.848-100.848 0-27.848-11.288-53.06-29.538-71.31z" fill="#d4ecfc"/><g><path d="m403.921 367.491c53.924-53.924 53.924-141.352 0-195.277-53.924-53.924-141.352-53.924-195.277 0-53.924 53.924-53.924 141.352 0 195.276 53.925 53.925 141.353 53.925 195.277.001zm-168.935-168.936c39.376-39.376 103.218-39.376 142.594 0s39.376 103.218 0 142.594-103.218 39.376-142.594 0-39.376-103.217 0-142.594z" fill="#7dccf3"/></g><path d="m208.645 367.491c53.924 53.924 141.352 53.924 195.276 0s53.924-141.352 0-195.277l-26.341 26.341c39.376 39.376 39.376 103.218 0 142.594s-103.218 39.376-142.594 0z" fill="#21bbee"/></g><g><path d="m149.923 221.149c-21.15-7.502-37.387-24.869-43.435-46.455-1.191-4.254-5.605-6.738-9.861-5.545-4.255 1.192-6.737 5.607-5.545 9.862 7.448 26.588 27.413 48.07 53.491 57.217 1.471.516 8.047.853 10.215-4.865 1.566-4.132-.701-8.737-4.865-10.214z"/><path d="m409.578 165.627c-27.592-27.591-64.275-42.786-103.296-42.786-13.034 0-25.805 1.704-38.066 4.991-25.136-55.818-93.106-120.622-96.103-123.462-3.086-2.925-7.92-2.925-11.006 0-4.306 4.081-105.471 100.642-105.471 160.267 0 59.117 46.466 107.58 104.792 110.799 1.17 26.4 9.437 52.541 24.812 75.277l-18.329 18.329c-.003.003-.007.006-.01.009l-96.17 96.171c-6.276 6.277-6.276 16.491 0 22.768l16.481 16.482v.001c3.139 3.139 7.262 4.708 11.385 4.708s8.246-1.569 11.385-4.708l96.17-96.171 18.317-18.317c23.962 16.266 52.213 25.018 81.813 25.018 39.02 0 75.703-15.195 103.295-42.786 27.591-27.592 42.786-64.275 42.786-103.295.001-39.02-15.194-75.705-42.785-103.295zm-337.942-.99c0-21.362 17.144-53.648 49.578-93.367 18.152-22.23 36.506-41.066 45.395-49.904 16.416 16.336 66.112 67.821 86.756 111.315-18.667 7.244-35.793 18.362-50.377 32.945-26.301 26.301-40.446 60.217-42.454 94.716-49.092-3.643-88.898-45.716-88.898-95.705zm27.032 328.522c-.039.039-.102.039-.141 0v.001l-16.481-16.483c-.039-.038-.039-.102 0-.14l90.512-90.514 16.623 16.623zm101.828-101.827-16.623-16.623 10.804-10.803 8.272 8.273c.013.013.025.026.038.039s.027.026.041.04l8.272 8.272zm197.768-30.43c-24.568 24.569-57.235 38.101-91.981 38.101s-67.412-13.531-91.98-38.101c-50.719-50.718-50.719-133.243 0-183.962 24.568-24.569 57.234-38.1 91.981-38.1 34.745 0 67.412 13.531 91.98 38.1 24.569 24.569 38.101 57.235 38.101 91.982-.001 34.745-13.532 67.412-38.101 91.98z"/><path d="m413.454 250.236c-4.752-25.292-14.185-42.235-30.217-58.268-42.432-42.432-111.474-42.433-153.909 0-20.555 20.555-31.875 47.885-31.875 76.954.001 29.069 11.321 56.398 31.876 76.954 21.217 21.216 49.085 31.824 76.954 31.824s55.737-10.608 76.954-31.824c25.977-25.977 36.046-61.927 30.217-95.64zm-200.001 18.686c0-24.796 9.656-48.107 27.189-65.641 36.194-36.194 95.086-36.194 131.28 0 12.825 12.825 21.081 28.503 24.818 45.007l-24.128 24.127c-6.522-12.219-19.398-20.556-34.188-20.556-12.849 0-24.25 6.294-31.3 15.956l-10.196-10.196c2.003-4.136 3.128-8.773 3.128-13.668 0-17.346-14.111-31.458-31.457-31.458s-31.458 14.112-31.458 31.458c0 3.768.667 7.383 1.888 10.734l-24.944 24.943c-.403-3.529-.632-7.099-.632-10.706zm147.702 21.67c0 12.534-10.197 22.731-22.731 22.731-12.535 0-22.732-10.197-22.732-22.731s10.197-22.731 22.732-22.731c12.534-.001 22.731 10.197 22.731 22.731zm-77.099-46.639c0 8.523-6.934 15.457-15.457 15.457s-15.458-6.934-15.458-15.457 6.935-15.458 15.458-15.458 15.457 6.934 15.457 15.458zm87.867 90.609c-36.193 36.195-95.086 36.195-131.279 0-10.393-10.392-17.992-22.824-22.479-36.382l30.182-30.182c5.477 4.62 12.543 7.412 20.252 7.412 6.642 0 12.806-2.075 17.888-5.602l13.84 13.84c-.41 2.255-.636 4.573-.636 6.945 0 21.356 17.375 38.731 38.732 38.731 21.356 0 38.731-17.375 38.731-38.731 0-.029-.002-.058-.002-.088l21.908-21.908c.084 23.88-8.957 47.785-27.137 65.965z"/></g></svg>