<svg height="512pt" viewBox="0 -36 512 512" width="512pt" xmlns="http://www.w3.org/2000/svg"><path d="m451.753906 7.609375h-391.515625c-29.070312 0-52.636719 23.566406-52.636719 52.636719v293.734375c0 29.070312 23.566407 52.636719 52.636719 52.636719h391.515625c29.070313 0 52.636719-23.566407 52.636719-52.636719v-293.734375c.003906-29.070313-23.566406-52.636719-52.636719-52.636719zm0 0" fill="#f9c84e"/><path d="m60.238281 366.066406c-6.664062 0-12.082031-5.421875-12.082031-12.082031v-293.738281c0-6.664063 5.417969-12.082032 12.082031-12.082032h391.519531c6.660157 0 12.082032 5.417969 12.082032 12.082032v293.738281c0 6.660156-5.421875 12.082031-12.082032 12.082031zm0 0" fill="#fff5d7"/><path d="m398.050781 330.417969v101.394531l-40.777343-24.046875-40.785157 24.046875v-101.394531" fill="#fc445f"/><path d="m424.871094 271.703125c0-9.855469 7.789062-21.191406 4.238281-29.757813-3.683594-8.882812-17.347656-11.351562-24.039063-18.042968-6.695312-6.695313-9.160156-20.355469-18.042968-24.039063-8.566406-3.550781-19.902344 4.238281-29.753906 4.238281-9.855469 0-21.191407-7.789062-29.757813-4.238281-8.882813 3.683594-11.351563 17.34375-18.042969 24.039063-6.695312 6.691406-20.355468 9.160156-24.039062 18.042968-3.550782 8.566407 4.238281 19.902344 4.238281 29.753907 0 9.855469-7.789063 21.191406-4.238281 29.757812 3.683594 8.882813 17.347656 11.351563 24.039062 18.042969 6.695313 6.695312 9.160156 20.355469 18.042969 24.035156 8.566406 3.554688 19.902344-4.234375 29.757813-4.234375 9.851562 0 21.1875 7.789063 29.757812 4.234375 8.878906-3.683594 11.347656-17.34375 18.039062-24.035156 6.695313-6.695312 20.355469-9.160156 24.039063-18.042969 3.550781-8.566406-4.238281-19.902343-4.238281-29.753906zm0 0" fill="#f9c84e"/><path d="m400.015625 271.703125c0 23.605469-19.136719 42.742187-42.742187 42.742187-23.609376 0-42.746094-19.136718-42.746094-42.742187 0-23.609375 19.136718-42.746094 42.746094-42.746094 23.605468 0 42.742187 19.136719 42.742187 42.746094zm0 0" fill="#f7a34f"/><path d="m291.667969 120.242188c0 19.703124-15.96875 35.671874-35.671875 35.671874s-35.671875-15.96875-35.671875-35.671874c0-19.699219 15.96875-35.671876 35.671875-35.671876s35.671875 15.972657 35.671875 35.671876zm0 0" fill="#5eb3dd"/><path d="m451.757812 0h-345.054687c-4.199219 0-7.601563 3.40625-7.601563 7.605469s3.402344 7.601562 7.601563 7.601562h345.054687c24.832032 0 45.035157 20.203125 45.035157 45.035157v293.738281c0 24.832031-20.203125 45.035156-45.035157 45.035156h-46.101562v-25.347656h46.101562c10.855469 0 19.6875-8.832031 19.6875-19.6875v-86.089844c0-4.199219-3.40625-7.605469-7.605468-7.605469-4.199219 0-7.601563 3.40625-7.601563 7.605469v86.089844c0 2.46875-2.011719 4.480469-4.480469 4.480469h-46.101562v-26.152344c1.585938-3.003906 3.117188-5.753906 4.792969-7.429688 1.882812-1.882812 5.121093-3.582031 8.546875-5.382812 6.507812-3.414063 13.886718-7.285156 17.136718-15.125 3.136719-7.566406.742188-15.382813-1.371093-22.277344-1.175781-3.84375-2.289063-7.476562-2.289063-10.390625 0-2.917969 1.113282-6.546875 2.289063-10.390625 2.113281-6.898438 4.507812-14.714844 1.371093-22.28125-3.253906-7.839844-10.628906-11.710938-17.136718-15.125-3.425782-1.796875-6.664063-3.496094-8.546875-5.378906-1.882813-1.882813-3.582031-5.121094-5.382813-8.550782-3.414062-6.507812-7.285156-13.882812-15.125-17.136718-7.566406-3.136719-15.382812-.742188-22.28125 1.371094-3.84375 1.175781-7.476562 2.289062-10.390625 2.289062-2.914062 0-6.546875-1.113281-10.390625-2.289062-6.894531-2.113282-14.710937-4.507813-22.277344-1.371094-7.839843 3.253906-11.710937 10.628906-15.125 17.136718-1.800781 3.429688-3.5 6.667969-5.382812 8.550782-1.882812 1.882812-5.121094 3.582031-8.550781 5.382812-6.507813 3.414063-13.882813 7.285156-17.132813 15.121094-3.140625 7.570312-.742187 15.386719 1.367188 22.28125 1.179687 3.84375 2.292968 7.476562 2.292968 10.390625s-1.113281 6.546875-2.292968 10.390625c-2.109375 6.894531-4.507813 14.710938-1.367188 22.28125 3.25 7.835938 10.625 11.707031 17.132813 15.125 3.429687 1.796875 6.667969 3.496094 8.550781 5.378906 1.675781 1.675782 3.207031 4.421875 4.789062 7.421875v26.160157h-248.648437c-2.464844 0-4.472656-2.007813-4.472656-4.480469v-293.738281c0-2.46875 2.007812-4.480469 4.472656-4.480469h391.523437c2.46875 0 4.480469 2.011719 4.480469 4.480469v177.230468c0 4.199219 3.402344 7.605469 7.601563 7.605469 4.199218 0 7.605468-3.40625 7.605468-7.605469v-177.230468c0-10.855469-8.832031-19.6875-19.6875-19.6875h-391.523437c-10.851563 0-19.679687 8.832031-19.679687 19.6875v293.738281c0 10.855469 8.828124 19.6875 19.679687 19.6875h248.648437v25.347656h-248.648437c-24.828125 0-45.027344-20.203125-45.027344-45.035156v-293.738281c0-24.832032 20.199219-45.035157 45.027344-45.035157h16.050781c4.199219 0 7.605469-3.402343 7.605469-7.601562s-3.40625-7.605469-7.605469-7.605469h-16.050781c-33.214844 0-60.234375 27.027344-60.234375 60.242188v293.738281c0 33.21875 27.019531 60.242187 60.234375 60.242187h248.648437v17.589844c0 2.730469 1.460938 5.25 3.832032 6.601562 1.167968.671876 2.472656 1.003907 3.773437 1.003907 1.332031 0 2.671875-.351563 3.859375-1.054688l36.925782-21.769531 36.914062 21.769531c2.351562 1.386719 5.265625 1.40625 7.636719.054688 2.367187-1.355469 3.832031-3.875 3.832031-6.601563v-17.59375h46.101562c33.214844 0 60.242188-27.023437 60.242188-60.242187v-293.738281c0-33.214844-27.027344-60.242188-60.242188-60.242188zm-149.148437 306.03125c-4.425781-2.324219-9.007813-4.730469-10.152344-7.484375-1.042969-2.519531.433594-7.339844 1.863281-12 1.453126-4.746094 2.957032-9.652344 2.957032-14.847656 0-5.191407-1.503906-10.097657-2.957032-14.84375-1.429687-4.660157-2.90625-9.480469-1.863281-12 1.144531-2.753907 5.726563-5.160157 10.152344-7.480469 4.289063-2.25 8.71875-4.578125 12.238281-8.09375 3.519532-3.523438 5.847656-7.953125 8.09375-12.238281 2.324219-4.429688 4.730469-9.011719 7.484375-10.152344.59375-.246094 1.3125-.351563 2.128907-.351563 2.648437 0 6.304687 1.117188 9.871093 2.210938 4.746094 1.453125 9.652344 2.957031 14.847657 2.957031 5.191406 0 10.097656-1.503906 14.84375-2.957031 4.660156-1.429688 9.484374-2.90625 12-1.859375 2.753906 1.140625 5.15625 5.722656 7.484374 10.152344 2.246094 4.285156 4.574219 8.714843 8.09375 12.238281 3.519532 3.515625 7.949219 5.84375 12.238282 8.09375 4.429687 2.324219 9.007812 4.726562 10.152344 7.480469 1.042968 2.519531-.433594 7.339843-1.863282 12-1.453125 4.746093-2.957031 9.652343-2.957031 14.84375 0 5.195312 1.503906 10.101562 2.957031 14.847656 1.429688 4.660156 2.90625 9.480469 1.863282 12-1.144532 2.753906-5.722657 5.160156-10.152344 7.480469-4.285156 2.25-8.71875 4.578125-12.238282 8.097656-3.519531 3.519531-5.84375 7.949219-8.09375 12.234375-2.324218 4.429687-4.726562 9.011719-7.484374 10.15625-2.515626 1.042969-7.335938-.433594-12-1.863281-4.746094-1.453125-9.652344-2.957032-14.84375-2.957032-5.195313 0-10.101563 1.503907-14.847657 2.957032-4.660156 1.429687-9.480469 2.90625-12 1.863281-2.753906-1.144531-5.15625-5.726563-7.480469-10.15625-2.25-4.285156-4.574218-8.714844-8.09375-12.234375-3.523437-3.519531-7.953124-5.847656-12.242187-8.09375zm87.839844 112.46875-29.3125-17.285156c-2.382813-1.40625-5.34375-1.40625-7.722657 0l-29.324218 17.289062v-68.175781c.171875.074219.335937.160156.511718.234375 2.625 1.089844 5.28125 1.511719 7.914063 1.511719 4.964844 0 9.859375-1.5 14.363281-2.878907 3.847656-1.179687 7.476563-2.292968 10.394532-2.292968 2.914062 0 6.542968 1.113281 10.390624 2.292968 6.894532 2.109376 14.707032 4.503907 22.277344 1.367188.175782-.074219.335938-.15625.507813-.234375zm0 0"/><path d="m357.273438 322.050781c27.761718 0 50.347656-22.585937 50.347656-50.347656 0-27.765625-22.585938-50.351563-50.347656-50.351563-27.765626 0-50.351563 22.585938-50.351563 50.351563 0 27.761719 22.585937 50.347656 50.351563 50.347656zm0-85.492187c19.375 0 35.140624 15.765625 35.140624 35.144531 0 19.375-15.765624 35.140625-35.140624 35.140625-19.378907 0-35.144532-15.765625-35.144532-35.140625 0-19.378906 15.765625-35.144531 35.144532-35.144531zm0 0"/><path d="m299.273438 120.242188c0-23.863282-19.414063-43.277344-43.277344-43.277344-23.863282 0-43.277344 19.414062-43.277344 43.277344 0 23.863281 19.414062 43.277343 43.277344 43.277343 23.863281 0 43.277344-19.414062 43.277344-43.277343zm-43.277344 28.070312c-15.476563 0-28.070313-12.59375-28.070313-28.070312 0-15.476563 12.59375-28.066407 28.070313-28.066407 15.476562 0 28.070312 12.589844 28.070312 28.066407 0 15.476562-12.59375 28.070312-28.070312 28.070312zm0 0"/><path d="m192.777344 96.785156h-103.054688c-4.199218 0-7.605468 3.402344-7.605468 7.601563s3.40625 7.605469 7.605468 7.605469h103.054688c4.199218 0 7.605468-3.40625 7.605468-7.605469s-3.40625-7.601563-7.605468-7.601563zm0 0"/><path d="m192.777344 128.492188h-64.410156c-4.199219 0-7.601563 3.40625-7.601563 7.605468 0 4.199219 3.402344 7.605469 7.601563 7.605469h64.410156c4.199218 0 7.605468-3.40625 7.605468-7.605469 0-4.199218-3.40625-7.605468-7.605468-7.605468zm0 0"/><path d="m429.875 104.386719c0-4.199219-3.40625-7.601563-7.605469-7.601563h-103.054687c-4.199219 0-7.605469 3.402344-7.605469 7.601563s3.40625 7.605469 7.605469 7.605469h103.054687c4.199219 0 7.605469-3.40625 7.605469-7.605469zm0 0"/><path d="m319.214844 128.492188c-4.199219 0-7.605469 3.40625-7.605469 7.605468 0 4.199219 3.40625 7.605469 7.605469 7.605469h64.410156c4.199219 0 7.605469-3.40625 7.605469-7.605469 0-4.199218-3.40625-7.605468-7.605469-7.605468zm0 0"/><path d="m284.085938 193.570312c0-4.199218-3.40625-7.601562-7.605469-7.601562h-168.457031c-4.199219 0-7.601563 3.402344-7.601563 7.601562 0 4.199219 3.402344 7.605469 7.601563 7.605469h168.457031c4.199219 0 7.605469-3.40625 7.605469-7.605469zm0 0"/><path d="m265.257812 227.261719c0-4.199219-3.40625-7.601563-7.605468-7.601563h-149.628906c-4.199219 0-7.601563 3.402344-7.601563 7.601563s3.402344 7.605469 7.601563 7.605469h149.628906c4.199218 0 7.605468-3.40625 7.605468-7.605469zm0 0"/><path d="m100.421875 328.453125c0 4.199219 3.402344 7.601563 7.601563 7.601563h87.203124c4.199219 0 7.601563-3.402344 7.601563-7.601563s-3.402344-7.605469-7.601563-7.605469h-87.203124c-4.199219 0-7.601563 3.40625-7.601563 7.605469zm0 0"/><path d="m132.144531 262.035156c-3.78125-1.828125-8.328125-.246094-10.15625 3.535156-1.699219 3.515626-9.816406 21.636719-2.53125 33.257813 2.394531 3.820313 7.34375 8.375 17.304688 8.375 5.78125 0 11.90625-1.3125 17.75-3.554687 7.46875 4.757812 18.484375 7.921874 32.972656 9.460937.273437.027344.546875.039063.8125.039063 3.839844 0 7.140625-2.898438 7.554687-6.800782.441407-4.175781-2.585937-7.921875-6.761718-8.363281-7.664063-.8125-13.703125-2.085937-18.332032-3.585937 5.984376-4.792969 10.453126-10.464844 12.070313-16.179688 1.941406-6.859375-.457031-13.140625-6.410156-16.804688-6.1875-3.808593-14.765625-2.617187-22.386719 3.109376-8.765625 6.582031-12.851562 16.546874-10.410156 25.390624.109375.402344.234375.796876.367187 1.1875-2.359375.566407-4.785156.890626-7.230469.890626-1.355468 0-3.734374-.160157-4.414062-1.242188-1.863281-2.957031.265625-12.15625 3.335938-18.566406 1.824218-3.777344.242187-8.320313-3.535157-10.148438zm28.710938 16.773438c2.761719-3.109375 5.917969-4.273438 7.277343-4.382813-.761718 2.347657-4.5625 6.539063-10.007812 10.238281-.003906-2.46875 1.816406-4.828124 2.730469-5.855468zm0 0"/></svg>