<svg id="Layer_1" viewBox="0 0 64 64" xmlns="http://www.w3.org/2000/svg" data-name="Layer 1"><g fill="#fff"><path d="m18.78 11v7.77h7.77a8.87 8.87 0 0 0 -7.77-7.77z"/><path d="m16.72 19.38v-8.38a8.84 8.84 0 0 0 -5.92 14.3z"/><path d="m17.75 28.67a8.87 8.87 0 0 0 8.8-7.83h-8.37l-5.92 5.92a8.83 8.83 0 0 0 5.49 1.91z"/><path d="m29.63 23.52h4.38v4.58h-4.38z"/><path d="m34.94 18.81h4.38v9.28h-4.38z"/><path d="m40.25 14.29h4.38v13.81h-4.38z"/><path d="m45.56 21.4h4.38v6.7h-4.38z"/><path d="m50.87 11.52h4.38v16.57h-4.38z"/><circle cx="11.68" cy="34.61" r="3.32"/><path d="m17 32.65a1 1 0 0 0 1 1h10.62a1 1 0 1 0 0-2.06h-10.62a1 1 0 0 0 -1 1.06z"/><path d="m28.62 35.54h-10.62a1 1 0 1 0 0 2.06h10.62a1 1 0 1 0 0-2.06z"/><path d="m37.64 38a3.41 3.41 0 1 0 -3.42-3.41 3.41 3.41 0 0 0 3.42 3.41z"/><path d="m44 31.62a1 1 0 0 0 0 2.06h10.59a1 1 0 0 0 0-2.06z"/><path d="m54.59 35.54h-10.59a1 1 0 0 0 0 2.06h10.59a1 1 0 0 0 0-2.06z"/><path d="m61.94 2.54h-59.88a2.07 2.07 0 0 0 -2.06 2.07v42.49a2.07 2.07 0 0 0 2.06 2.07h59.88a2.07 2.07 0 0 0 2.06-2.07v-42.49a2.07 2.07 0 0 0 -2.06-2.07zm-2.07 38.9h-55.74v-34.6h55.74z"/><path d="m24.82 50.2h14.36v5.56h-14.36z"/><path d="m21 58.82v2.64h22.1v-2.64a2 2 0 0 0 -2-2h-18.1a2 2 0 0 0 -2 2z"/></g></svg>