<?xml version="1.0" encoding="iso-8859-1"?>
<!-- Generator: Adobe Illustrator 19.0.0, SVG Export Plug-In . SVG Version: 6.00 Build 0)  -->
<svg version="1.1" id="Capa_1" xmlns="http://www.w3.org/2000/svg" xmlns:xlink="http://www.w3.org/1999/xlink" x="0px" y="0px"
	 viewBox="0 0 496 496" style="enable-background:new 0 0 496 496;" xml:space="preserve">
<path style="fill:#EABD8C;" d="M344,400c0-30.928,25.072-56,56-56c8.6,0,16.72,2,24,5.464V88c0-17.672-14.328-32-32-32H136
	c-17.672,0-32,14.328-32,32v320c0,17.672,14.328,32,32,32h224.848C350.464,429.832,344,415.68,344,400z"/>
<path style="fill:#ECECEC;" d="M344,400c0-28.208,20.872-51.472,48-55.36V88H136v320h208.64C344.264,405.384,344,402.72,344,400z"/>
<path style="fill:#FEA82F;" d="M488,416v-32l-19.072-4.768c-1.4-4.648-3.24-9.096-5.496-13.296l10.104-16.848l-22.624-22.624
	l-16.848,10.104c-4.2-2.256-8.648-4.096-13.296-5.496L416,312h-32l-4.768,19.072c-4.648,1.4-9.096,3.24-13.296,5.496l-16.848-10.104
	l-22.624,22.624l10.104,16.848c-2.256,4.2-4.096,8.648-5.496,13.296L312,384v32l19.072,4.768c1.4,4.648,3.24,9.096,5.496,13.296
	l-10.104,16.848l22.624,22.624l16.848-10.104c4.2,2.256,8.648,4.096,13.296,5.496L384,488h32l4.768-19.072
	c4.648-1.4,9.096-3.24,13.296-5.496l16.848,10.104l22.624-22.624l-10.104-16.848c2.256-4.2,4.096-8.648,5.496-13.296L488,416z
	 M400,440c-22.088,0-40-17.912-40-40s17.912-40,40-40s40,17.912,40,40S422.088,440,400,440z"/>
<path style="fill:#FFC729;" d="M400,336c-35.344,0-64,28.656-64,64s28.656,64,64,64s64-28.656,64-64S435.344,336,400,336z M400,440
	c-22.088,0-40-17.912-40-40s17.912-40,40-40s40,17.912,40,40S422.088,440,400,440z"/>
<polygon style="fill:#ECECEC;" points="56,8 24,8 16,80 24,88 24,248 56,248 56,88 64,80 "/>
<rect x="24" y="224" style="fill:#B6C1CE;" width="32" height="24"/>
<path style="fill:#FEA82F;" d="M40,488L40,488c-17.672,0-32-14.328-32-32V248h64v208C72,473.672,57.672,488,40,488z"/>
<rect x="168" y="136" style="fill:#FCD770;" width="192" height="80"/>
<rect x="168" y="192" style="fill:#FFC729;" width="192" height="24"/>
<path style="fill:#FEA82F;" d="M344,104h16V40h-50.792C302.616,21.368,284.888,8,264,8s-38.616,13.368-45.208,32H168v64h144H344z"/>
<path d="M496,422.248v-44.496l-20.864-5.208c-0.776-2.128-1.64-4.208-2.584-6.248l11.064-18.448l-31.464-31.456l-18.44,11.064
	c-0.56-0.256-1.144-0.464-1.712-0.712V88c0-22.056-17.944-40-40-40h-24V32h-53.448C305.36,12.648,285.712,0,264,0
	s-41.36,12.648-50.552,32H160v16h-24c-22.056,0-40,17.944-40,40v320c0,22.056,17.944,40,40,40h182.88l-2.496,4.16l31.464,31.456
	l18.44-11.064c2.04,0.944,4.12,1.808,6.248,2.584L377.752,496h44.496l5.216-20.864c2.128-0.784,4.208-1.64,6.248-2.584l18.44,11.064
	l31.464-31.456l-11.064-18.448c0.944-2.04,1.808-4.128,2.584-6.248L496,422.248z M176,48h48.44l1.888-5.328
	C231.984,26.72,247.12,16,264,16s32.016,10.72,37.664,26.672L303.56,48H352v48h-16v16h32V96h16v168h16V80h-32V64h24
	c13.232,0,24,10.768,24,24v216h-16v-24h-16v24h-6.248l-5.216,20.864c-2.128,0.784-4.208,1.64-6.248,2.584l-18.44-11.064
	l-31.464,31.456l11.064,18.448c-0.944,2.04-1.808,4.128-2.584,6.248L304,377.752V400H144V96h16v16h160V96H176V48z M112,408V88
	c0-13.232,10.768-24,24-24h24v16h-32v336h176v6.248l20.864,5.208c0.568,1.544,1.224,3.04,1.88,4.536H136
	C122.768,432,112,421.232,112,408z M463.464,449.672l-13.792,13.8l-15.384-9.24l-4.008,2.16c-3.728,2.008-7.696,3.648-11.816,4.88
	l-4.352,1.312L409.752,480h-19.504l-4.352-17.424l-4.352-1.312c-4.112-1.232-8.088-2.872-11.816-4.88l-4.008-2.16l-15.384,9.24
	l-13.792-13.8l9.24-15.4l-2.16-4.008c-2-3.704-3.64-7.672-4.88-11.808l-1.312-4.352L320,409.752v-19.504l17.424-4.36l1.312-4.352
	c1.24-4.136,2.888-8.104,4.88-11.808l2.16-4.008l-9.24-15.4l13.792-13.8l15.384,9.24l4.008-2.16
	c3.728-2.008,7.696-3.648,11.816-4.88l4.352-1.312l4.36-17.408h19.504l4.352,17.424l4.352,1.312
	c4.112,1.232,8.088,2.872,11.816,4.88l4.008,2.16l15.384-9.24l13.792,13.8l-9.24,15.4l2.16,4.008c2,3.704,3.64,7.672,4.88,11.808
	l1.312,4.352L480,390.248v19.504l-17.424,4.36l-1.312,4.352c-1.24,4.136-2.888,8.104-4.88,11.808l-2.16,4.008L463.464,449.672z"/>
<path d="M400,352c-26.472,0-48,21.528-48,48s21.528,48,48,48s48-21.528,48-48S426.472,352,400,352z M400,432
	c-17.648,0-32-14.352-32-32s14.352-32,32-32s32,14.352,32,32S417.648,432,400,432z"/>
<path d="M64,91.312l8.376-8.376L63.16,0H16.84L7.624,82.936L16,91.312V240H0v216c0,22.056,17.944,40,40,40s40-17.944,40-40V240H64
	V91.312z M24.376,77.064L31.16,16h17.68l6.784,61.064L48,84.688V240H32V84.688L24.376,77.064z M64,456
	c0,10.416-6.712,19.216-16,22.528V408H32v70.528c-9.288-3.312-16-12.112-16-22.528V256h16v72h16v-72h16V456z"/>
<polygon points="184,364.688 173.656,354.344 162.344,365.656 184,387.312 237.656,333.656 226.344,322.344 "/>
<rect x="264" y="328" width="32" height="16"/>
<rect x="264" y="360" width="32" height="16"/>
<polygon points="184,284.688 173.656,274.344 162.344,285.656 184,307.312 237.656,253.656 226.344,242.344 "/>
<rect x="264" y="248" width="56" height="16"/>
<rect x="264" y="280" width="56" height="16"/>
<path d="M160,224h208v-96H160V224z M176,144h176v64H176V144z"/>
<g>
</g>
<g>
</g>
<g>
</g>
<g>
</g>
<g>
</g>
<g>
</g>
<g>
</g>
<g>
</g>
<g>
</g>
<g>
</g>
<g>
</g>
<g>
</g>
<g>
</g>
<g>
</g>
<g>
</g>
</svg>
