<svg id="Layer_1" enable-background="new 0 0 512 512" height="512" viewBox="0 0 512 512" width="512" xmlns="http://www.w3.org/2000/svg"><g clip-rule="evenodd" fill-rule="evenodd"><g><path d="m504 81.364v276.429c0 11.015-3.927 20.495-11.716 28.284l-60.568 60.568c-7.789 7.789-17.269 11.716-28.284 11.716h-355.432c-22.031 0-40-17.969-40-40v-336.997c0-22.031 17.969-40 40-40h416c22.031 0 40 17.968 40 40z" fill="#eceff1"/><path d="m473.999 128.658v245.703 30.001l18.285-18.285c7.789-7.789 11.716-17.269 11.716-28.284v-229.135-47.294c0-22.031-17.969-40-40-40h-21.303-8.698c2.986 0 5.896.33 8.698.955 17.873 3.989 31.302 20 31.302 39.045z" fill="#d1d1d6"/><path d="m144.5 201.158c0-10.475 8.524-18.999 18.999-18.999h35.001c10.475 0 19 8.524 19 18.999v35.001c0 10.475-8.524 18.999-19 18.999h-35c-10.475 0-18.999-8.524-18.999-18.999v-35.001zm150 149.999c0-10.475 8.524-18.999 18.999-18.999h35.001c10.475 0 19 8.524 19 18.999v35.001c0 10.475-8.524 18.999-19 18.999h-35c-10.475 0-18.999-8.524-18.999-18.999v-35.001zm-75 0c0-10.475 8.524-18.999 18.999-18.999h35.001c10.475 0 19 8.524 19 18.999v35.001c0 10.475-8.524 18.999-19 18.999h-35c-10.475 0-18.999-8.524-18.999-18.999v-35.001zm-75 0c0-10.475 8.524-18.999 18.999-18.999h35.001c10.475 0 19 8.524 19 18.999v35.001c0 10.475-8.524 18.999-19 18.999h-35c-10.475 0-18.999-8.524-18.999-18.999v-35.001zm225-74.999c0-10.475 8.524-19 19-19h35c10.475 0 19 8.524 19 19v35.001c0 10.475-8.524 18.999-19 18.999h-35c-10.475 0-19-8.524-19-18.999zm-75 0c0-10.475 8.524-19 18.999-19h35.001c10.475 0 19 8.524 19 19v35.001c0 10.475-8.524 18.999-19 18.999h-35c-10.475 0-18.999-8.524-18.999-18.999v-35.001zm-75 0c0-10.475 8.524-19 18.999-19h35.001c10.475 0 19 8.524 19 19v35.001c0 10.475-8.524 18.999-19 18.999h-35c-10.475 0-18.999-8.524-18.999-18.999v-35.001zm-75 0c0-10.475 8.524-19 18.999-19h35.001c10.475 0 19 8.524 19 19v35.001c0 10.475-8.524 18.999-19 18.999h-35c-10.475 0-18.999-8.524-18.999-18.999v-35.001zm225-75c0-10.475 8.524-18.999 19-18.999h35c10.475 0 19 8.524 19 18.999v35.001c0 10.475-8.524 18.999-19 18.999h-35c-10.475 0-19-8.524-19-18.999zm-75 0c0-10.475 8.524-18.999 18.999-18.999h35.001c10.475 0 19 8.524 19 18.999v35.001c0 10.475-8.524 18.999-19 18.999h-35c-10.475 0-18.999-8.524-18.999-18.999v-35.001zm-75 0c0-10.475 8.524-18.999 18.999-18.999h35.001c10.475 0 19 8.524 19 18.999v35.001c0 10.475-8.524 18.999-19 18.999h-35c-10.475 0-18.999-8.524-18.999-18.999v-35.001z" fill="#6cf5c2"/><path d="m69.501 276.158c0-10.475 8.524-19 18.999-19h35.001c10.475 0 18.999 8.524 18.999 19v35.001c0 10.475-8.524 18.999-18.999 18.999h-35.001c-10.475 0-18.999-8.524-18.999-18.999zm0-75c0-10.475 8.524-18.999 18.999-18.999h35.001c10.475 0 18.999 8.524 18.999 18.999v35.001c0 10.475-8.524 18.999-18.999 18.999h-35.001c-10.475 0-18.999-8.524-18.999-18.999zm0 149.999c0-10.475 8.524-18.999 18.999-18.999h35.001c10.475 0 18.999 8.524 18.999 18.999v35.001c0 10.475-8.524 18.999-18.999 18.999h-35.001c-10.475 0-18.999-8.524-18.999-18.999z" fill="#fe646f"/><path d="m8 128.658h496v-47.294c0-22.031-17.969-40-40-40h-21.303-39.828-71.36-39.829-71.36-39.828-71.36-39.829-21.303c-22.031 0-40 17.969-40 40z" fill="#d1d1d6"/><path d="m473.999 128.658h30.001v-47.294c0-22.031-17.969-40-40-40h-21.303-8.698c2.986 0 5.896.33 8.698.955 17.873 3.989 31.302 20 31.302 39.045z" fill="#b1b1b5"/><path d="m430 374.361c-5.508 0-10 4.492-10 10v70.533c4.248-1.94 8.158-4.692 11.716-8.249l60.568-60.568c3.557-3.557 6.309-7.468 8.249-11.715h-70.533z" fill="#d1d1d6"/><path d="m473.999 404.362 18.285-18.285c3.557-3.557 6.309-7.468 8.249-11.715h-26.534z" fill="#b1b1b5"/><path d="m79.303 8.001h19.829c5.508 0 10 4.492 10 10v60.658c0 5.508-4.492 10-10 10h-19.829c-5.508 0-10-4.492-10-10v-60.659c0-5.507 4.492-9.999 10-9.999zm333.565 0h19.829c5.508 0 10 4.492 10 10v60.658c0 5.508-4.492 10-10 10h-19.829c-5.508 0-10-4.492-10-10v-60.659c0-5.507 4.493-9.999 10-9.999zm-111.188 0h19.829c5.508 0 10 4.492 10 10v60.658c0 5.508-4.492 10-10 10h-19.829c-5.508 0-10-4.492-10-10v-60.659c0-5.507 4.492-9.999 10-9.999zm-111.189 0h19.829c5.508 0 10 4.492 10 10v60.658c0 5.508-4.492 10-10 10h-19.829c-5.508 0-10-4.492-10-10v-60.659c0-5.507 4.492-9.999 10-9.999z" fill="#837683"/><path d="m402.868 78.659c0 5.508 4.492 10 10 10h19.829c5.508 0 10-4.492 10-10v-36.34-.955-23.364c0-5.508-4.492-10-10-10v33.363 27.295c0 5.508-4.492 10-10 10zm-202.548-.001-19.828.001c0 5.508 4.492 10 10 10h19.829c5.508 0 10-4.492 10-10v-37.295-23.364c0-5.508-4.492-10-10-10v33.363 27.295c-.002 5.508-4.494 10-10.001 10zm-101.188 10.001c5.508 0 10-4.492 10-10v-37.295-23.364c0-5.508-4.492-10-10-10v33.363 27.295c0 5.508-4.492 10-10 10l-19.828.001c0 5.508 4.492 10 10 10zm222.377 0c5.508 0 10-4.492 10-10v-37.295-23.364c0-5.508-4.492-10-10-10v33.363 27.295c0 5.508-4.492 10-10 10l-19.828.001c0 5.508 4.492 10 10 10z" fill="#685e68"/></g><g><circle cx="218.5" cy="392.829" fill="#8ac9fe" r="111.171"/><circle cx="218.5" cy="392.828" fill="#eceff1" r="93.493"/></g><path d="m147.58 392.832c0 4.42-3.58 8-7.995 8h-9.595c-4.42 0-8-3.581-8-8 0-4.425 3.58-8 8-8h9.595c4.414-.001 7.995 3.575 7.995 8zm78.922 78.917v9.59c0 4.42-3.58 8-8 8s-8-3.58-8-8v-9.59c0-4.42 3.581-8 8-8 4.419-.001 8 3.58 8 8zm88.511-78.917c0 4.42-3.58 8-8 8h-9.59c-4.42 0-8-3.581-8-8 0-4.425 3.581-8 8-8h9.59c4.42-.001 8 3.575 8 8zm-146.659-61.464c3.128 3.123 3.128 8.194 0 11.312-1.561 1.561-3.613 2.34-5.651 2.34-2.052 0-4.099-.778-5.661-2.34l-6.793-6.779c-3.118-3.132-3.118-8.194 0-11.321 3.132-3.123 8.193-3.123 11.321 0zm0 111.602c3.128 3.128 3.128 8.189 0 11.321l-6.783 6.779c-1.557 1.571-3.609 2.349-5.661 2.349-2.047 0-4.09-.778-5.651-2.349-3.127-3.118-3.127-8.179-.009-11.312l6.793-6.778c3.117-3.133 8.188-3.133 11.311-.01zm118.399 6.788c3.118 3.132 3.118 8.194 0 11.312-1.571 1.571-3.613 2.349-5.66 2.349-2.052 0-4.099-.778-5.661-2.349l-6.783-6.779c-3.128-3.132-3.128-8.194 0-11.321 3.123-3.123 8.193-3.123 11.312 0zm-18.104-107.079c-3.128-3.118-3.128-8.189 0-11.312l6.783-6.788c3.132-3.123 8.189-3.123 11.321 0 3.118 3.127 3.118 8.189 0 11.321l-6.793 6.779c-1.557 1.561-3.609 2.34-5.66 2.34-2.038 0-4.09-.778-5.651-2.34zm-58.148-28.769v-9.59c0-4.42 3.581-8 8-8 4.42 0 8 3.58 8 8v9.59c0 4.42-3.58 8-8 8-4.419 0-8-3.581-8-8zm43.011 99.13c-1.481 2.571-4.17 4-6.929 4-1.359 0-2.741-.34-4-1.071l-28.081-16.208c-2.481-1.429-4-4.071-4-6.929v-42.062c0-4.42 3.581-8 8-8 4.42 0 8 3.58 8 8v37.44l24.081 13.901c3.83 2.207 5.136 7.108 2.929 10.929zm174.49 26.01v-54.69c0-1.08.92-2 2-2h54.685zm-105.172 11.312h80.602c3.033 0 5.882-.363 8.571-1.08v-64.922c0-9.929 8.08-18 18.001-18h64.922c.707-2.689 1.085-5.538 1.085-8.571v-221.129h-480.011v281.701c0 17.637 14.359 32.001 32.001 32.001h66.172c-6.151-11.109-10.58-23.303-12.93-36.204h-32.741c-4.42 0-8-3.59-8-8v-224.997c0-4.42 3.58-8 8-8h375.001c4.439 0 7.977 3.58 7.977 8v150c0 4.42-3.538 8-7.977 8h-67.002v66.997c0 4.41-3.581 8-8 8h-32.742c-2.349 12.901-6.778 25.095-12.929 36.204zm-246.328-186.204h58.997v43.242c-4.977 4.84-9.538 10.118-13.619 15.76h-45.378zm58.997-16h-58.997v-58.997h58.997zm75.002 0h-58.997v-58.997h58.997zm75.002 0h-59.002v-58.997h59.002zm74.998 0h-59.002v-58.997h59.002zm75.002 0h-59.001v-58.997h59.001zm-59.002 16h59.001v59.002h-59.001zm-75.002 0h59.002v59.002h-45.379c-4.08-5.651-8.642-10.92-13.623-15.76zm-74.997 0h59.002v30.17c-17.043-11.628-37.232-18.948-59.002-20.397zm-16.001 9.774c-21.77 1.448-41.959 8.769-58.997 20.397v-30.17h58.997zm114.381 65.228h35.619v59.001h-22.949c.071-1.774.118-3.552.118-5.33 0-19.302-4.609-37.534-12.788-53.671zm-225.431 59.002h-22.949v-59.002h35.619c-8.179 16.137-12.788 34.369-12.788 53.671 0 1.779.047 3.557.118 5.331zm119.05 97.837c56.889 0 103.173-46.28 103.173-103.168 0-56.893-46.284-103.173-103.173-103.173-56.888 0-103.168 46.28-103.168 103.173.001 56.889 46.28 103.168 103.168 103.168zm-170.5-446.639h13.298v29.298c0 9.92 8.085 18.001 18 18.001h19.831c9.929 0 18-8.08 18-18.001v-29.298h55.36v29.298c0 9.92 8.08 18.001 18 18.001h19.831c9.92 0 18-8.08 18-18.001v-29.298h55.36v29.298c0 9.92 8.071 18.001 18.001 18.001h19.831c9.92 0 17.996-8.08 17.996-18.001v-29.298h55.365v29.298c0 9.92 8.066 18.001 17.996 18.001h19.831c9.92 0 18.024-8.08 18.024-18.001v-29.298h13.255c17.642 0 32.029 14.359 32.029 32.001v39.298h-480.009v-39.298c0-17.642 14.359-32.001 32.001-32.001zm29.303-31.36v60.657c0 1.08.915 2 1.995 2h19.831c1.094 0 2-.92 2-2v-60.657c0-1.08-.906-2-2-2h-19.831c-1.08.001-1.995.92-1.995 2zm111.187 0v60.657c0 1.08.92 2 2 2h19.831c1.08 0 2-.92 2-2v-60.657c0-1.08-.92-2-2-2h-19.831c-1.08.001-2 .92-2 2zm111.192 0v60.657c0 1.08.92 2 2 2h19.831c1.08 0 1.995-.92 1.995-2v-60.657c0-1.08-.915-2-1.995-2h-19.831c-1.08.001-2 .92-2 2zm111.187 0v60.657c0 1.08.911 2 2 2h19.831c1.08 0 2-.92 2-2v-60.657c0-1.08-.92-2-2-2h-19.831c-1.09.001-2 .92-2 2zm53.11 15.359h-13.255v-15.359c0-9.92-8.104-18-18.024-18h-19.831c-9.93 0-17.996 8.08-17.996 18v15.359h-55.365v-15.359c0-9.92-8.076-18-17.996-18h-19.831c-9.93 0-18.001 8.08-18.001 18v15.359h-55.36v-15.359c0-9.92-8.08-18-18-18h-19.831c-9.92 0-18 8.08-18 18v15.359h-55.36v-15.359c0-9.92-8.071-18-18-18h-19.831c-9.915 0-18 8.08-18 18v15.359h-13.298c-26.467 0-48.001 21.539-48.001 48.002v337c0 26.468 21.534 47.996 48.001 47.996h76.781c21.84 27.775 55.728 45.643 93.719 45.643 37.992 0 71.88-17.868 93.72-45.643h91.21c13.194 0 24.609-4.726 33.94-14.057l60.572-60.572c9.34-9.326 14.057-20.75 14.057-33.94v-276.427c0-26.463-21.51-48.002-48.02-48.002z"/></g></svg>