<svg height="512" viewBox="0 0 512 512" width="512" xmlns="http://www.w3.org/2000/svg"><g id="filled_outline" data-name="filled outline"><rect fill="#ea9d2d" height="48" rx="24" width="368" x="72" y="24"/><path d="m96 72 136 232v184l48-24v-160l136-232z" fill="#fbb540"/><path d="m222.353 232a8 8 0 0 1 -6.91-3.955l-38.343-65.411a8 8 0 0 1 13.8-8.092l38.345 65.412a8 8 0 0 1 -6.892 12.046z" fill="#ea9d2d"/><path d="m168.835 143.06a7.994 7.994 0 0 1 -6.909-3.956l-8.826-15.059a8 8 0 1 1 13.8-8.091l8.828 15.059a8 8 0 0 1 -6.894 12.047z" fill="#ea9d2d"/><circle cx="368" cy="288" fill="#0bafea" r="104"/><path d="m424 248h-104a8 8 0 0 1 0-16h104a8 8 0 0 1 0 16z" fill="#0a71cd"/><path d="m376 224h24v32h-24z" fill="#fbb540"/><path d="m424 296h-104a8 8 0 0 1 0-16h104a8 8 0 0 1 0 16z" fill="#0a71cd"/><path d="m336 272h24v32h-24z" fill="#fbb540"/><path d="m424 344h-104a8 8 0 0 1 0-16h104a8 8 0 0 1 0 16z" fill="#0a71cd"/><path d="m376 320h24v32h-24z" fill="#fbb540"/><path d="m91.205 79.64 132.795 226.532v181.828a8 8 0 0 0 11.578 7.155l48-24a8 8 0 0 0 4.422-7.155v-97.7a111.975 111.975 0 1 0 80-190.3c-1.25 0-2.493.028-3.733.069l56.533-96.429a32 32 0 0 0 -4.8-63.64h-320a32 32 0 0 0 -4.8 63.64zm276.795 112.36a96 96 0 1 1 -96 96 96.108 96.108 0 0 1 96-96zm-23.726-13.462a111.95 111.95 0 0 0 -72.274 167.093v113.425l-32 16v-171.056a8 8 0 0 0 -1.1-4.046l-128.937-219.954h292.074zm-248.274-146.538h320a16 16 0 0 1 0 32h-320a16 16 0 0 1 0-32z"/><path d="m177.1 162.634 38.344 65.412a8 8 0 0 0 13.8-8.092l-38.344-65.412a8 8 0 0 0 -13.8 8.092z"/><path d="m153.1 124.045 8.827 15.059a8 8 0 1 0 13.8-8.091l-8.827-15.059a8 8 0 1 0 -13.8 8.091z"/><path d="m320 248h48v8a8 8 0 0 0 8 8h24a8 8 0 0 0 8-8v-8h16a8 8 0 0 0 0-16h-16v-8a8 8 0 0 0 -8-8h-24a8 8 0 0 0 -8 8v8h-48a8 8 0 0 0 0 16zm64-16h8v16h-8z"/><path d="m320 296h8v8a8 8 0 0 0 8 8h24a8 8 0 0 0 8-8v-8h56a8 8 0 0 0 0-16h-56v-8a8 8 0 0 0 -8-8h-24a8 8 0 0 0 -8 8v8h-8a8 8 0 0 0 0 16zm24-16h8v16h-8z"/><path d="m320 344h48v8a8 8 0 0 0 8 8h24a8 8 0 0 0 8-8v-8h16a8 8 0 0 0 0-16h-16v-8a8 8 0 0 0 -8-8h-24a8 8 0 0 0 -8 8v8h-48a8 8 0 0 0 0 16zm64-16h8v16h-8z"/></g></svg>