<svg id="Layer_1" enable-background="new 0 0 512 512" viewBox="0 0 512 512" xmlns="http://www.w3.org/2000/svg"><g clip-rule="evenodd" fill-rule="evenodd"><g><g><path d="m373.565 66.765c-137.358-76.016-227.207-76.017-364.565 0v135.127c0 51.316 21.224 92.72 62.896 122.67l119.386 85.805 119.382-85.805c41.672-29.951 62.901-71.351 62.901-122.67z" fill="#72d561"/><path d="m373.565 66.765c-72.71-40.239-132.107-59.172-192.286-56.81 53.509 2.099 107.635 21.031 172.286 56.811v135.126c0 51.32-21.229 92.719-62.901 122.67l-109.382 78.617 10 7.187 119.382-85.805c41.672-29.951 62.901-71.351 62.901-122.67z" fill="#57ca5a"/><path d="m342.566 85.278c-113.427-59.306-189.139-59.307-302.566 0v116.614c0 41.327 16.429 73.377 49.988 97.497l101.294 72.802 101.29-72.801c33.561-24.121 49.994-56.168 49.994-97.498z" fill="#eff4f7"/><path d="m200.213 40.975c-50.3-1.984-99.93 12.783-160.213 44.303v116.614c0 41.327 16.429 73.377 49.988 97.497l101.294 72.802 8.931-6.419-92.363-66.383c-33.56-24.12-49.988-56.17-49.988-97.497v-116.614c53.143-27.787 98.008-42.554 142.351-44.303z" fill="#e2e3e3"/></g><g><circle cx="191.282" cy="190.06" fill="#64b5f6" r="91.52"/><path d="m245.944 116.651c22.371 16.685 36.858 43.354 36.858 73.409 0 50.545-40.975 91.52-91.52 91.52-30.054 0-56.723-14.487-73.409-36.858 15.253 11.377 34.171 18.112 54.662 18.112 50.545 0 91.52-40.975 91.52-91.52.001-20.493-6.734-39.41-18.111-54.663z" fill="#42a5f5"/><path d="m220.552 150.904c6.378-6.413 16.747-6.442 23.161-.064 6.413 6.378 6.442 16.747.064 23.161l-54.701 55.215c-6.335 6.37-16.608 6.44-23.03.19l-27.065-26.379c-6.484-6.307-6.627-16.676-.321-23.16 6.307-6.484 16.676-6.627 23.16-.321l15.442 15.054z" fill="#eff4f7"/><path d="m246.626 154.757c3.29 6.177 2.344 14.022-2.849 19.244l-54.701 55.215c-6.335 6.37-16.608 6.44-23.03.19l-27.065-26.379c-5.348-5.201-6.382-13.165-3.042-19.435.778 1.462 1.791 2.829 3.042 4.046l27.065 26.379c6.423 6.25 16.695 6.18 23.03-.19l54.701-55.215c1.163-1.17 2.111-2.47 2.849-3.855z" fill="#e2e3e3"/></g><g><path d="m360.295 388.624-64.609 111.905c-1.461 2.531-5.203 2.197-6.195-.551l-17.395-48.228-50.464 9.05c-2.875.515-5.035-2.559-3.574-5.089l73.506-127.317 80.002 27.11 48.517-42.593 82.445 142.8c1.461 2.53-.699 5.604-3.574 5.089l-50.464-9.05-17.395 48.228c-.992 2.748-4.734 3.082-6.194.551z" fill="#ffda2d"/><path d="m360.295 388.624-64.609 111.905c-1.461 2.531-5.203 2.197-6.195-.551l-17.395-48.228-50.464 9.05c-2.875.515-5.035-2.559-3.574-5.089l12.114-20.981 41.924-7.518 17.395 48.228c.992 2.748 4.734 3.081 6.195.551l64.609-111.905 64.608 111.905c1.461 2.53 5.203 2.197 6.194-.551l17.395-48.228 41.924 7.518 12.114 20.981c1.461 2.53-.699 5.604-3.574 5.089l-50.464-9.05-17.395 48.228c-.992 2.748-4.734 3.082-6.194.551z" fill="#ffc700"/><path d="m467.571 362.411c19.694-6.818 28.717-34.586 16.792-51.679-5.017-7.191-5.018-16.298-.001-23.488 11.926-17.092 2.904-44.861-16.79-51.68-8.285-2.868-13.639-10.235-13.807-19.002-.398-20.837-24.02-38-43.961-31.941-8.389 2.549-17.051-.264-22.339-7.257-12.57-16.624-41.768-16.624-54.339-.001-5.288 6.994-13.95 9.809-22.338 7.259-19.941-6.061-43.563 11.101-43.962 31.939-.168 8.766-5.52 16.135-13.806 19.003-19.694 6.818-28.718 34.587-16.793 51.679 5.017 7.191 5.018 16.298.001 23.488-11.926 17.092-2.904 44.861 16.79 51.68 8.286 2.868 13.639 10.236 13.807 19.002.398 20.837 24.019 38 43.96 31.94 8.389-2.549 17.051.264 22.339 7.258 12.57 16.624 41.769 16.624 54.34.001 5.288-6.994 13.949-9.808 22.338-7.258 19.941 6.06 43.562-11.102 43.961-31.939.169-8.768 5.522-16.135 13.808-19.004z" fill="#fc685b"/><path d="m467.571 362.411c19.694-6.818 28.716-34.586 16.792-51.679-5.017-7.191-5.018-16.298-.001-23.488 10.894-15.614 4.305-40.136-11.931-49.459 5.722 11.116 6.118 25.229-1.044 35.494-5.018 7.191-5.017 16.298.001 23.488 11.925 17.093 2.902 44.86-16.792 51.679-8.286 2.868-13.639 10.236-13.807 19.003-.399 20.837-24.021 38-43.961 31.94-8.389-2.55-17.05.264-22.338 7.258-12.57 16.623-41.769 16.623-54.339-.001-5.288-6.993-13.95-9.806-22.339-7.257-9.256 2.813-19.303.62-27.454-4.618 7.375 14.059 25.002 23.271 40.429 18.583 8.389-2.549 17.051.264 22.339 7.258 12.57 16.624 41.769 16.624 54.339.001 5.288-6.994 13.949-9.808 22.338-7.258 19.941 6.06 43.563-11.102 43.961-31.939.168-8.769 5.521-16.136 13.807-19.005zm-13.123-140.864c-.417-1.592-.651-3.261-.684-4.985-.213-11.166-7.096-21.274-16.506-27.322 2.158 4.113 3.441 8.641 3.531 13.357.167 8.715 5.458 16.046 13.659 18.95zm-219.264 124.679c3.806 7.394 9.967 13.462 17.834 16.186l.148.053c-1.703-6.504-6.467-11.713-13.123-14.017-1.702-.591-3.323-1.34-4.859-2.222z" fill="#f35244"/><circle cx="360.295" cy="298.988" fill="#eff4f7" r="85.827"/><path d="m360.295 213.16c21.48 0 41.117 7.891 56.171 20.932-12.545-7.178-27.074-11.283-42.563-11.283-47.401 0-85.827 38.426-85.827 85.827 0 25.921 11.491 49.158 29.657 64.895-25.846-14.789-43.264-42.632-43.264-74.544-.001-47.4 38.425-85.827 85.826-85.827z" fill="#e2e3e3"/></g><g><path d="m360.295 242.59 14.594 34.715 37.526 3.152-28.507 24.607 8.599 36.664-32.212-19.508-32.212 19.508 8.599-36.664-28.507-24.607 37.526-3.152z" fill="#ffda2d"/><path d="m360.295 242.59 14.594 34.716 37.526 3.151-28.507 24.607 8.599 36.664-14.944-9.05-6.477-27.614 28.507-24.607-37.527-3.151-8.183-19.466zm0 79.63-6.41-3.882-23.679 14.34-2.122 9.05z" fill="#ffc700"/></g></g><path d="m378.67 299.011c-2.25 1.938-3.24 4.98-2.561 7.881l4.264 18.13-15.941-9.64c-1.269-.783-2.707-1.16-4.141-1.16-1.439 0-2.867.377-4.141 1.16l-15.937 9.64 4.259-18.13c.679-2.901-.311-5.943-2.561-7.881l-14.098-12.169 18.559-1.561c2.962-.25 5.547-2.127 6.702-4.867l7.216-17.173 7.221 17.173c1.151 2.74 3.74 4.617 6.702 4.867l18.559 1.561zm41.349-21.021c-1-3.066-3.731-5.23-6.938-5.499l-32.699-2.75-12.72-30.251c-1.24-2.967-4.151-4.9-7.372-4.9-3.216 0-6.131 1.934-7.377 4.9l-12.71 30.251-32.704 2.75c-3.207.269-5.938 2.434-6.938 5.499-.99 3.061-.052 6.424 2.382 8.523l24.837 21.441-7.49 31.949c-.731 3.132.481 6.4 3.089 8.301 2.603 1.887 6.094 2.037 8.843.368l28.068-16.998 28.072 16.998c1.269.769 2.707 1.16 4.141 1.16 1.66 0 3.306-.519 4.698-1.528 2.608-1.901 3.82-5.169 3.089-8.301l-7.49-31.949 24.841-21.441c2.43-2.099 3.368-5.462 2.378-8.523zm-59.729 98.621c42.802 0 77.633-34.817 77.633-77.618 0-42.811-34.831-77.632-77.633-77.632s-77.628 34.821-77.628 77.632c0 42.801 34.826 77.618 77.628 77.618zm93.631-77.619c0-51.631-42-93.63-93.631-93.63-51.626 0-93.631 42-93.631 93.63 0 51.621 42.005 93.621 93.631 93.621 51.631.001 93.631-41.999 93.631-93.621zm-4.019 144.889c-3.839-.698-7.613 1.491-8.943 5.16l-14.05 38.972-34.869-60.403c.618-.698 1.231-1.415 1.802-2.17 3.25-4.297 8.48-5.999 13.631-4.429 11.749 3.57 25.337.929 36.34-7.07 6.688-4.858 11.786-11.249 14.81-18.267l32.057 55.517zm-89.612-18.8c8.622 0 16.39-3.481 20.79-9.287 7.292-9.654 19.469-13.602 31.039-10.093 6.985 2.122 15.314.358 22.28-4.698 6.98-5.07 11.22-12.452 11.362-19.743.231-12.088 7.759-22.45 19.191-26.412 6.891-2.377 12.598-8.697 15.258-16.899 2.66-8.188 1.759-16.658-2.41-22.639-6.919-9.919-6.919-22.729 0-32.638 4.169-5.99 5.07-14.451 2.41-22.653-2.66-8.188-8.367-14.508-15.258-16.899-11.432-3.947-18.96-14.319-19.191-26.397-.141-7.301-4.382-14.682-11.348-19.743-6.98-5.07-15.31-6.82-22.294-4.697-11.57 3.509-23.747-.453-31.039-10.093-4.4-5.82-12.169-9.286-20.79-9.286-8.617 0-16.39 3.466-20.79 9.286-7.292 9.64-19.469 13.602-31.039 10.093-6.98-2.123-15.309-.373-22.29 4.697-6.971 5.061-11.211 12.442-11.348 19.729-.231 12.093-7.763 22.464-19.191 26.411-6.891 2.391-12.602 8.712-15.262 16.899-2.66 8.202-1.759 16.663 2.41 22.653 6.919 9.909 6.919 22.719 0 32.638-4.169 5.98-5.07 14.451-2.41 22.639 2.66 8.202 8.372 14.513 15.262 16.899 11.428 3.962 18.96 14.324 19.191 26.412.137 7.292 4.377 14.673 11.348 19.743 6.98 5.056 15.309 6.82 22.28 4.698 2.811-.849 5.641-1.269 8.438-1.269 8.754 0 17.083 4.051 22.611 11.362 4.4 5.807 12.173 9.287 20.79 9.287zm-66.62 62.932-14.05-38.972c-1.33-3.669-5.098-5.849-8.938-5.16l-40.783 7.311 32.062-55.517c3.019 7.018 8.108 13.409 14.81 18.267 10.999 7.999 24.587 10.64 36.34 7.07 5.16-1.57 10.381.132 13.63 4.429.571.755 1.179 1.471 1.797 2.17zm-3.678-310.662c7.697-2.419 15.772-2.618 23.12-.377 5.15 1.566 10.381-.132 13.63-4.428 2.188-2.906 4.839-5.443 7.82-7.594v-74.812c-107.851-55.437-178.719-55.437-286.57 0v111.751c0 38.67 15.272 68.44 46.659 90.999l96.63 69.454 32.76-23.554c-2.66-11.678-.67-23.629 5.622-32.638 3.089-4.419 3.089-9.909 0-14.328-1.773-2.542-3.203-5.311-4.283-8.24-10.881 3.981-22.309 5.999-34.1 5.999-54.88 0-99.521-44.641-99.521-99.521 0-54.881 44.641-99.521 99.521-99.521 50.472 0 92.429 37.953 98.712 86.81zm-64.842 77.732c-1.321 4.07-2.056 8.211-2.231 12.3-10.018 4.117-20.639 6.197-31.638 6.197-46.061 0-83.523-37.467-83.523-83.518s37.463-83.519 83.523-83.519c44.481 0 81.09 35.128 83.401 79.109-9.763 7.961-15.639 19.281-15.861 30.76-.099 5.391-3.33 9.829-8.419 11.598-11.612 4.009-21.04 14.131-25.252 27.073zm-33.869 145.43 49.532-35.599c-4.023-2.919-7.551-6.65-10.395-11.004l-34.468 24.78c-1.401 1-3.042 1.5-4.669 1.5-1.641 0-3.283-.5-4.669-1.5l-101.299-72.798c-35.873-25.789-53.319-59.809-53.319-104.002v-116.608c0-2.981 1.66-5.712 4.296-7.089 115.878-60.592 194.1-60.592 309.983 0 2.641 1.377 4.287 4.108 4.287 7.089v72.642c3.141-.674 6.4-1.023 9.73-1.023 1.783 0 3.542.104 5.273.302v-85.698c-131.353-71.732-217.22-71.732-348.573 0v130.385c0 48.683 20.049 87.772 59.573 116.18zm318.171 51.197-44.929-77.83c1.42-1.745 3.349-3.108 5.66-3.91 11.607-4.018 21.04-14.14 25.247-27.067 4.202-12.942 2.514-26.671-4.509-36.751-3.089-4.419-3.089-9.909 0-14.328 7.023-10.07 8.711-23.804 4.509-36.741-4.207-12.942-13.64-23.063-25.247-27.072-5.094-1.769-8.32-6.207-8.423-11.598-.236-12.281-6.947-24.379-17.946-32.383-11.003-7.989-24.591-10.626-36.34-7.056-5.151 1.566-10.381-.132-13.631-4.428-3.231-4.273-7.442-7.792-12.281-10.405v-95.371c0-2.906-1.58-5.589-4.132-6.999-72.492-40.128-129.91-58.022-186.149-58.022-.009 0 0 0 0 0-56.253 0-113.671 17.904-186.162 58.021-2.547 1.401-4.127 4.08-4.127 6.99v135.13c0 54.13 22.29 97.583 66.228 129.173l119.392 85.797c1.387 1.014 3.028 1.509 4.669 1.509 1.627 0 3.269-.495 4.669-1.509l60.002-43.127c.038.047.07.099.108.146l-44.928 77.83c-2.25 3.901-2.052 8.612.538 12.291 2.58 3.684 6.943 5.471 11.371 4.669l43.82-7.848 15.097 41.868c1.533 4.24 5.259 7.112 9.74 7.513.354.028.703.047 1.052.047 4.07 0 7.792-2.127 9.862-5.721l38.939-67.435c5.669 2.575 12.079 3.99 18.738 3.99 6.66 0 13.069-1.415 18.738-4l38.944 67.445c2.07 3.594 5.787 5.721 9.857 5.721.353 0 .703-.019 1.052-.047 4.481-.401 8.211-3.273 9.739-7.513l15.102-41.868 43.82 7.848c4.429.802 8.787-.986 11.367-4.679 2.595-3.677 2.793-8.379.544-12.28zm-271.36-283.339-54.692 55.21c-3.217 3.24-8.508 3.283-11.777.099l-27.072-26.388c-3.311-3.221-3.382-8.532-.16-11.852 1.561-1.599 3.65-2.5 5.891-2.528h.118c2.193 0 4.264.84 5.829 2.358l15.441 15.064c3.151 3.056 8.183 3.018 11.272-.104l43.278-43.679c3.259-3.278 8.57-3.301 11.852-.038 1.589 1.576 2.457 3.679 2.467 5.919.001 2.242-.858 4.34-2.447 5.939zm11.258-23.2c4.622 4.589 7.169 10.701 7.193 17.21.019 6.523-2.5 12.64-7.094 17.262l-54.697 55.206c-4.745 4.773-11.022 7.164-17.3 7.164-6.141 0-12.281-2.292-16.993-6.872l-27.068-26.379c-9.631-9.372-9.843-24.832-.472-34.472 4.542-4.669 10.631-7.287 17.14-7.377 6.499-.113 12.673 2.358 17.333 6.9l9.768 9.518 37.703-38.057c.009 0 .009 0 .019-.014 9.471-9.527 24.936-9.569 34.468-.089z"/></g></svg>