<svg id="Capa_1" enable-background="new 0 0 512 512" height="512" viewBox="0 0 512 512" width="512" xmlns="http://www.w3.org/2000/svg"><g><g clip-rule="evenodd" fill-rule="evenodd"><path d="m7.5 144.01h232.5v59.999h-232.5z" fill="#fff"/><path d="m142.499 264.009c-8.284 0-15-6.716-15-15s6.716-15 15-15 15 6.716 15 15-6.716 15-15 15zm97.501-60h-232.5v269.998c0 8.25 6.75 15 15 15h202.5c8.25 0 15-6.75 15-15zm-127.5 89.999c0 8.284-6.716 15-15 15s-15-6.716-15-15 6.716-15 15-15 15 6.716 15 15zm-60-59.999c8.284 0 15 6.716 15 15s-6.716 15-15 15-15-6.716-15-15c0-8.285 6.715-15 15-15zm89.999 89.999c8.284 0 15 6.716 15 15s-6.716 15-15 15-15-6.716-15-15c-.001-8.285 6.715-15 15-15zm-44.999 44.999c8.284 0 15 6.716 15 15s-6.716 15-15 15-15-6.716-15-15 6.715-15 15-15zm-45-44.999c8.284 0 15 6.716 15 15s-6.716 15-15 15-15-6.716-15-15c0-8.285 6.715-15 15-15z" fill="#83f2f8"/><path d="m52.5 264.009c8.284 0 15-6.716 15-15s-6.716-15-15-15-15 6.716-15 15 6.715 15 15 15zm0 89.999c8.284 0 15-6.716 15-15s-6.716-15-15-15-15 6.716-15 15 6.715 15 15 15zm60 29.999c0-8.284-6.716-15-15-15s-15 6.716-15 15 6.716 15 15 15 15-6.716 15-15zm44.999-44.999c0-8.284-6.716-15-15-15s-15 6.716-15 15 6.716 15 15 15 15-6.716 15-15zm-30.001-89.999c0 8.284 6.716 15 15 15s15-6.716 15-15-6.716-15-15-15-15 6.715-15 15zm-29.998 29.999c-8.284 0-15 6.716-15 15s6.716 15 15 15 15-6.716 15-15-6.716-15-15-15z" fill="#40a2ff"/><path d="m272 204.009v269.998c0 8.25 6.75 15 15 15h202.5c8.25 0 15-6.75 15-15v-269.998zm41.25 179.999c0-8.284 6.716-15 15-15s15 6.716 15 15-6.716 15-15 15-15-6.716-15-15zm75 44.999c8.284 0 15 6.716 15 15s-6.716 15-15 15-15-6.716-15-15 6.716-15 15-15zm44.999-44.999c0-8.284 6.716-15 15-15s15 6.716 15 15-6.716 15-15 15-15-6.716-15-15zm-44.999-52.5c-8.284 0-15-6.716-15-15s6.716-15 15-15 15 6.716 15 15-6.716 15-15 15zm-44.999-82.499c0 8.284-6.716 15-15 15s-15-6.716-15-15 6.716-15 15-15 15 6.715 15 15zm104.998 15c-8.284 0-15-6.716-15-15s6.716-15 15-15 15 6.716 15 15-6.716 15-15 15z" fill="#83f2f8"/><path d="m272 144.01h232.5v59.999h-232.5z" fill="#fff"/><path d="m343.251 249.009c0-8.284-6.716-15-15-15s-15 6.716-15 15 6.716 15 15 15 15-6.716 15-15zm89.998 0c0 8.284 6.716 15 15 15s15-6.716 15-15-6.716-15-15-15-15 6.715-15 15zm15 119.999c-8.284 0-15 6.716-15 15s6.716 15 15 15 15-6.716 15-15c0-8.285-6.716-15-15-15zm-74.999-52.5c0 8.284 6.716 15 15 15s15-6.716 15-15-6.716-15-15-15-15 6.716-15 15zm15 112.499c-8.284 0-15 6.716-15 15s6.716 15 15 15 15-6.716 15-15-6.716-15-15-15zm-44.999-44.999c0-8.284-6.716-15-15-15s-15 6.716-15 15 6.716 15 15 15 15-6.716 15-15z" fill="#40a2ff"/><path d="m275.877 89.507 44.999-30.001-44.999-29.999-.001 15h-84.752v30h84.753z" fill="#40a2ff"/><path d="m7.5 144.01h22.5v59.999h-22.5z" fill="#83f2f8"/><path d="m30 204.009h-22.5v269.998c0 8.25 6.75 15 15 15h22.5c-8.25 0-15-6.75-15-15z" fill="#00eaee"/><path d="m272 144.01h22.5v59.999h-22.5z" fill="#83f2f8"/><path d="m294.5 204.009h-22.5v269.998c0 8.25 6.75 15 15 15h22.5c-8.25 0-15-6.75-15-15z" fill="#00eaee"/><path d="m191.124 44.507h22.5v30h-22.5z" fill="#0069f8"/></g><g><path d="m0 241.509h15v-30h217.5v262.498c0 4.136-3.364 7.5-7.5 7.5h-202.5c-4.136 0-7.5-3.364-7.5-7.5v-217.498h-15v217.498c0 12.407 10.093 22.5 22.5 22.5h202.5c12.406 0 22.5-10.093 22.5-22.5v-337.497h-247.5zm232.5-89.999v44.999h-217.5v-44.999z"/><path d="m52.5 226.509c-12.407 0-22.5 10.094-22.5 22.5s10.093 22.5 22.5 22.5 22.5-10.093 22.5-22.5-10.094-22.5-22.5-22.5zm0 30c-4.136 0-7.5-3.364-7.5-7.5s3.364-7.5 7.5-7.5 7.5 3.365 7.5 7.5-3.365 7.5-7.5 7.5z"/><path d="m142.499 226.509c-12.407 0-22.5 10.094-22.5 22.5s10.093 22.5 22.5 22.5 22.5-10.093 22.5-22.5-10.094-22.5-22.5-22.5zm0 30c-4.136 0-7.5-3.364-7.5-7.5s3.364-7.5 7.5-7.5 7.5 3.365 7.5 7.5-3.365 7.5-7.5 7.5z"/><path d="m90 241.509h15v15h-15z"/><path d="m75 294.008c0 12.407 10.093 22.5 22.5 22.5s22.5-10.093 22.5-22.5-10.094-22.5-22.5-22.5-22.5 10.093-22.5 22.5zm22.5-7.5c4.136 0 7.5 3.364 7.5 7.5s-3.365 7.5-7.5 7.5-7.5-3.364-7.5-7.5 3.364-7.5 7.5-7.5z"/><path d="m45 286.508h15v15h-15z"/><path d="m134.998 286.508h15v15h-15z"/><path d="m52.5 361.508c12.407 0 22.5-10.093 22.5-22.5s-10.094-22.5-22.5-22.5-22.5 10.093-22.5 22.5 10.093 22.5 22.5 22.5zm0-30c4.136 0 7.5 3.364 7.5 7.5s-3.365 7.5-7.5 7.5-7.5-3.364-7.5-7.5 3.364-7.5 7.5-7.5z"/><path d="m142.499 361.508c12.407 0 22.5-10.093 22.5-22.5s-10.093-22.5-22.5-22.5-22.5 10.093-22.5 22.5 10.093 22.5 22.5 22.5zm0-30c4.136 0 7.5 3.364 7.5 7.5s-3.364 7.5-7.5 7.5-7.5-3.364-7.5-7.5 3.364-7.5 7.5-7.5z"/><path d="m90 331.508h15v15h-15z"/><path d="m75 384.007c0 12.407 10.093 22.5 22.5 22.5s22.5-10.093 22.5-22.5-10.094-22.5-22.5-22.5-22.5 10.093-22.5 22.5zm22.5-7.5c4.136 0 7.5 3.364 7.5 7.5s-3.365 7.5-7.5 7.5-7.5-3.364-7.5-7.5 3.364-7.5 7.5-7.5z"/><path d="m45 376.507h15v15h-15z"/><path d="m264.5 136.51v337.497c0 12.407 10.094 22.5 22.5 22.5h150v-15h-150c-4.136 0-7.5-3.364-7.5-7.5v-262.498h217.5v262.498c0 4.136-3.364 7.5-7.5 7.5h-37.499v15h37.499c12.406 0 22.5-10.093 22.5-22.5v-337.497zm15 59.999v-44.999h217.5v44.999z"/><path d="m328.251 226.509c-12.406 0-22.5 10.094-22.5 22.5s10.094 22.5 22.5 22.5 22.5-10.093 22.5-22.5-10.094-22.5-22.5-22.5zm0 30c-4.136 0-7.5-3.364-7.5-7.5s3.364-7.5 7.5-7.5 7.5 3.365 7.5 7.5-3.364 7.5-7.5 7.5z"/><path d="m470.749 249.009c0-12.407-10.094-22.5-22.5-22.5s-22.5 10.094-22.5 22.5 10.094 22.5 22.5 22.5 22.5-10.093 22.5-22.5zm-22.5 7.5c-4.136 0-7.5-3.364-7.5-7.5s3.364-7.5 7.5-7.5 7.5 3.365 7.5 7.5-3.364 7.5-7.5 7.5z"/><path d="m380.75 241.509h15v15h-15z"/><path d="m388.25 294.008c-12.406 0-22.5 10.093-22.5 22.5s10.094 22.5 22.5 22.5 22.5-10.093 22.5-22.5-10.094-22.5-22.5-22.5zm0 30c-4.136 0-7.5-3.364-7.5-7.5s3.364-7.5 7.5-7.5 7.5 3.364 7.5 7.5-3.364 7.5-7.5 7.5z"/><path d="m320.751 309.008h15v15h-15z"/><path d="m440.749 309.008h15v15h-15z"/><path d="m350.751 384.008c0-12.407-10.094-22.5-22.5-22.5s-22.5 10.093-22.5 22.5 10.094 22.5 22.5 22.5 22.5-10.094 22.5-22.5zm-22.5 7.5c-4.136 0-7.5-3.364-7.5-7.5s3.364-7.5 7.5-7.5 7.5 3.364 7.5 7.5-3.364 7.5-7.5 7.5z"/><path d="m448.249 406.508c12.406 0 22.5-10.093 22.5-22.5s-10.094-22.5-22.5-22.5-22.5 10.093-22.5 22.5 10.094 22.5 22.5 22.5zm0-30c4.136 0 7.5 3.364 7.5 7.5s-3.364 7.5-7.5 7.5-7.5-3.364-7.5-7.5 3.364-7.5 7.5-7.5z"/><path d="m380.75 376.508h15v15h-15z"/><path d="m365.75 444.007c0 12.407 10.094 22.5 22.5 22.5s22.5-10.093 22.5-22.5-10.094-22.5-22.5-22.5-22.5 10.093-22.5 22.5zm22.5-7.5c4.136 0 7.5 3.364 7.5 7.5s-3.364 7.5-7.5 7.5-7.5-3.364-7.5-7.5 3.364-7.5 7.5-7.5z"/><path d="m320.751 436.507h15v15h-15z"/><path d="m440.749 436.507h15v15h-15z"/><path d="m437 166.51h15v15h-15z"/><path d="m467 166.51h15v15h-15z"/><path d="m268.377 103.521 66.02-44.015-66.019-44.013-.001 21.514h-84.753v45h84.753zm-69.753-36.514v-15h84.751l.001-8.487 23.979 15.986-23.979 15.986v-8.485z"/></g></g></svg>