<?xml version="1.0" encoding="iso-8859-1"?>
<!-- Generator: Adobe Illustrator 19.0.0, SVG Export Plug-In . SVG Version: 6.00 Build 0)  -->
<svg version="1.1" id="Capa_1" xmlns="http://www.w3.org/2000/svg" xmlns:xlink="http://www.w3.org/1999/xlink" x="0px" y="0px"
	 viewBox="0 0 511.999 511.999" style="enable-background:new 0 0 511.999 511.999;" xml:space="preserve">
<path style="fill:#82D8F9;" d="M283.492,7.476c-144.906,0-245.101,122.197-204.466,240.151c2.703,7.847-1.21,16.486-8.965,19.443
	c-32.403,12.356-55.053,40.57-55.053,73.416c0,44.237,41.072,80.098,91.738,80.098c36.349,0,67.746-18.464,82.592-45.232
	c3.599-6.488,11.207-9.561,18.248-7.22c138.735,46.109,289.391-43.185,289.391-174.261C496.975,90.93,401.395,7.476,283.492,7.476z"
	/>
<path style="fill:#68BFEA;" d="M95.061,275.071c7.755-2.957,11.668-11.596,8.965-19.443
	C55.655,115.219,205.021-19.398,369.316,23.166c-26.266-10.082-55.293-15.69-85.824-15.69
	c-144.906,0-245.102,122.197-204.466,240.151c2.703,7.847-1.21,16.486-8.965,19.443c-32.403,12.356-55.053,40.57-55.053,73.416
	c0,38.627,31.318,70.866,72.993,78.422C20.939,387.083,25.12,301.74,95.061,275.071z"/>
<ellipse style="fill:#82D8F9;" cx="171.09" cy="472.269" rx="45.547" ry="32.212"/>
<path style="fill:#68BFEA;" d="M150.543,472.267c0-14.722,13.972-27.128,33.046-30.971c-30.232-6.091-58.048,10.354-58.048,30.971
	c0,20.373,27.591,37.107,58.048,30.971C164.515,499.393,150.543,486.987,150.543,472.267z"/>
<path style="fill:#1C84AD;" d="M263.963,284.365c-51.211,0-92.875-45.943-92.875-102.415c0-56.471,41.664-102.415,92.875-102.415
	c51.21,0,92.873,45.944,92.873,102.415C356.835,238.422,315.173,284.365,263.963,284.365z M263.963,106.865
	c-36.141,0-65.544,33.683-65.544,75.085c0,41.402,29.403,75.085,65.544,75.085s65.543-33.683,65.543-75.085
	C329.505,140.549,300.103,106.865,263.963,106.865z"/>
<path style="fill:#137B9B;" d="M198.228,181.95c0-51.389,34.503-94.055,79.305-101.319
	c-56.327-9.134-106.443,39.224-106.443,101.319c0,56.472,41.663,102.415,92.875,102.415c4.609,0,9.139-0.378,13.57-1.096
	C232.73,276.005,198.228,233.339,198.228,181.95z"/>
<path d="M207.625,443.39c-33.218-23.49-89.584-6.462-89.584,28.9c0,24.823,27.372,39.709,53.047,39.709
	C219.333,512,242.113,467.782,207.625,443.39z M171.088,496.999c-20.623,0-38.046-11.315-38.046-24.708
	c0-13.395,17.423-24.71,38.046-24.71s38.046,11.315,38.046,24.71C209.134,485.683,191.711,496.999,171.088,496.999z"/>
<path d="M263.962,99.389c-40.275,0-73.043,37.047-73.043,82.585s32.768,82.585,73.043,82.585s73.043-37.047,73.043-82.585
	S304.238,99.389,263.962,99.389z M263.962,249.558c-32.005,0-58.043-30.318-58.043-67.584s26.038-67.584,58.043-67.584
	s58.043,30.318,58.043,67.584S295.967,249.558,263.962,249.558z"/>
<path d="M364.336,181.974c0-60.608-45.027-109.916-100.373-109.916s-100.374,49.308-100.374,109.916S208.616,291.89,263.963,291.89
	S364.336,242.582,364.336,181.974z M263.962,276.889c-47.075,0-85.373-42.579-85.373-94.915s38.298-94.915,85.373-94.915
	c47.074,0,85.372,42.579,85.372,94.915S311.037,276.889,263.962,276.889z"/>
<path d="M377.605,236.972c-6.697,0-13.041,2.313-17.861,6.514c-3.122,2.722-3.448,7.459-0.727,10.583
	c2.723,3.122,7.46,3.447,10.583,0.727c6.721-5.857,18.795-1.892,18.795,5.617c0,4.574-4.94,8.438-10.79,8.438h-4.944
	c-4.143,0-7.5,3.357-7.5,7.5c0,4.143,3.357,7.5,7.5,7.5h4.944c5.849,0,10.79,3.865,10.79,8.44s-4.94,8.44-10.79,8.44
	c-3.073,0-5.917-1.002-8.007-2.822c-3.122-2.722-7.861-2.396-10.582,0.728c-2.722,3.123-2.396,7.86,0.728,10.582
	c4.82,4.2,11.164,6.514,17.86,6.514c22.491,0,34.132-24.469,18.886-39.381C411.709,261.469,400.156,236.972,377.605,236.972z"/>
<path d="M469.401,89.008c-2.451-3.338-7.146-4.058-10.485-1.607c-3.339,2.451-4.059,7.145-1.607,10.485
	c86.674,118.066-11.025,274.905-173.818,274.905c-4.143,0-7.5,3.357-7.5,7.5c0,4.143,3.357,7.5,7.5,7.5
	c58.838,0,114.2-20.046,155.888-56.444C515.632,264.772,523.941,163.305,469.401,89.008z"/>
<path d="M247.595,370.064c-17.354-2.653-34.229-7.229-50.156-13.603c-3.993-1.6-8.502,0.488-9.885,4.539
	c-10.477,30.68-43.707,52.107-80.81,52.107c-46.449,0-84.237-32.567-84.237-72.597c0-33.499,26.349-62.483,64.074-70.483
	c4.686-0.993,7.258-6.079,5.271-10.444C38.715,142.829,138.044,15.001,283.492,15.001c55.783,0,110.879,19.541,151.313,57.555
	c3.018,2.836,7.765,2.691,10.603-0.327c2.838-3.018,2.691-7.764-0.326-10.603C401.619,20.769,342.748,0,283.492,0
	C132.229,0,24.531,131.035,74.704,257.586c-39.988,11.95-67.198,44.983-67.198,82.925c0,48.302,44.519,87.598,99.238,87.598
	c43.024,0,77.883-23.736,92.136-55.042c14.897,5.415,30.486,9.387,46.447,11.827c4.097,0.624,7.922-2.185,8.549-6.28
	S251.69,370.69,247.595,370.064z"/>
<g>
</g>
<g>
</g>
<g>
</g>
<g>
</g>
<g>
</g>
<g>
</g>
<g>
</g>
<g>
</g>
<g>
</g>
<g>
</g>
<g>
</g>
<g>
</g>
<g>
</g>
<g>
</g>
<g>
</g>
</svg>
